<?xml version="1.0" encoding="UTF-8" standalone="no"?>
<!-- Created with Inkscape (http://www.inkscape.org/) -->

<svg
   xmlns:dc="http://purl.org/dc/elements/1.1/"
   xmlns:cc="http://creativecommons.org/ns#"
   xmlns:rdf="http://www.w3.org/1999/02/22-rdf-syntax-ns#"
   xmlns:svg="http://www.w3.org/2000/svg"
   xmlns="http://www.w3.org/2000/svg"
   xmlns:sodipodi="http://sodipodi.sourceforge.net/DTD/sodipodi-0.dtd"
   xmlns:inkscape="http://www.inkscape.org/namespaces/inkscape"
   version="1.1"
   id="svg1161"
   xml:space="preserve"
   width="880"
   height="880"
   viewBox="0 0 880 880"
   sodipodi:docname="pumpkin-freesvg.org.svg"
   inkscape:version="0.92.4 (5da689c313, 2019-01-14)"><metadata
     id="metadata1167"><rdf:RDF><cc:Work
         rdf:about=""><dc:format>image/svg+xml</dc:format><dc:type
           rdf:resource="http://purl.org/dc/dcmitype/StillImage" /><dc:title></dc:title></cc:Work></rdf:RDF></metadata><defs
     id="defs1165"><clipPath
       clipPathUnits="userSpaceOnUse"
       id="clipPath1177"><path
         d="M 0,660 H 660 V 0 H 0 Z"
         id="path1175"
         inkscape:connector-curvature="0" /></clipPath></defs><sodipodi:namedview
     pagecolor="#ffffff"
     bordercolor="#666666"
     borderopacity="1"
     objecttolerance="10"
     gridtolerance="10"
     guidetolerance="10"
     inkscape:pageopacity="0"
     inkscape:pageshadow="2"
     inkscape:window-width="1920"
     inkscape:window-height="1018"
     id="namedview1163"
     showgrid="false"
     inkscape:zoom="0.82197243"
     inkscape:cx="460.50847"
     inkscape:cy="378.09686"
     inkscape:window-x="-8"
     inkscape:window-y="-8"
     inkscape:window-maximized="1"
     inkscape:current-layer="g1169" /><g
     id="g1169"
     inkscape:groupmode="layer"
     inkscape:label="pumpkin-freesvg.org"
     transform="matrix(1.3333333,0,0,-1.3333333,0,880)"><g
       id="g1975"><path
         inkscape:connector-curvature="0"
         id="path1179"
         style="fill:#231f20;fill-opacity:1;fill-rule:nonzero;stroke:none"
         d="m 31.141,-25.146 h 3.677 c 1.135,0 2.026,0.106 2.672,0.318 0.646,0.212 1.161,0.51 1.545,0.893 0.54,0.541 0.961,1.269 1.262,2.182 0.302,0.914 0.453,2.022 0.453,3.322 0,1.804 -0.295,3.19 -0.887,4.159 -0.591,0.967 -1.31,1.617 -2.155,1.946 -0.612,0.235 -1.594,0.352 -2.949,0.352 h -3.618 z m -2.282,-2.031 v 17.235 h 5.932 c 1.338,0 2.36,-0.082 3.065,-0.247 0.986,-0.228 1.828,-0.639 2.525,-1.235 0.908,-0.767 1.587,-1.749 2.037,-2.944 0.451,-1.195 0.676,-2.562 0.676,-4.098 0,-1.308 -0.153,-2.469 -0.458,-3.479 -0.305,-1.011 -0.697,-1.848 -1.175,-2.51 -0.477,-0.663 -1,-1.184 -1.568,-1.564 -0.567,-0.38 -1.252,-0.668 -2.055,-0.864 -0.802,-0.196 -1.724,-0.294 -2.766,-0.294 z" /><path
         inkscape:connector-curvature="0"
         id="path1181"
         style="fill:#231f20;fill-opacity:1;fill-rule:nonzero;stroke:none"
         d="m 47.546,-19.739 h 6.969 c -0.094,1.052 -0.36,1.842 -0.799,2.368 -0.674,0.817 -1.548,1.225 -2.621,1.225 -0.971,0 -1.788,-0.326 -2.45,-0.978 -0.662,-0.651 -1.028,-1.523 -1.099,-2.615 m 6.946,-3.407 2.187,-0.281 c -0.345,-1.277 -0.983,-2.268 -1.915,-2.973 -0.931,-0.705 -2.122,-1.058 -3.571,-1.058 -1.824,0 -3.272,0.562 -4.34,1.687 -1.069,1.124 -1.603,2.701 -1.603,4.731 0,2.1 0.54,3.729 1.621,4.889 1.08,1.16 2.482,1.74 4.205,1.74 1.668,0 3.03,-0.568 4.088,-1.704 1.057,-1.136 1.586,-2.735 1.586,-4.794 0,-0.126 -0.004,-0.315 -0.012,-0.565 h -9.317 c 0.079,-1.373 0.467,-2.425 1.165,-3.155 0.698,-0.729 1.569,-1.095 2.612,-1.095 0.776,0 1.439,0.205 1.988,0.616 0.549,0.41 0.984,1.064 1.306,1.962" /><path
         inkscape:connector-curvature="0"
         id="path1183"
         style="fill:#231f20;fill-opacity:1;fill-rule:nonzero;stroke:none"
         d="m 58.489,-23.442 2.094,0.328 c 0.118,-0.842 0.445,-1.489 0.983,-1.937 0.538,-0.448 1.289,-0.673 2.254,-0.673 0.973,0 1.695,0.199 2.166,0.595 0.471,0.397 0.706,0.861 0.706,1.396 0,0.479 -0.207,0.855 -0.62,1.13 -0.289,0.189 -1.01,0.428 -2.163,0.719 -1.554,0.392 -2.631,0.731 -3.231,1.016 -0.6,0.286 -1.055,0.681 -1.365,1.187 -0.31,0.505 -0.464,1.063 -0.464,1.674 0,0.557 0.127,1.071 0.382,1.545 0.254,0.475 0.602,0.868 1.04,1.182 0.329,0.242 0.778,0.448 1.347,0.616 0.568,0.169 1.177,0.253 1.828,0.253 0.979,0 1.84,-0.141 2.58,-0.423 0.741,-0.282 1.288,-0.664 1.641,-1.145 0.352,-0.482 0.595,-1.125 0.729,-1.932 l -2.063,-0.281 c -0.094,0.642 -0.367,1.144 -0.818,1.505 -0.451,0.361 -1.089,0.541 -1.912,0.541 -0.974,0 -1.668,-0.161 -2.084,-0.483 -0.416,-0.321 -0.623,-0.698 -0.623,-1.13 0,-0.275 0.086,-0.523 0.259,-0.742 0.172,-0.228 0.443,-0.417 0.811,-0.566 0.212,-0.079 0.836,-0.259 1.872,-0.541 1.498,-0.401 2.543,-0.728 3.133,-0.982 0.59,-0.255 1.053,-0.625 1.389,-1.11 0.336,-0.487 0.504,-1.089 0.504,-1.81 0,-0.705 -0.206,-1.369 -0.617,-1.992 -0.412,-0.622 -1.006,-1.104 -1.783,-1.445 -0.776,-0.341 -1.654,-0.511 -2.634,-0.511 -1.623,0 -2.861,0.338 -3.711,1.013 -0.852,0.674 -1.395,1.675 -1.63,3.003" /><path
         inkscape:connector-curvature="0"
         id="path1185"
         style="fill:#231f20;fill-opacity:1;fill-rule:nonzero;stroke:none"
         d="m 71.378,-14.692 h 2.109 v -12.484 h -2.109 z m 0,4.75 h 2.109 v -2.438 h -2.109 z" /><path
         inkscape:connector-curvature="0"
         id="path1187"
         style="fill:#231f20;fill-opacity:1;fill-rule:nonzero;stroke:none"
         d="m 78.078,-20.712 c 0,-1.639 0.325,-2.834 0.974,-3.586 0.65,-0.753 1.464,-1.129 2.442,-1.129 0.97,0 1.784,0.374 2.442,1.123 0.657,0.748 0.985,1.922 0.985,3.522 0,1.528 -0.338,2.68 -1.015,3.457 -0.677,0.775 -1.492,1.164 -2.448,1.164 -0.938,0 -1.737,-0.383 -2.394,-1.147 -0.657,-0.764 -0.986,-1.899 -0.986,-3.404 m -1.75,-7.496 2.062,-0.313 c 0.086,-0.632 0.325,-1.093 0.716,-1.382 0.524,-0.391 1.24,-0.586 2.147,-0.586 0.978,0 1.733,0.196 2.265,0.588 0.531,0.392 0.892,0.941 1.079,1.647 0.11,0.432 0.16,1.337 0.153,2.718 -0.924,-1.094 -2.075,-1.641 -3.453,-1.641 -1.715,0 -3.043,0.619 -3.982,1.858 -0.94,1.238 -1.409,2.722 -1.409,4.455 0,1.191 0.216,2.29 0.646,3.297 0.431,1.006 1.056,1.785 1.874,2.333 0.819,0.548 1.78,0.823 2.885,0.823 1.472,0 2.687,-0.594 3.642,-1.781 v 1.5 h 1.953 v -10.789 c 0,-1.944 -0.198,-3.321 -0.593,-4.131 -0.396,-0.811 -1.023,-1.451 -1.881,-1.922 -0.858,-0.47 -1.914,-0.705 -3.168,-0.705 -1.488,0 -2.691,0.335 -3.608,1.005 -0.917,0.67 -1.36,1.678 -1.328,3.026" /><path
         inkscape:connector-curvature="0"
         id="path1189"
         style="fill:#231f20;fill-opacity:1;fill-rule:nonzero;stroke:none"
         d="m 90.104,-27.177 v 12.485 h 1.89 v -1.775 c 0.916,1.37 2.24,2.056 3.97,2.056 0.752,0 1.444,-0.135 2.074,-0.405 0.63,-0.271 1.102,-0.625 1.415,-1.065 0.313,-0.438 0.533,-0.96 0.658,-1.563 0.078,-0.392 0.118,-1.077 0.118,-2.057 v -7.676 h -2.11 v 7.598 c 0,0.862 -0.082,1.507 -0.246,1.934 -0.165,0.427 -0.456,0.769 -0.875,1.023 -0.419,0.256 -0.911,0.383 -1.474,0.383 -0.9,0 -1.677,-0.286 -2.331,-0.859 -0.653,-0.572 -0.98,-1.658 -0.98,-3.257 v -6.822 z" /><path
         inkscape:connector-curvature="0"
         id="path1191"
         style="fill:#231f20;fill-opacity:1;fill-rule:nonzero;stroke:none"
         d="m 105.062,-19.739 h 6.969 c -0.094,1.052 -0.361,1.842 -0.799,2.368 -0.674,0.817 -1.548,1.225 -2.621,1.225 -0.972,0 -1.788,-0.326 -2.45,-0.978 -0.662,-0.651 -1.029,-1.523 -1.099,-2.615 m 6.945,-3.407 2.188,-0.281 c -0.345,-1.277 -0.984,-2.268 -1.915,-2.973 -0.932,-0.705 -2.122,-1.058 -3.571,-1.058 -1.825,0 -3.272,0.562 -4.34,1.687 -1.07,1.124 -1.604,2.701 -1.604,4.731 0,2.1 0.54,3.729 1.621,4.889 1.081,1.16 2.483,1.74 4.205,1.74 1.668,0 3.031,-0.568 4.088,-1.704 1.057,-1.136 1.586,-2.735 1.586,-4.794 0,-0.126 -0.004,-0.315 -0.012,-0.565 h -9.316 c 0.078,-1.373 0.467,-2.425 1.165,-3.155 0.697,-0.729 1.568,-1.095 2.611,-1.095 0.777,0 1.439,0.205 1.989,0.616 0.548,0.41 0.984,1.064 1.305,1.962" /><path
         inkscape:connector-curvature="0"
         id="path1193"
         style="fill:#231f20;fill-opacity:1;fill-rule:nonzero;stroke:none"
         d="m 118.255,-20.948 c 0,-1.6 0.337,-2.795 1.01,-3.588 0.674,-0.791 1.469,-1.188 2.385,-1.188 0.924,0 1.709,0.378 2.355,1.135 0.646,0.757 0.969,1.911 0.969,3.464 0,1.71 -0.329,2.964 -0.987,3.765 -0.657,0.798 -1.468,1.199 -2.431,1.199 -0.94,0 -1.724,-0.385 -2.355,-1.152 -0.63,-0.77 -0.946,-1.981 -0.946,-3.635 m 6.688,-6.229 v 1.571 c -0.791,-1.235 -1.955,-1.852 -3.49,-1.852 -0.995,0 -1.91,0.274 -2.744,0.822 -0.834,0.549 -1.48,1.315 -1.938,2.299 -0.458,0.983 -0.688,2.113 -0.688,3.391 0,1.246 0.208,2.376 0.624,3.39 0.415,1.015 1.037,1.793 1.868,2.334 0.83,0.54 1.758,0.811 2.784,0.811 0.752,0 1.422,-0.158 2.01,-0.476 0.587,-0.317 1.065,-0.73 1.433,-1.239 v 6.184 h 2.11 v -17.235 z" /><path
         inkscape:connector-curvature="0"
         id="path1195"
         style="fill:#231f20;fill-opacity:1;fill-rule:nonzero;stroke:none"
         d="m 144.882,-20.911 c -0.767,-0.314 -1.918,-0.58 -3.451,-0.799 -0.869,-0.126 -1.484,-0.268 -1.844,-0.424 -0.36,-0.156 -0.637,-0.386 -0.833,-0.687 -0.196,-0.302 -0.294,-0.637 -0.294,-1.006 0,-0.565 0.213,-1.034 0.639,-1.41 0.426,-0.377 1.049,-0.565 1.869,-0.565 0.813,0 1.535,0.178 2.168,0.535 0.633,0.357 1.098,0.844 1.395,1.463 0.226,0.479 0.34,1.184 0.34,2.117 z m 0.172,-4.719 c -0.786,-0.668 -1.541,-1.141 -2.263,-1.415 -0.723,-0.275 -1.499,-0.413 -2.327,-0.413 -1.367,0 -2.418,0.335 -3.152,1.005 -0.734,0.67 -1.102,1.526 -1.102,2.567 0,0.612 0.139,1.17 0.416,1.675 0.278,0.506 0.641,0.911 1.09,1.217 0.45,0.306 0.955,0.536 1.518,0.693 0.414,0.11 1.039,0.216 1.875,0.318 1.703,0.203 2.957,0.446 3.762,0.728 0.007,0.29 0.011,0.475 0.011,0.553 0,0.863 -0.199,1.471 -0.598,1.823 -0.539,0.479 -1.341,0.718 -2.404,0.718 -0.992,0 -1.725,-0.175 -2.198,-0.524 -0.474,-0.348 -0.823,-0.965 -1.05,-1.851 l -2.062,0.281 c 0.188,0.886 0.497,1.601 0.928,2.146 0.43,0.544 1.052,0.963 1.867,1.256 0.814,0.295 1.758,0.442 2.831,0.442 1.064,0 1.929,-0.125 2.596,-0.376 0.665,-0.251 1.154,-0.567 1.467,-0.946 0.314,-0.38 0.533,-0.861 0.658,-1.44 0.071,-0.361 0.106,-1.012 0.106,-1.951 v -2.822 c 0,-1.967 0.045,-3.211 0.136,-3.733 0.09,-0.52 0.268,-1.019 0.536,-1.498 h -2.203 c -0.227,0.442 -0.373,0.957 -0.438,1.547" /><path
         inkscape:connector-curvature="0"
         id="path1197"
         style="fill:#231f20;fill-opacity:1;fill-rule:nonzero;stroke:none"
         d="m 150.31,-27.177 v 12.485 h 1.89 v -1.775 c 0.916,1.37 2.24,2.056 3.97,2.056 0.752,0 1.444,-0.135 2.074,-0.405 0.631,-0.271 1.102,-0.625 1.415,-1.065 0.313,-0.438 0.533,-0.96 0.658,-1.563 0.078,-0.392 0.118,-1.077 0.118,-2.057 v -7.676 h -2.11 v 7.598 c 0,0.862 -0.082,1.507 -0.246,1.934 -0.165,0.427 -0.456,0.769 -0.875,1.023 -0.419,0.256 -0.911,0.383 -1.474,0.383 -0.9,0 -1.677,-0.286 -2.331,-0.859 -0.653,-0.572 -0.98,-1.658 -0.98,-3.257 v -6.822 z" /><path
         inkscape:connector-curvature="0"
         id="path1199"
         style="fill:#231f20;fill-opacity:1;fill-rule:nonzero;stroke:none"
         d="m 165.081,-20.948 c 0,-1.6 0.336,-2.795 1.009,-3.588 0.674,-0.791 1.469,-1.188 2.385,-1.188 0.924,0 1.709,0.378 2.356,1.135 0.645,0.757 0.968,1.911 0.968,3.464 0,1.71 -0.329,2.964 -0.986,3.765 -0.658,0.798 -1.469,1.199 -2.432,1.199 -0.94,0 -1.724,-0.385 -2.355,-1.152 -0.63,-0.77 -0.945,-1.981 -0.945,-3.635 m 6.687,-6.229 v 1.571 c -0.791,-1.235 -1.955,-1.852 -3.49,-1.852 -0.994,0 -1.909,0.274 -2.743,0.822 -0.834,0.549 -1.481,1.315 -1.939,2.299 -0.458,0.983 -0.687,2.113 -0.687,3.391 0,1.246 0.207,2.376 0.623,3.39 0.415,1.015 1.037,1.793 1.868,2.334 0.83,0.54 1.758,0.811 2.785,0.811 0.752,0 1.421,-0.158 2.009,-0.476 0.587,-0.317 1.065,-0.73 1.433,-1.239 v 6.184 h 2.11 v -17.235 z" /><path
         inkscape:connector-curvature="0"
         id="path1201"
         style="fill:#231f20;fill-opacity:1;fill-rule:nonzero;stroke:none"
         d="m 183.724,-27.177 v 12.485 h 1.89 v -1.895 c 0.487,0.886 0.937,1.471 1.349,1.752 0.413,0.283 0.867,0.424 1.362,0.424 0.715,0 1.441,-0.228 2.18,-0.682 l -0.74,-1.957 c -0.516,0.301 -1.033,0.451 -1.549,0.451 -0.461,0 -0.876,-0.138 -1.243,-0.417 -0.368,-0.278 -0.63,-0.664 -0.787,-1.158 -0.235,-0.752 -0.353,-1.575 -0.353,-2.468 v -6.535 z" /><path
         inkscape:connector-curvature="0"
         id="path1203"
         style="fill:#231f20;fill-opacity:1;fill-rule:nonzero;stroke:none"
         d="m 193.345,-19.739 h 6.968 c -0.094,1.052 -0.36,1.842 -0.799,2.368 -0.674,0.817 -1.547,1.225 -2.62,1.225 -0.972,0 -1.789,-0.326 -2.451,-0.978 -0.662,-0.651 -1.028,-1.523 -1.098,-2.615 m 6.945,-3.407 2.187,-0.281 c -0.345,-1.277 -0.982,-2.268 -1.914,-2.973 -0.933,-0.705 -2.123,-1.058 -3.571,-1.058 -1.825,0 -3.272,0.562 -4.341,1.687 -1.068,1.124 -1.603,2.701 -1.603,4.731 0,2.1 0.54,3.729 1.621,4.889 1.081,1.16 2.482,1.74 4.206,1.74 1.667,0 3.03,-0.568 4.087,-1.704 1.057,-1.136 1.586,-2.735 1.586,-4.794 0,-0.126 -0.004,-0.315 -0.012,-0.565 h -9.316 c 0.078,-1.373 0.466,-2.425 1.164,-3.155 0.699,-0.729 1.569,-1.095 2.612,-1.095 0.776,0 1.439,0.205 1.988,0.616 0.549,0.41 0.984,1.064 1.306,1.962" /><path
         inkscape:connector-curvature="0"
         id="path1205"
         style="fill:#231f20;fill-opacity:1;fill-rule:nonzero;stroke:none"
         d="m 205.1,-9.942 h 2.109 V -27.176 H 205.1 Z" /><path
         inkscape:connector-curvature="0"
         id="path1207"
         style="fill:#231f20;fill-opacity:1;fill-rule:nonzero;stroke:none"
         d="m 212.07,-19.739 h 6.969 c -0.094,1.052 -0.361,1.842 -0.799,2.368 -0.674,0.817 -1.547,1.225 -2.62,1.225 -0.972,0 -1.789,-0.326 -2.451,-0.978 -0.662,-0.651 -1.028,-1.523 -1.099,-2.615 m 6.946,-3.407 2.187,-0.281 c -0.345,-1.277 -0.983,-2.268 -1.915,-2.973 -0.932,-0.705 -2.122,-1.058 -3.571,-1.058 -1.824,0 -3.271,0.562 -4.341,1.687 -1.068,1.124 -1.603,2.701 -1.603,4.731 0,2.1 0.541,3.729 1.622,4.889 1.08,1.16 2.482,1.74 4.205,1.74 1.668,0 3.03,-0.568 4.088,-1.704 1.057,-1.136 1.585,-2.735 1.585,-4.794 0,-0.126 -0.003,-0.315 -0.011,-0.565 h -9.317 c 0.079,-1.373 0.467,-2.425 1.165,-3.155 0.698,-0.729 1.568,-1.095 2.612,-1.095 0.776,0 1.439,0.205 1.987,0.616 0.549,0.41 0.985,1.064 1.307,1.962" /><path
         inkscape:connector-curvature="0"
         id="path1209"
         style="fill:#231f20;fill-opacity:1;fill-rule:nonzero;stroke:none"
         d="m 231.826,-20.911 c -0.767,-0.314 -1.918,-0.58 -3.452,-0.799 -0.869,-0.126 -1.483,-0.268 -1.843,-0.424 -0.361,-0.156 -0.638,-0.386 -0.834,-0.687 -0.196,-0.302 -0.293,-0.637 -0.293,-1.006 0,-0.565 0.213,-1.034 0.638,-1.41 0.426,-0.377 1.049,-0.565 1.87,-0.565 0.812,0 1.535,0.178 2.168,0.535 0.632,0.357 1.097,0.844 1.394,1.463 0.227,0.479 0.34,1.184 0.34,2.117 z m 0.172,-4.719 c -0.787,-0.668 -1.541,-1.141 -2.264,-1.415 -0.723,-0.275 -1.498,-0.413 -2.326,-0.413 -1.367,0 -2.418,0.335 -3.153,1.005 -0.734,0.67 -1.101,1.526 -1.101,2.567 0,0.612 0.138,1.17 0.416,1.675 0.277,0.506 0.64,0.911 1.09,1.217 0.449,0.306 0.955,0.536 1.517,0.693 0.414,0.11 1.039,0.216 1.875,0.318 1.703,0.203 2.957,0.446 3.762,0.728 0.008,0.29 0.012,0.475 0.012,0.553 0,0.863 -0.2,1.471 -0.598,1.823 -0.54,0.479 -1.341,0.718 -2.404,0.718 -0.993,0 -1.726,-0.175 -2.199,-0.524 -0.473,-0.348 -0.823,-0.965 -1.049,-1.851 l -2.063,0.281 c 0.188,0.886 0.497,1.601 0.928,2.146 0.431,0.544 1.053,0.963 1.867,1.256 0.815,0.295 1.758,0.442 2.831,0.442 1.065,0 1.93,-0.125 2.596,-0.376 0.665,-0.251 1.155,-0.567 1.468,-0.946 0.313,-0.38 0.532,-0.861 0.658,-1.44 0.07,-0.361 0.105,-1.012 0.105,-1.951 v -2.822 c 0,-1.967 0.045,-3.211 0.136,-3.733 0.09,-0.52 0.269,-1.019 0.536,-1.498 h -2.203 c -0.227,0.442 -0.373,0.957 -0.437,1.547" /><path
         inkscape:connector-curvature="0"
         id="path1211"
         style="fill:#231f20;fill-opacity:1;fill-rule:nonzero;stroke:none"
         d="m 236.394,-23.442 2.093,0.328 c 0.118,-0.842 0.446,-1.489 0.983,-1.937 0.538,-0.448 1.289,-0.673 2.254,-0.673 0.974,0 1.695,0.199 2.166,0.595 0.471,0.397 0.707,0.861 0.707,1.396 0,0.479 -0.207,0.855 -0.621,1.13 -0.289,0.189 -1.01,0.428 -2.163,0.719 -1.554,0.392 -2.631,0.731 -3.23,1.016 -0.601,0.286 -1.056,0.681 -1.366,1.187 -0.309,0.505 -0.464,1.063 -0.464,1.674 0,0.557 0.127,1.071 0.382,1.545 0.255,0.475 0.602,0.868 1.04,1.182 0.329,0.242 0.779,0.448 1.347,0.616 0.568,0.169 1.178,0.253 1.828,0.253 0.98,0 1.84,-0.141 2.581,-0.423 0.74,-0.282 1.287,-0.664 1.64,-1.145 0.352,-0.482 0.596,-1.125 0.729,-1.932 l -2.063,-0.281 c -0.094,0.642 -0.366,1.144 -0.818,1.505 -0.451,0.361 -1.088,0.541 -1.912,0.541 -0.973,0 -1.668,-0.161 -2.084,-0.483 -0.416,-0.321 -0.623,-0.698 -0.623,-1.13 0,-0.275 0.086,-0.523 0.259,-0.742 0.172,-0.228 0.443,-0.417 0.812,-0.566 0.212,-0.079 0.836,-0.259 1.871,-0.541 1.499,-0.401 2.543,-0.728 3.133,-0.982 0.59,-0.255 1.053,-0.625 1.389,-1.11 0.336,-0.487 0.505,-1.089 0.505,-1.81 0,-0.705 -0.206,-1.369 -0.618,-1.992 -0.412,-0.622 -1.006,-1.104 -1.782,-1.445 -0.777,-0.341 -1.655,-0.511 -2.635,-0.511 -1.623,0 -2.86,0.338 -3.711,1.013 -0.852,0.674 -1.395,1.675 -1.629,3.003" /><path
         inkscape:connector-curvature="0"
         id="path1213"
         style="fill:#231f20;fill-opacity:1;fill-rule:nonzero;stroke:none"
         d="m 250.861,-19.739 h 6.969 c -0.094,1.052 -0.361,1.842 -0.799,2.368 -0.674,0.817 -1.548,1.225 -2.621,1.225 -0.972,0 -1.788,-0.326 -2.451,-0.978 -0.662,-0.651 -1.028,-1.523 -1.098,-2.615 m 6.945,-3.407 2.188,-0.281 c -0.345,-1.277 -0.984,-2.268 -1.915,-2.973 -0.932,-0.705 -2.122,-1.058 -3.572,-1.058 -1.824,0 -3.271,0.562 -4.34,1.687 -1.069,1.124 -1.603,2.701 -1.603,4.731 0,2.1 0.54,3.729 1.621,4.889 1.08,1.16 2.482,1.74 4.205,1.74 1.668,0 3.031,-0.568 4.088,-1.704 1.057,-1.136 1.586,-2.735 1.586,-4.794 0,-0.126 -0.004,-0.315 -0.012,-0.565 h -9.316 c 0.078,-1.373 0.467,-2.425 1.164,-3.155 0.698,-0.729 1.569,-1.095 2.612,-1.095 0.777,0 1.439,0.205 1.988,0.616 0.549,0.41 0.984,1.064 1.306,1.962" /><path
         inkscape:connector-curvature="0"
         id="path1215"
         style="fill:#231f20;fill-opacity:1;fill-rule:nonzero;stroke:none"
         d="m 264.053,-20.948 c 0,-1.6 0.337,-2.795 1.01,-3.588 0.674,-0.791 1.469,-1.188 2.385,-1.188 0.924,0 1.709,0.378 2.355,1.135 0.646,0.757 0.969,1.911 0.969,3.464 0,1.71 -0.329,2.964 -0.987,3.765 -0.658,0.798 -1.468,1.199 -2.431,1.199 -0.94,0 -1.725,-0.385 -2.355,-1.152 -0.63,-0.77 -0.946,-1.981 -0.946,-3.635 m 6.688,-6.229 v 1.571 c -0.791,-1.235 -1.954,-1.852 -3.49,-1.852 -0.995,0 -1.91,0.274 -2.744,0.822 -0.834,0.549 -1.48,1.315 -1.938,2.299 -0.458,0.983 -0.688,2.113 -0.688,3.391 0,1.246 0.208,2.376 0.623,3.39 0.415,1.015 1.038,1.793 1.869,2.334 0.83,0.54 1.757,0.811 2.785,0.811 0.752,0 1.422,-0.158 2.009,-0.476 0.586,-0.317 1.065,-0.73 1.433,-1.239 v 6.184 h 2.109 v -17.235 z" /><path
         inkscape:connector-curvature="0"
         id="path1217"
         style="fill:#231f20;fill-opacity:1;fill-rule:nonzero;stroke:none"
         d="m 282.728,-14.692 h 2.109 v -12.484 h -2.109 z m 0,4.75 h 2.109 v -2.438 h -2.109 z" /><path
         inkscape:connector-curvature="0"
         id="path1219"
         style="fill:#231f20;fill-opacity:1;fill-rule:nonzero;stroke:none"
         d="m 288.073,-27.177 v 12.485 h 1.89 v -1.775 c 0.916,1.37 2.24,2.056 3.971,2.056 0.751,0 1.442,-0.135 2.073,-0.405 0.63,-0.271 1.102,-0.625 1.415,-1.065 0.314,-0.438 0.533,-0.96 0.659,-1.563 0.078,-0.392 0.117,-1.077 0.117,-2.057 v -7.676 h -2.11 v 7.598 c 0,0.862 -0.082,1.507 -0.247,1.934 -0.164,0.427 -0.455,0.769 -0.874,1.023 -0.419,0.256 -0.91,0.383 -1.473,0.383 -0.901,0 -1.678,-0.286 -2.331,-0.859 -0.654,-0.572 -0.981,-1.658 -0.981,-3.257 v -6.822 z" /><path
         inkscape:connector-curvature="0"
         id="path1221"
         style="fill:#231f20;fill-opacity:1;fill-rule:nonzero;stroke:none"
         d="m 310.043,-21.007 c 0,-1.607 0.326,-2.796 0.975,-3.564 0.649,-0.769 1.436,-1.153 2.359,-1.153 0.939,0 1.744,0.399 2.413,1.194 0.668,0.797 1.003,2.029 1.003,3.699 0,1.592 -0.327,2.783 -0.98,3.576 -0.653,0.791 -1.435,1.188 -2.342,1.188 -0.899,0 -1.696,-0.422 -2.388,-1.265 -0.693,-0.843 -1.04,-2.067 -1.04,-3.675 m -1.906,-10.951 v 17.266 h 1.922 v -1.622 c 0.454,0.633 0.968,1.11 1.539,1.427 0.571,0.318 1.265,0.476 2.08,0.476 1.066,0 2.005,-0.275 2.82,-0.822 0.814,-0.549 1.429,-1.324 1.844,-2.323 0.415,-0.999 0.623,-2.093 0.623,-3.285 0,-1.277 -0.229,-2.427 -0.687,-3.449 -0.458,-1.023 -1.124,-1.807 -1.997,-2.352 -0.874,-0.544 -1.793,-0.816 -2.756,-0.816 -0.705,0 -1.338,0.148 -1.898,0.445 -0.56,0.297 -1.02,0.672 -1.38,1.125 v -6.07 z" /><path
         inkscape:connector-curvature="0"
         id="path1223"
         style="fill:#231f20;fill-opacity:1;fill-rule:nonzero;stroke:none"
         d="m 329.674,-27.177 v 1.841 c -0.968,-1.415 -2.285,-2.122 -3.949,-2.122 -0.734,0 -1.42,0.141 -2.057,0.423 -0.636,0.282 -1.109,0.637 -1.418,1.064 -0.308,0.427 -0.525,0.95 -0.65,1.57 -0.086,0.415 -0.129,1.073 -0.129,1.974 v 7.735 h 2.11 v -6.92 c 0,-1.105 0.043,-1.848 0.128,-2.233 0.133,-0.555 0.415,-0.992 0.845,-1.309 0.43,-0.318 0.961,-0.476 1.595,-0.476 0.633,0 1.227,0.162 1.782,0.487 0.555,0.326 0.947,0.768 1.179,1.328 0.23,0.56 0.346,1.373 0.346,2.438 v 6.685 h 2.108 v -12.485 z" /><path
         inkscape:connector-curvature="0"
         id="path1225"
         style="fill:#231f20;fill-opacity:1;fill-rule:nonzero;stroke:none"
         d="m 336.804,-20.841 c 0,-1.498 0.204,-2.58 0.612,-3.247 0.667,-1.091 1.569,-1.636 2.708,-1.636 0.926,0 1.727,0.403 2.401,1.206 0.675,0.804 1.013,2.002 1.013,3.595 0,1.632 -0.324,2.836 -0.972,3.612 -0.647,0.777 -1.43,1.165 -2.348,1.165 -0.926,0 -1.727,-0.402 -2.402,-1.206 -0.674,-0.803 -1.012,-1.966 -1.012,-3.489 m 0.031,-6.336 h -1.953 v 17.235 h 2.109 v -6.145 c 0.895,1.117 2.035,1.676 3.424,1.676 0.769,0 1.496,-0.154 2.183,-0.465 0.686,-0.309 1.251,-0.744 1.694,-1.305 0.443,-0.559 0.791,-1.235 1.041,-2.027 0.252,-0.791 0.377,-1.638 0.377,-2.539 0,-2.139 -0.529,-3.792 -1.589,-4.96 -1.059,-1.167 -2.331,-1.751 -3.813,-1.751 -1.476,0 -2.633,0.613 -3.473,1.84 z" /><path
         inkscape:connector-curvature="0"
         id="path1227"
         style="fill:#231f20;fill-opacity:1;fill-rule:nonzero;stroke:none"
         d="m 348.231,-9.942 h 2.109 v -17.234 h -2.109 z" /><path
         inkscape:connector-curvature="0"
         id="path1229"
         style="fill:#231f20;fill-opacity:1;fill-rule:nonzero;stroke:none"
         d="m 353.623,-14.692 h 2.109 v -12.484 h -2.109 z m 0,4.75 h 2.109 v -2.438 h -2.109 z" /><path
         inkscape:connector-curvature="0"
         id="path1231"
         style="fill:#231f20;fill-opacity:1;fill-rule:nonzero;stroke:none"
         d="m 367.109,-22.599 2.079,-0.281 c -0.228,-1.432 -0.81,-2.553 -1.747,-3.363 -0.936,-0.811 -2.087,-1.215 -3.45,-1.215 -1.709,0 -3.082,0.559 -4.121,1.675 -1.039,1.116 -1.557,2.717 -1.557,4.802 0,1.347 0.223,2.527 0.669,3.537 0.447,1.011 1.126,1.769 2.039,2.275 0.914,0.505 1.907,0.758 2.98,0.758 1.355,0 2.465,-0.344 3.326,-1.029 0.861,-0.687 1.414,-1.662 1.657,-2.924 l -2.062,-0.313 c -0.196,0.84 -0.542,1.472 -1.04,1.896 -0.497,0.424 -1.098,0.635 -1.803,0.635 -1.065,0 -1.931,-0.382 -2.596,-1.147 -0.666,-0.765 -0.999,-1.975 -0.999,-3.63 0,-1.679 0.322,-2.898 0.965,-3.659 0.644,-0.761 1.483,-1.142 2.519,-1.142 0.831,0 1.525,0.256 2.082,0.767 0.557,0.511 0.91,1.297 1.059,2.358" /><path
         inkscape:connector-curvature="0"
         id="path1233"
         style="fill:#231f20;fill-opacity:1;fill-rule:nonzero;stroke:none"
         d="m 379.073,-20.948 c 0,-1.6 0.337,-2.795 1.01,-3.588 0.674,-0.791 1.469,-1.188 2.385,-1.188 0.924,0 1.709,0.378 2.355,1.135 0.646,0.757 0.969,1.911 0.969,3.464 0,1.71 -0.329,2.964 -0.986,3.765 -0.659,0.798 -1.469,1.199 -2.432,1.199 -0.939,0 -1.725,-0.385 -2.355,-1.152 -0.63,-0.77 -0.946,-1.981 -0.946,-3.635 m 6.688,-6.229 v 1.571 c -0.791,-1.235 -1.955,-1.852 -3.49,-1.852 -0.995,0 -1.91,0.274 -2.744,0.822 -0.834,0.549 -1.48,1.315 -1.938,2.299 -0.459,0.983 -0.688,2.113 -0.688,3.391 0,1.246 0.207,2.376 0.623,3.39 0.415,1.015 1.038,1.793 1.869,2.334 0.83,0.54 1.758,0.811 2.784,0.811 0.752,0 1.422,-0.158 2.01,-0.476 0.587,-0.317 1.065,-0.73 1.433,-1.239 v 6.184 h 2.109 v -17.235 z" /><path
         inkscape:connector-curvature="0"
         id="path1235"
         style="fill:#231f20;fill-opacity:1;fill-rule:nonzero;stroke:none"
         d="m 392.438,-20.937 c 0,-1.599 0.348,-2.796 1.045,-3.593 0.698,-0.795 1.575,-1.194 2.632,-1.194 1.05,0 1.923,0.401 2.62,1.2 0.698,0.8 1.046,2.019 1.046,3.658 0,1.545 -0.35,2.715 -1.052,3.512 -0.701,0.794 -1.572,1.193 -2.614,1.193 -1.057,0 -1.934,-0.397 -2.632,-1.188 -0.697,-0.793 -1.045,-1.988 -1.045,-3.588 m -2.172,0.002 c 0,2.312 0.641,4.024 1.926,5.137 1.073,0.924 2.38,1.387 3.923,1.387 1.715,0 3.116,-0.563 4.205,-1.687 1.089,-1.125 1.633,-2.678 1.633,-4.661 0,-1.605 -0.241,-2.869 -0.723,-3.79 -0.481,-0.921 -1.182,-1.636 -2.102,-2.145 -0.92,-0.509 -1.924,-0.764 -3.013,-0.764 -1.746,0 -3.158,0.561 -4.234,1.681 -1.077,1.12 -1.615,2.735 -1.615,4.842" /><path
         inkscape:connector-curvature="0"
         id="path1237"
         style="fill:#231f20;fill-opacity:1;fill-rule:nonzero;stroke:none"
         d="m 404.436,-27.177 v 12.485 h 1.89 v -1.747 c 0.392,0.609 0.911,1.1 1.561,1.471 0.649,0.371 1.387,0.557 2.217,0.557 0.922,0 1.679,-0.192 2.27,-0.574 0.59,-0.384 1.007,-0.919 1.249,-1.607 0.988,1.454 2.275,2.181 3.859,2.181 1.24,0 2.193,-0.343 2.86,-1.028 0.667,-0.687 1,-1.743 1,-3.168 v -8.57 h -2.11 v 7.868 c 0,0.847 -0.068,1.456 -0.206,1.83 -0.136,0.372 -0.385,0.671 -0.746,0.899 -0.361,0.227 -0.785,0.341 -1.27,0.341 -0.879,0 -1.609,-0.292 -2.189,-0.876 -0.58,-0.585 -0.87,-1.52 -0.87,-2.806 v -7.256 h -2.109 v 8.115 c 0,0.941 -0.172,1.647 -0.517,2.117 -0.345,0.47 -0.908,0.706 -1.691,0.706 -0.595,0 -1.145,-0.157 -1.651,-0.471 -0.504,-0.313 -0.871,-0.772 -1.097,-1.376 -0.227,-0.603 -0.341,-1.474 -0.341,-2.61 v -6.481 z" /><path
         inkscape:connector-curvature="0"
         id="path1239"
         style="fill:#231f20;fill-opacity:1;fill-rule:nonzero;stroke:none"
         d="m 432.438,-20.911 c -0.767,-0.314 -1.918,-0.58 -3.453,-0.799 -0.868,-0.126 -1.482,-0.268 -1.842,-0.424 -0.361,-0.156 -0.638,-0.386 -0.833,-0.687 -0.197,-0.302 -0.294,-0.637 -0.294,-1.006 0,-0.565 0.213,-1.034 0.638,-1.41 0.426,-0.377 1.049,-0.565 1.869,-0.565 0.813,0 1.536,0.178 2.168,0.535 0.633,0.357 1.098,0.844 1.395,1.463 0.227,0.479 0.34,1.184 0.34,2.117 z m 0.171,-4.719 c -0.786,-0.668 -1.541,-1.141 -2.263,-1.415 -0.723,-0.275 -1.498,-0.413 -2.326,-0.413 -1.368,0 -2.418,0.335 -3.153,1.005 -0.734,0.67 -1.101,1.526 -1.101,2.567 0,0.612 0.138,1.17 0.416,1.675 0.277,0.506 0.64,0.911 1.089,1.217 0.45,0.306 0.956,0.536 1.518,0.693 0.414,0.11 1.039,0.216 1.875,0.318 1.703,0.203 2.957,0.446 3.762,0.728 0.008,0.29 0.012,0.475 0.012,0.553 0,0.863 -0.2,1.471 -0.599,1.823 -0.539,0.479 -1.34,0.718 -2.403,0.718 -0.994,0 -1.726,-0.175 -2.199,-0.524 -0.473,-0.348 -0.823,-0.965 -1.049,-1.851 l -2.063,0.281 c 0.188,0.886 0.497,1.601 0.928,2.146 0.43,0.544 1.052,0.963 1.867,1.256 0.814,0.295 1.759,0.442 2.831,0.442 1.064,0 1.93,-0.125 2.596,-0.376 0.665,-0.251 1.154,-0.567 1.467,-0.946 0.314,-0.38 0.533,-0.861 0.659,-1.44 0.07,-0.361 0.105,-1.012 0.105,-1.951 v -2.822 c 0,-1.967 0.045,-3.211 0.136,-3.733 0.09,-0.52 0.268,-1.019 0.536,-1.498 h -2.203 c -0.228,0.442 -0.373,0.957 -0.438,1.547" /><path
         inkscape:connector-curvature="0"
         id="path1241"
         style="fill:#231f20;fill-opacity:1;fill-rule:nonzero;stroke:none"
         d="m 437.865,-14.692 h 2.109 v -12.484 h -2.109 z m 0,4.75 h 2.109 v -2.438 h -2.109 z" /><path
         inkscape:connector-curvature="0"
         id="path1243"
         style="fill:#231f20;fill-opacity:1;fill-rule:nonzero;stroke:none"
         d="m 443.21,-27.177 v 12.485 h 1.891 v -1.775 c 0.916,1.37 2.239,2.056 3.97,2.056 0.752,0 1.443,-0.135 2.074,-0.405 0.629,-0.271 1.101,-0.625 1.415,-1.065 0.313,-0.438 0.532,-0.96 0.658,-1.563 0.078,-0.392 0.117,-1.077 0.117,-2.057 v -7.676 h -2.109 v 7.598 c 0,0.862 -0.082,1.507 -0.247,1.934 -0.165,0.427 -0.457,0.769 -0.875,1.023 -0.418,0.256 -0.91,0.383 -1.473,0.383 -0.901,0 -1.678,-0.286 -2.331,-0.859 -0.654,-0.572 -0.981,-1.658 -0.981,-3.257 v -6.822 z" /><path
         inkscape:connector-curvature="0"
         id="path1245"
         style="fill:#231f20;fill-opacity:1;fill-rule:nonzero;stroke:none"
         d="m 465.181,-20.841 c 0,-1.498 0.204,-2.58 0.612,-3.247 0.667,-1.091 1.569,-1.636 2.708,-1.636 0.926,0 1.727,0.403 2.401,1.206 0.675,0.804 1.013,2.002 1.013,3.595 0,1.632 -0.324,2.836 -0.972,3.612 -0.647,0.777 -1.43,1.165 -2.348,1.165 -0.926,0 -1.727,-0.402 -2.402,-1.206 -0.674,-0.803 -1.012,-1.966 -1.012,-3.489 m 0.031,-6.336 h -1.953 v 17.235 h 2.109 v -6.145 c 0.895,1.117 2.035,1.676 3.424,1.676 0.769,0 1.496,-0.154 2.183,-0.465 0.686,-0.309 1.251,-0.744 1.694,-1.305 0.443,-0.559 0.791,-1.235 1.041,-2.027 0.252,-0.791 0.377,-1.638 0.377,-2.539 0,-2.139 -0.529,-3.792 -1.589,-4.96 -1.06,-1.167 -2.331,-1.751 -3.813,-1.751 -1.476,0 -2.633,0.613 -3.473,1.84 z" /><path
         inkscape:connector-curvature="0"
         id="path1247"
         style="fill:#231f20;fill-opacity:1;fill-rule:nonzero;stroke:none"
         d="m 476.562,-31.979 -0.235,1.99 c 0.461,-0.125 0.864,-0.188 1.208,-0.188 0.47,0 0.845,0.078 1.126,0.235 0.281,0.157 0.513,0.377 0.693,0.658 0.132,0.212 0.347,0.736 0.645,1.574 0.039,0.118 0.102,0.29 0.188,0.518 l -4.75,12.5 h 2.28 l 2.602,-7.198 c 0.338,-0.912 0.64,-1.872 0.908,-2.879 0.244,0.941 0.535,1.873 0.873,2.797 l 2.665,7.28 h 2.114 l -4.733,-12.704 c -0.51,-1.369 -0.906,-2.31 -1.188,-2.827 -0.376,-0.695 -0.807,-1.205 -1.293,-1.53 -0.486,-0.324 -1.066,-0.486 -1.74,-0.486 -0.407,0 -0.862,0.086 -1.363,0.26" /><path
         inkscape:connector-curvature="0"
         id="path1249"
         style="fill:#231f20;fill-opacity:1;fill-rule:nonzero;stroke:none"
         d="m 495.744,-27.177 v 17.235 h 11.625 v -2.032 h -9.344 v -5.343 h 8.094 v -2.032 h -8.094 v -7.828 z" /><path
         inkscape:connector-curvature="0"
         id="path1251"
         style="fill:#231f20;fill-opacity:1;fill-rule:nonzero;stroke:none"
         d="m 510.034,-27.177 v 12.485 h 1.891 v -1.895 c 0.487,0.886 0.936,1.471 1.349,1.752 0.413,0.283 0.866,0.424 1.362,0.424 0.715,0 1.441,-0.228 2.179,-0.682 l -0.74,-1.957 c -0.515,0.301 -1.032,0.451 -1.549,0.451 -0.461,0 -0.875,-0.138 -1.243,-0.417 -0.367,-0.278 -0.63,-0.664 -0.786,-1.158 -0.236,-0.752 -0.353,-1.575 -0.353,-2.468 v -6.535 z" /><path
         inkscape:connector-curvature="0"
         id="path1253"
         style="fill:#231f20;fill-opacity:1;fill-rule:nonzero;stroke:none"
         d="m 519.655,-19.739 h 6.969 c -0.094,1.052 -0.36,1.842 -0.799,2.368 -0.674,0.817 -1.548,1.225 -2.621,1.225 -0.972,0 -1.788,-0.326 -2.45,-0.978 -0.662,-0.651 -1.028,-1.523 -1.099,-2.615 m 6.946,-3.407 2.187,-0.281 c -0.345,-1.277 -0.983,-2.268 -1.915,-2.973 -0.932,-0.705 -2.122,-1.058 -3.571,-1.058 -1.824,0 -3.272,0.562 -4.34,1.687 -1.069,1.124 -1.604,2.701 -1.604,4.731 0,2.1 0.54,3.729 1.621,4.889 1.081,1.16 2.483,1.74 4.206,1.74 1.668,0 3.031,-0.568 4.087,-1.704 1.057,-1.136 1.586,-2.735 1.586,-4.794 0,-0.126 -0.004,-0.315 -0.011,-0.565 h -9.317 c 0.078,-1.373 0.467,-2.425 1.164,-3.155 0.699,-0.729 1.57,-1.095 2.613,-1.095 0.776,0 1.438,0.205 1.988,0.616 0.549,0.41 0.983,1.064 1.306,1.962" /><path
         inkscape:connector-curvature="0"
         id="path1255"
         style="fill:#231f20;fill-opacity:1;fill-rule:nonzero;stroke:none"
         d="m 533.035,-19.739 h 6.969 c -0.095,1.052 -0.36,1.842 -0.799,2.368 -0.674,0.817 -1.548,1.225 -2.621,1.225 -0.972,0 -1.788,-0.326 -2.45,-0.978 -0.662,-0.651 -1.029,-1.523 -1.099,-2.615 m 6.945,-3.407 2.188,-0.281 c -0.345,-1.277 -0.983,-2.268 -1.915,-2.973 -0.932,-0.705 -2.122,-1.058 -3.57,-1.058 -1.826,0 -3.273,0.562 -4.341,1.687 -1.07,1.124 -1.604,2.701 -1.604,4.731 0,2.1 0.54,3.729 1.621,4.889 1.081,1.16 2.483,1.74 4.205,1.74 1.668,0 3.031,-0.568 4.088,-1.704 1.058,-1.136 1.586,-2.735 1.586,-4.794 0,-0.126 -0.004,-0.315 -0.011,-0.565 h -9.317 c 0.078,-1.373 0.467,-2.425 1.165,-3.155 0.697,-0.729 1.569,-1.095 2.612,-1.095 0.776,0 1.439,0.205 1.988,0.616 0.549,0.41 0.984,1.064 1.305,1.962" /><path
         inkscape:connector-curvature="0"
         id="path1257"
         style="fill:#231f20;fill-opacity:1;fill-rule:nonzero;stroke:none"
         d="m 544.338,-21.646 2.156,0.188 c 0.102,-0.864 0.338,-1.574 0.709,-2.128 0.371,-0.554 0.948,-1.002 1.73,-1.344 0.781,-0.341 1.661,-0.512 2.637,-0.512 0.868,0 1.634,0.129 2.298,0.388 0.664,0.26 1.158,0.616 1.484,1.068 0.324,0.451 0.486,0.944 0.486,1.476 0,0.541 -0.156,1.013 -0.468,1.417 -0.311,0.404 -0.828,0.742 -1.549,1.017 -0.462,0.18 -1.484,0.461 -3.066,0.842 -1.583,0.38 -2.692,0.739 -3.328,1.077 -0.824,0.431 -1.438,0.967 -1.842,1.607 -0.404,0.639 -0.606,1.356 -0.606,2.149 0,0.871 0.247,1.685 0.741,2.442 0.493,0.757 1.215,1.332 2.163,1.725 0.948,0.392 2.003,0.588 3.163,0.588 1.278,0 2.404,-0.205 3.381,-0.616 0.976,-0.411 1.726,-1.015 2.252,-1.813 0.525,-0.798 0.807,-1.701 0.846,-2.711 l -2.187,-0.172 c -0.118,1.087 -0.515,1.908 -1.192,2.464 -0.678,0.556 -1.68,0.833 -3.003,0.833 -1.38,0 -2.384,-0.253 -3.015,-0.759 -0.631,-0.507 -0.946,-1.116 -0.946,-1.83 0,-0.62 0.223,-1.13 0.67,-1.53 0.438,-0.401 1.585,-0.811 3.437,-1.23 1.853,-0.42 3.124,-0.786 3.814,-1.099 1.002,-0.462 1.743,-1.048 2.221,-1.757 0.478,-0.709 0.717,-1.526 0.717,-2.449 0,-0.917 -0.263,-1.781 -0.787,-2.591 -0.525,-0.812 -1.277,-1.442 -2.26,-1.892 -0.982,-0.45 -2.089,-0.676 -3.317,-0.676 -1.558,0 -2.864,0.228 -3.916,0.682 -1.053,0.454 -1.879,1.138 -2.478,2.051 -0.598,0.912 -0.914,1.944 -0.945,3.095" /><path
         inkscape:connector-curvature="0"
         id="path1259"
         style="fill:#231f20;fill-opacity:1;fill-rule:nonzero;stroke:none"
         d="m 566.063,-27.177 -6.666,17.235 h 2.472 l 4.478,-12.516 c 0.36,-1.003 0.662,-1.943 0.905,-2.82 0.267,0.939 0.576,1.88 0.929,2.82 l 4.657,12.516 h 2.331 l -6.748,-17.235 z" /><path
         inkscape:connector-curvature="0"
         id="path1261"
         style="fill:#231f20;fill-opacity:1;fill-rule:nonzero;stroke:none"
         d="m 585.26,-20.427 v 2.031 h 7.297 v -6.388 c -1.12,-0.893 -2.277,-1.565 -3.468,-2.014 -1.191,-0.451 -2.413,-0.676 -3.666,-0.676 -1.694,0 -3.231,0.363 -4.613,1.088 -1.384,0.725 -2.428,1.774 -3.133,3.146 -0.705,1.372 -1.058,2.905 -1.058,4.598 0,1.678 0.351,3.244 1.052,4.698 0.701,1.455 1.71,2.535 3.026,3.24 1.317,0.706 2.833,1.058 4.549,1.058 1.245,0 2.372,-0.202 3.379,-0.606 1.007,-0.404 1.796,-0.968 2.368,-1.689 0.572,-0.722 1.007,-1.664 1.305,-2.827 l -2.058,-0.563 c -0.259,0.878 -0.58,1.568 -0.965,2.071 -0.383,0.503 -0.932,0.906 -1.645,1.208 -0.714,0.302 -1.506,0.453 -2.376,0.453 -1.042,0 -1.944,-0.158 -2.704,-0.476 -0.761,-0.317 -1.375,-0.735 -1.841,-1.252 -0.466,-0.517 -0.829,-1.085 -1.088,-1.704 -0.438,-1.066 -0.658,-2.222 -0.658,-3.468 0,-1.536 0.265,-2.821 0.794,-3.855 0.529,-1.036 1.299,-1.803 2.31,-2.305 1.011,-0.501 2.085,-0.752 3.222,-0.752 0.988,0 1.952,0.189 2.894,0.568 0.94,0.38 1.653,0.784 2.139,1.215 v 3.201 z" /><path
         inkscape:connector-curvature="0"
         id="path1263"
         style="fill:#231f20;fill-opacity:1;fill-rule:nonzero;stroke:none"
         d="m 596.239,-24.771 h 2.406 v -2.406 h -2.406 z" /><path
         inkscape:connector-curvature="0"
         id="path1265"
         style="fill:#231f20;fill-opacity:1;fill-rule:nonzero;stroke:none"
         d="m 603.705,-20.937 c 0,-1.599 0.349,-2.796 1.046,-3.593 0.697,-0.795 1.574,-1.194 2.632,-1.194 1.05,0 1.923,0.401 2.62,1.2 0.697,0.8 1.046,2.019 1.046,3.658 0,1.545 -0.351,2.715 -1.052,3.512 -0.701,0.794 -1.572,1.193 -2.614,1.193 -1.058,0 -1.935,-0.397 -2.632,-1.188 -0.697,-0.793 -1.046,-1.988 -1.046,-3.588 m -2.172,0.002 c 0,2.312 0.642,4.024 1.927,5.137 1.072,0.924 2.38,1.387 3.923,1.387 1.715,0 3.116,-0.563 4.205,-1.687 1.089,-1.125 1.633,-2.678 1.633,-4.661 0,-1.605 -0.242,-2.869 -0.723,-3.79 -0.481,-0.921 -1.183,-1.636 -2.102,-2.145 -0.92,-0.509 -1.924,-0.764 -3.013,-0.764 -1.746,0 -3.158,0.561 -4.235,1.681 -1.077,1.12 -1.615,2.735 -1.615,4.842" /><path
         inkscape:connector-curvature="0"
         id="path1267"
         style="fill:#231f20;fill-opacity:1;fill-rule:nonzero;stroke:none"
         d="m 615.679,-27.177 v 12.485 h 1.89 v -1.895 c 0.488,0.886 0.937,1.471 1.35,1.752 0.412,0.283 0.865,0.424 1.361,0.424 0.715,0 1.442,-0.228 2.18,-0.682 l -0.74,-1.957 c -0.516,0.301 -1.032,0.451 -1.549,0.451 -0.461,0 -0.875,-0.138 -1.243,-0.417 -0.367,-0.278 -0.63,-0.664 -0.786,-1.158 -0.237,-0.752 -0.354,-1.575 -0.354,-2.468 v -6.535 z" /><path
         inkscape:connector-curvature="0"
         id="path1269"
         style="fill:#231f20;fill-opacity:1;fill-rule:nonzero;stroke:none"
         d="m 625.077,-20.712 c 0,-1.639 0.325,-2.834 0.975,-3.586 0.649,-0.753 1.463,-1.129 2.441,-1.129 0.971,0 1.784,0.374 2.442,1.123 0.658,0.748 0.986,1.922 0.986,3.522 0,1.528 -0.338,2.68 -1.016,3.457 -0.676,0.775 -1.492,1.164 -2.447,1.164 -0.939,0 -1.737,-0.383 -2.395,-1.147 -0.657,-0.764 -0.986,-1.899 -0.986,-3.404 m -1.75,-7.496 2.063,-0.313 c 0.086,-0.632 0.325,-1.093 0.715,-1.382 0.525,-0.391 1.241,-0.586 2.148,-0.586 0.977,0 1.732,0.196 2.265,0.588 0.531,0.392 0.891,0.941 1.079,1.647 0.109,0.432 0.16,1.337 0.152,2.718 -0.924,-1.094 -2.074,-1.641 -3.453,-1.641 -1.715,0 -3.042,0.619 -3.982,1.858 -0.939,1.238 -1.409,2.722 -1.409,4.455 0,1.191 0.216,2.29 0.647,3.297 0.43,1.006 1.055,1.785 1.874,2.333 0.818,0.548 1.78,0.823 2.884,0.823 1.472,0 2.687,-0.594 3.642,-1.781 v 1.5 h 1.953 v -10.789 c 0,-1.944 -0.197,-3.321 -0.593,-4.131 -0.396,-0.811 -1.023,-1.451 -1.88,-1.922 -0.859,-0.47 -1.914,-0.705 -3.168,-0.705 -1.489,0 -2.692,0.335 -3.609,1.005 -0.917,0.67 -1.359,1.678 -1.328,3.026" /></g><g
       id="g1927"><path
         inkscape:connector-curvature="0"
         id="path1271"
         style="fill:#63ac4b;fill-opacity:1;fill-rule:nonzero;stroke:none"
         d="m 346.13,487.811 c -1.233,4.548 -2.096,9.213 -2.421,13.944 -0.076,1.182 -0.064,2.369 -0.1,3.554 l -0.034,1.777 0.1,1.775 c 0.076,1.183 0.112,2.369 0.222,3.549 l 0.471,3.523 c 0.124,1.181 0.379,2.337 0.633,3.493 0.259,1.155 0.479,2.319 0.771,3.463 l 0.989,3.403 0.495,1.701 0.602,1.662 1.208,3.321 c 0.395,1.111 0.915,2.167 1.367,3.252 l 1.41,3.232 1.576,3.147 c 8.638,16.687 20.26,31.43 32.606,45.264 12.171,13.608 25.222,26.354 38.716,38.578 -1.714,1.566 -3.939,2.613 -5.916,3.294 -4.357,1.496 -9.548,1.941 -14.414,1.505 -1.571,-8.115 -4.772,-15.909 -8.703,-23.202 -4.555,-8.335 -10.048,-16.09 -15.641,-23.685 -5.577,-7.613 -11.287,-15.09 -16.584,-22.824 -5.272,-7.745 -10.255,-15.672 -14.441,-24.014 -2.842,-5.636 -5.378,-11.423 -7.554,-17.343 -1.023,-6.871 -1.64,-13.741 -1.981,-20.62 -0.343,-7.699 -0.411,-15.401 -0.1,-23.092 0.249,-7.69 0.9,-15.367 1.968,-22.976 0.271,-1.903 0.646,-3.783 0.933,-5.687 0.39,-1.872 0.758,-3.764 1.215,-5.628 0.523,-1.837 0.922,-3.739 1.632,-5.519 0.347,-0.891 0.574,-1.855 1.024,-2.701 l 1.249,-2.63 -1.71,2.382 c -0.594,0.798 -0.952,1.709 -1.445,2.566 -0.994,1.718 -1.599,3.584 -2.376,5.402 -0.664,1.85 -1.215,3.734 -1.804,5.615 -0.48,1.9 -0.958,3.809 -1.381,5.725 -0.374,1.922 -0.772,3.846 -1.075,5.784 l -0.814,5.821 -0.538,5.852 c -0.139,1.953 -0.228,3.907 -0.34,5.862 -0.249,7.826 -0.029,15.67 0.875,23.444 0.507,4.39 1.209,8.772 2.194,13.082 -0.128,-0.416 -0.263,-0.83 -0.388,-1.247 -1.326,-4.467 -2.473,-8.99 -3.422,-13.557 -0.969,-4.571 -1.604,-9.159 -2.415,-13.885 -1.833,-9.306 -4.301,-18.707 -9.331,-26.977 -2.524,-4.074 -5.872,-7.832 -10.192,-10.091 -2.147,-1.118 -4.524,-1.79 -6.917,-1.948 -2.39,-0.127 -4.811,0.238 -6.973,1.186 4.502,-1.475 9.481,-0.698 13.39,1.662 1.962,1.188 3.687,2.733 5.189,4.463 1.5,1.739 2.739,3.69 3.893,5.678 2.233,4.039 3.82,8.421 5.111,12.879 1.278,4.466 2.197,9.042 2.942,13.645 0.683,4.579 1.273,9.34 2.183,14.007 0.887,4.677 1.978,9.32 3.33,13.888 2.704,9.135 6.197,18.055 10.57,26.514 4.344,8.475 9.376,16.569 14.877,24.285 5.475,7.738 11.329,15.157 17.124,22.571 5.758,7.44 11.484,14.891 16.328,22.912 4.267,6.953 7.703,14.45 9.821,22.378 -5.259,-0.51 -10.109,-2.057 -13.056,-4.471 -0.205,-0.753 -0.429,-1.653 -0.676,-2.646 -2.624,-10.545 -8.085,-32.492 -32.815,-60.835 -17.331,-19.862 -23.374,-42.048 -28.706,-61.623 -5.454,-20.027 -10.166,-37.324 -25.389,-46.608 -9.514,-5.804 -16.407,-9.875 -21.374,-12.726 18.202,-0.606 49.712,-3.213 63.666,-13.716 1.412,-1.063 1.968,-1.074 1.979,-1.074 0.523,0.194 1.821,2.04 2.68,3.263 1.955,2.783 4.635,6.594 9.218,9.49 2.807,1.774 5.957,3.207 9.118,4.423 -3.925,5.728 -7.699,11.563 -11.261,17.552 -4.7,8.009 -8.785,16.493 -11.388,25.557 m 69.748,129.203 c 2.982,3.116 5.96,6.239 8.914,9.39 1.371,-1.271 2.404,-2.88 2.695,-4.915 0.573,-3.99 -1.276,-15.522 -30.72,-36.347 -45.259,-32.014 -48.502,-67.665 -46.407,-86.068 2.565,-22.523 15.421,-42.365 32.159,-49.828 -1.313,-0.443 -2.804,-0.904 -4.148,-1.322 -2.809,-0.869 -5.955,-1.848 -9.105,-3.035 -3.561,5.996 -7.093,12.001 -10.267,18.18 -4.313,8.143 -7.972,16.626 -10.264,25.433 -1.052,4.423 -1.749,8.91 -2.001,13.422 -0.052,1.128 -0.018,2.259 -0.034,3.387 l -0.005,1.692 0.127,1.688 c 0.093,1.125 0.146,2.255 0.27,3.374 l 0.51,3.352 c 0.13,1.121 0.407,2.22 0.651,3.323 0.255,1.102 0.47,2.213 0.755,3.307 l 0.969,3.258 0.484,1.63 0.591,1.598 1.182,3.195 c 0.385,1.068 0.898,2.091 1.34,3.139 l 1.384,3.121 1.552,3.052 c 4.114,8.152 9.125,15.871 14.48,23.336 5.301,7.516 11.169,14.637 17.078,21.72 l 4.492,5.268 4.589,5.187 c 3.022,3.496 6.19,6.862 9.293,10.288 3.098,3.433 6.291,6.78 9.436,10.175" /><path
         inkscape:connector-curvature="0"
         id="path1273"
         style="fill:#000000;fill-opacity:1;fill-rule:nonzero;stroke:none"
         d="m 469.229,131.703 c -0.973,-1.06 -1.929,-2.099 -2.87,-3.101 -0.591,-0.631 -0.978,-0.898 -1.18,-1.008 -1.008,1.446 -1.215,8.211 -1.356,12.751 -0.322,10.49 -0.628,20.396 -6.268,21.149 -5.245,0.702 -10.6,-5.84 -17.372,-14.123 -6.259,-7.658 -13.353,-16.337 -21.159,-20.013 -2.351,-1.11 -3.342,-0.519 -3.67,-0.329 -3.191,1.882 -3.811,11.397 -4.31,19.042 -0.562,8.629 -1.047,16.081 -4.466,18.652 -1.119,0.839 -2.483,1.112 -3.945,0.791 -6.844,-1.505 -15.057,-14.643 -22.998,-27.346 -5.457,-8.73 -11.641,-18.624 -14.667,-19.488 -0.036,-0.012 -0.056,-0.021 -0.157,0.042 -2.506,1.543 -4.802,13.526 -6.479,22.275 -2.595,13.54 -4.366,21.936 -7.924,23.848 -0.955,0.514 -1.99,0.563 -2.998,0.143 -4.097,-1.708 -7.016,-10.248 -11.337,-24.109 -2.501,-8.025 -7.179,-22.952 -9.84,-22.199 -3.025,0.864 -9.211,10.758 -14.667,19.488 -7.942,12.703 -16.153,25.841 -22.997,27.346 -1.366,0.299 -2.626,0.017 -3.641,-0.82 -3.324,-2.74 -3.295,-10.677 -2.973,-23.399 0.236,-9.414 0.563,-22.307 -2.726,-24.451 -0.241,-0.157 -0.978,-0.638 -2.863,0.25 -7.93,3.734 -16.305,15.455 -23.694,25.797 -7.684,10.755 -13.323,18.646 -18.392,18.646 -0.211,0 -0.422,-0.015 -0.632,-0.043 -5.643,-0.753 -5.947,-10.66 -6.271,-21.149 -0.141,-4.541 -0.347,-11.305 -1.355,-12.751 -0.203,0.11 -0.589,0.377 -1.18,1.008 -0.982,1.045 -1.979,2.133 -2.997,3.244 -8.901,9.705 -19.969,21.777 -34.047,19.751 -9.978,-1.445 -17.133,-6.828 -21.409,-10.045 -0.854,-0.643 -1.844,-1.389 -2.566,-1.85 0.039,2.962 1.716,11.108 2.985,17.267 2.572,12.488 15.743,24.751 21.38,25.737 0.295,0.051 0.992,0.141 1.166,-0.142 2.726,-4.453 15.448,-12.928 20.722,-10.826 1.274,0.508 3.273,2.004 2.358,6.311 -1.803,8.487 3.6,28.532 9.329,34.594 0.576,0.61 1.676,1.607 2.603,1.473 2.71,-0.418 4.905,-8.256 6.668,-14.554 2.272,-8.119 4.417,-15.787 8.954,-17.434 1.222,-0.448 2.477,-0.181 3.532,0.743 6.755,5.921 8.107,48.351 6.234,59.557 7.598,-3.507 38.173,-32.447 42.305,-36.756 3.104,-3.237 6.028,-4.46 8.682,-3.656 6.15,1.88 8.244,13.963 10.27,25.652 0.716,4.133 1.393,8.039 2.163,10.639 1.432,4.833 3.008,6.584 4.004,6.612 0.005,10e-4 0.012,10e-4 0.022,10e-4 0.68,0 4.056,-0.837 9.439,-15.809 5.476,-15.233 11.714,-23.044 18.541,-23.215 6.686,-0.214 12.799,6.703 18.773,21.013 1.879,4.502 3.265,8.686 4.487,12.378 1.387,4.182 3.285,9.909 4.46,10.002 0.488,0.019 2.606,-0.785 8.917,-13.018 3.822,-7.407 16.754,-28.019 24.62,-28.907 1.548,-0.18 2.9,0.351 3.83,1.454 2.613,2.528 27.601,19.51 32.133,18.753 -0.006,-0.092 -0.022,-0.219 -0.06,-0.39 -0.092,-0.42 -8.846,-42.377 -2.366,-48.055 0.97,-0.849 2.21,-1.062 3.493,-0.594 4.315,1.567 8.096,9.451 12.475,18.581 3.347,6.984 7.934,16.548 10.892,17.003 0.942,0.138 2.028,-0.863 2.605,-1.473 5.727,-6.062 11.131,-26.107 9.328,-34.594 -0.916,-4.307 1.084,-5.803 2.357,-6.311 5.287,-2.1 17.998,6.373 20.725,10.826 0.362,0.594 1.531,0.78 3.043,0.478 6.559,-1.295 16.943,-10.215 19.487,-25.999 0.758,-4.689 2.444,-15.146 2.045,-18.133 -0.808,0.498 -2.109,1.573 -3.202,2.478 -4.351,3.593 -10.928,9.027 -19.84,10.211 -14.119,1.874 -25.235,-10.194 -34.153,-19.896 m -77.291,163.068 c 5.906,2.186 17.07,7.337 30.61,13.958 2.169,0.902 4.294,1.816 6.373,2.739 -0.049,0.11 -0.101,0.219 -0.15,0.326 0.758,0.377 1.523,0.757 2.292,1.139 0.069,-0.137 0.139,-0.27 0.208,-0.407 11.559,5.263 21.699,10.798 30.637,16.115 15.426,8.021 30.717,16.207 43.049,23.098 4.284,-4.189 22.311,-22.926 19.192,-38.791 -1.553,-7.911 -8.281,-14.098 -19.992,-18.388 -40.898,-14.976 -101.966,-4.77 -112.219,0.211 m -134.373,-2.557 c -8.642,-6.065 -77.436,-25.582 -119.958,-10.005 -10.389,3.805 -16.482,9.618 -18.107,17.279 -4.055,19.091 19.75,44.681 24.746,49.798 35.892,-20.056 96.803,-51.069 113.319,-57.072 m 235.336,56.827 c -0.209,0.26 -0.401,0.531 -0.61,0.79 0.225,-0.249 0.436,-0.511 0.659,-0.763 -0.016,-0.009 -0.033,-0.018 -0.049,-0.027 M 312.065,244.707 c 0.081,0.771 0.141,1.545 0.225,2.314 1.517,13.381 3.824,26.663 6.952,39.737 6.281,26.097 15.914,51.564 30.378,74.104 -13.472,-23.144 -21.897,-48.793 -26.989,-74.839 -2.416,-12.451 -4.071,-25.036 -5.022,-37.666 -0.177,0.015 -0.354,0.035 -0.532,0.028 -1.944,-0.054 -3.601,-1.273 -5.012,-3.678 m 115.261,70.238 c -7.416,15.833 -16.434,30.948 -27.353,44.731 11.537,-13.269 21.297,-28.041 29.504,-43.666 -0.726,-0.361 -1.436,-0.71 -2.151,-1.065 m -235.023,12.534 c -0.514,0.265 -1.028,0.531 -1.543,0.797 4.967,12.109 10.854,23.812 17.812,34.868 -6.494,-11.405 -11.857,-23.367 -16.269,-35.665 M 618.066,221.753 c -0.279,2.136 -0.587,4.266 -0.92,6.386 -2.702,16.867 -7.062,33.34 -12.844,49.249 -5.821,15.884 -12.989,31.273 -21.932,45.581 -4.482,7.14 -9.422,14.001 -14.988,20.317 -5.55,6.313 -11.87,12.013 -18.994,16.39 6.807,-4.864 12.626,-10.906 17.658,-17.493 5.042,-6.592 9.421,-13.658 13.326,-20.954 7.787,-14.622 13.747,-30.149 18.337,-45.99 4.553,-15.856 7.652,-32.099 9.114,-48.378 1.097,-12.52 1.205,-25.126 -0.167,-37.382 -6.091,-11.835 -11.836,-15.856 -13.488,-7.499 -5.708,28.858 -19.424,156.292 -130.175,237.679 -15.115,10.027 -30.683,13.158 -40.876,16.405 -4.152,1.192 -9.398,3.057 -14.096,4.342 -2.435,0.667 -2.075,4.216 0.444,4.385 5.488,0.367 10.979,0.427 15.082,0.277 19.406,-0.765 40.409,-5.493 51.018,-7.898 1.201,-0.251 2.437,-0.532 3.698,-0.831 0.09,-0.021 0.19,-0.043 0.278,-0.062 0.808,-0.177 1.33,-0.309 1.637,-0.405 34.285,-8.659 88.277,-35.068 120.358,-81.994 28.469,-41.645 26.573,-95.051 17.53,-132.125 m -39.027,-41.29 c -0.009,-0.093 -0.015,-0.192 -0.023,-0.284 l -0.392,-4.795 c -0.284,-3.236 -0.659,-6.494 -1.123,-9.741 -0.974,-6.495 -2.378,-12.95 -4.354,-19.235 -3.973,-12.554 -10.28,-24.413 -18.773,-34.363 -4.244,-4.972 -8.987,-9.467 -14.057,-13.496 l -3.864,-2.935 -4.022,-2.699 c -1.32,-0.93 -2.724,-1.722 -4.113,-2.534 -1.402,-0.792 -2.748,-1.674 -4.19,-2.386 -11.365,-6.013 -23.485,-10.285 -35.844,-13.23 12.132,3.777 23.849,8.852 34.536,15.479 5.272,3.416 10.409,7.037 14.981,11.286 4.601,4.201 8.816,8.786 12.498,13.747 0.376,0.508 0.722,1.035 1.086,1.55 6.766,9.569 11.505,20.404 14.251,31.686 0.323,1.343 0.61,2.696 0.881,4.051 0.881,8.921 0.784,17.79 0.083,26.524 -0.872,10.67 -2.642,21.158 -4.984,31.464 -2.345,10.306 -5.263,20.439 -8.668,30.379 -4.507,13.163 -9.762,26.029 -15.683,38.56 1.204,1.154 2.004,2.334 2.316,3.524 1.293,4.928 1.69,12.026 1.202,19.909 20.844,-36.628 36.966,-75.617 38.997,-105.275 0.408,-5.949 0.117,-11.696 -0.741,-17.186 m -106.56,-50.35 c -3.836,-8.414 -8.545,-16.888 -14.033,-24.91 l 0.122,0.468 c 1.655,6.563 2.921,13.168 3.887,19.791 -1.617,2.225 -1.86,7.042 -2.097,14.776 -0.201,6.53 -0.538,17.456 -3.262,17.82 -0.561,0.074 -1.191,-0.073 -1.868,-0.375 -0.296,-4.178 -0.671,-8.345 -1.142,-12.496 -1.42,-12.356 -3.689,-24.595 -7.219,-36.301 l -1.344,-4.377 -1.542,-4.277 c -0.959,-2.888 -2.263,-5.579 -3.406,-8.353 -2.562,-5.366 -5.46,-10.494 -8.898,-14.953 l 0.585,-0.439 C 412.528,60.85 388.216,53.378 361.178,63.822 c -3.357,3.55 -6.48,7.452 -9.332,11.634 -3.453,5.289 -6.697,10.811 -9.449,16.652 -4.216,8.701 -7.753,17.818 -10.758,27.152 -1.88,-3.069 -3.921,-4.611 -6.357,-3.914 -1.457,0.417 -3.02,1.655 -4.767,3.611 2.843,-10.811 6.357,-21.499 10.852,-31.91 1.11,-2.638 2.335,-5.234 3.625,-7.81 -8.075,6.401 -16.317,14.47 -24.692,24.443 -10.673,12.711 -18.837,26.649 -24.963,41.313 0.025,-1.222 0.055,-2.438 0.084,-3.611 0.315,-12.466 0.611,-24.24 -4.298,-27.442 -0.858,-0.559 -1.807,-0.839 -2.842,-0.839 -1.047,-0.001 -2.18,0.285 -3.392,0.855 -6.712,3.161 -13.366,11.03 -19.551,19.347 -0.723,-15.179 -2.524,-27.658 -6.293,-35.981 -3.954,-8.731 -8.891,-14.811 -14.597,-18.443 -10.142,6.292 -18.998,14.826 -26.32,24.686 -7.444,9.994 -13.353,21.301 -17.942,33.177 -1.411,3.638 -2.694,7.333 -3.882,11.064 -3.519,-0.734 -6.609,-1.979 -9.303,-3.4 1.03,-3.762 2.155,-7.506 3.41,-11.218 4.304,-12.772 10.075,-25.215 17.804,-36.622 4.914,-7.27 10.675,-14.109 17.247,-20.171 4.101,-2.95 8.436,-5.587 12.967,-7.883 0.316,-0.16 0.621,-0.332 0.937,-0.489 9.855,-4.892 20.585,-8.097 31.59,-9.979 l 8.315,-1.136 c 2.787,-0.288 5.591,-0.361 8.394,-0.553 l 4.214,-0.242 4.215,0.06 8.459,0.121 -8.431,-0.771 -4.228,-0.384 -4.24,-0.084 c -2.831,-0.025 -5.67,-0.167 -8.507,-0.093 l -8.516,0.501 c -11.331,1.052 -22.659,3.48 -33.389,7.813 -10.74,4.297 -20.774,10.511 -29.666,18.036 -0.75,0.626 -1.478,1.274 -2.21,1.918 -18.738,11.772 -39.627,35.418 -59.873,68.413 -17.123,27.906 -22.153,70.706 -15.218,114.578 14.711,-3.742 33.624,-3.326 52.783,-0.763 -3.004,-17.596 -4.56,-35.471 -4.595,-53.398 -0.023,-12.935 0.843,-25.899 2.643,-38.781 2.313,2.995 4.88,5.649 7.418,7.766 -1.642,10.292 -2.687,20.708 -3.127,31.166 -0.757,17.955 0.046,36.018 2.372,53.917 23.846,3.608 47.547,10.276 63.472,16.133 -16.491,-4.761 -40.939,-9.311 -64.592,-9.311 -14.362,0 -28.427,1.677 -40.234,6.003 -11.586,4.242 -18.42,10.911 -20.309,19.818 -4.894,23.075 25.344,52.667 26.633,53.917 l 0.167,0.16 0.761,0.737 1.126,-0.631 c 1.542,-0.866 3.127,-1.746 4.73,-2.634 21.705,37.63 54.321,67.913 97.789,78.701 26.093,6.475 82.347,2.601 32.938,-55.474 -14.862,-17.472 -21.72,-45.274 -24.614,-76.856 1.541,-0.63 2.878,-1.148 3.923,-1.504 1.545,-0.529 2.026,-1.457 2.157,-2.145 0.2,-1.052 -0.288,-2.084 -1.447,-3.067 -1.031,-0.877 -2.877,-1.897 -5.398,-2.995 -0.919,-13.917 -1.179,-28.41 -1.101,-42.962 3.198,-2.073 8.129,-5.906 15.931,-12.78 0.138,74.617 28.584,145.354 39.076,159.994 28.736,40.095 87.625,30.854 124.032,-4.685 11.896,-11.613 21.507,-30.925 29.06,-54.038 4.532,2.362 9.068,4.745 13.548,7.123 -8.553,21.214 -18.916,40.288 -31.329,55.02 -7.169,7.54 -15.68,12.559 -24.216,17.914 -11.232,7.049 -23.213,11.413 -36.068,14.37 -2.003,0.461 -1.708,3.372 0.343,3.463 2.925,0.129 5.86,0.126 8.796,0.003 7.894,-0.334 15.786,-1.527 23.527,-3.49 7.741,-1.971 15.076,-4.449 22.461,-7.859 8.652,-3.998 12.189,-5.851 22.342,-14.368 h -0.001 c 1.31,-1.044 2.667,-2.152 4.09,-3.337 12.175,-10.145 26.653,-26.384 41.149,-45.859 -0.109,-0.04 -0.222,-0.09 -0.333,-0.133 l 0.218,-0.196 c 1.023,-0.932 25.042,-23.071 21.158,-42.874 -1.803,-9.186 -9.274,-16.245 -22.205,-20.981 -16.126,-5.908 -35.517,-8.004 -53.848,-8.004 -23.019,0 -44.368,3.304 -55.53,6.516 12.564,-11.435 29.94,-18.146 48.287,-21.492 0.991,-3.679 1.923,-7.375 2.79,-11.082 2.851,-12.258 5.015,-24.664 6.514,-37.135 0.666,-5.543 1.191,-11.105 1.588,-16.672 2.161,4.375 4.227,8.186 6.347,10.752 -0.337,2.303 -0.688,4.605 -1.071,6.9 -2.105,12.636 -4.881,25.146 -8.342,37.453 -0.844,2.987 -1.726,5.964 -2.647,8.928 9.239,-1.363 18.626,-1.919 27.684,-1.838 4.867,-31.714 7.118,-63.97 7.117,-90.296 0,-0.136 -0.004,-0.274 -0.004,-0.412 4.31,0.765 12.65,6.174 14.657,9.451 1.176,1.921 3.614,2.675 6.672,2.07 1.056,-0.208 2.203,-0.599 3.391,-1.135 -1.915,23.867 -5.739,52.5 -11.96,81.538 15.781,1.818 29.028,5.482 36.418,9.818 4.986,-12.375 9.314,-24.994 12.912,-37.786 2.791,-9.907 5.078,-19.937 6.793,-30.022 1.708,-10.083 2.836,-20.234 3.094,-30.328 0.255,-10.081 -0.361,-20.132 -2.352,-29.707 -1.565,-7.217 -4.019,-14.118 -7.473,-20.206 -17.637,-11.144 -35.671,-8.205 -35.942,17.268 -2.288,1.076 -4.794,1.916 -7.518,2.278 -12.016,1.588 -21.808,-8.66 -30.447,-18.049 M 118.458,119.987 c -9.647,5.745 -18.589,12.689 -26.853,20.369 -8.263,7.691 -15.796,16.191 -22.537,25.349 -0.379,0.518 -0.745,1.044 -1.119,1.565 -46.917,52.127 -27.786,178.431 32.102,237.48 50.69,49.98 135.992,44.208 88.319,13.001 -23.743,-15.539 -41.353,-36.551 -54.302,-60.022 -1.193,0.665 -2.358,1.314 -3.485,1.947 0,0 -55.453,-63.921 -24.756,-87.106 -6.948,-41.179 -5.902,-79.802 -3.272,-102.724 0,0 -0.78,-6.297 -3.736,-11.272 -2.273,3.03 -4.428,6.167 -6.437,9.41 -6.147,9.931 -11.081,20.736 -14.942,31.948 -7.698,22.464 -11.244,46.514 -10.943,70.512 0.341,23.993 4.576,48.115 13.577,70.551 4.503,11.201 10.222,21.954 17.228,31.857 6.996,9.905 15.293,18.943 24.722,26.699 -9.785,-7.3 -18.565,-15.986 -26.113,-25.662 -7.556,-9.677 -13.889,-20.322 -19.021,-31.522 -10.263,-22.435 -15.8,-46.952 -17.323,-71.664 -1.474,-24.729 0.967,-49.825 7.957,-73.914 3.518,-12.029 8.21,-23.806 14.385,-34.933 1.231,-2.214 2.537,-4.394 3.891,-6.551 3.003,-3.888 6.165,-7.66 9.497,-11.285 3.601,-3.914 7.384,-7.677 11.349,-11.245 4.2,-3.78 8.605,-7.339 13.233,-10.61 8.96,-6.417 18.775,-11.696 29.194,-15.596 -10.686,3.073 -21.011,7.615 -30.615,13.418 M 259.11,446.854 c 5.503,-9.86 -11.832,-10.946 -37.802,-1.334 -26.652,9.867 -60.508,24.175 -109.217,-0.41 18.687,26.725 112.033,64.426 147.019,1.744 m 47.433,33.886 c 6.068,-10.59 -13.29,-30.05 -23.693,-18.78 -10.401,11.269 -39.289,33.804 -80.32,32.939 54.227,15.599 97.947,-3.568 104.013,-14.159 m 22.338,20.91 c 5.333,19.575 11.376,41.761 28.706,61.623 24.73,28.343 30.191,50.29 32.815,60.835 0.245,0.993 0.471,1.893 0.676,2.646 2.947,2.414 7.797,3.962 13.055,4.472 -2.117,-7.929 -5.553,-15.426 -9.82,-22.379 -4.844,-8.021 -10.57,-15.472 -16.328,-22.912 -5.795,-7.414 -11.649,-14.832 -17.124,-22.571 -5.501,-7.716 -10.533,-15.81 -14.877,-24.285 -4.373,-8.459 -7.866,-17.379 -10.571,-26.513 -1.351,-4.569 -2.442,-9.212 -3.329,-13.888 -0.908,-4.668 -1.498,-9.429 -2.184,-14.009 -0.745,-4.603 -1.663,-9.178 -2.942,-13.645 -1.29,-4.456 -2.877,-8.838 -5.108,-12.878 -1.156,-1.988 -2.395,-3.938 -3.895,-5.678 -1.502,-1.73 -3.228,-3.275 -5.191,-4.463 -3.907,-2.359 -8.887,-3.136 -13.388,-1.662 2.162,-0.949 4.583,-1.312 6.973,-1.186 2.393,0.158 4.769,0.83 6.918,1.947 4.321,2.26 7.666,6.018 10.191,10.092 5.031,8.27 7.497,17.672 9.331,26.977 0.81,4.725 1.445,9.314 2.415,13.885 0.948,4.567 2.096,9.09 3.421,13.557 0.126,0.417 0.261,0.83 0.391,1.247 -0.988,-4.309 -1.69,-8.692 -2.196,-13.082 -0.903,-7.774 -1.124,-15.619 -0.875,-23.443 0.112,-1.954 0.201,-3.91 0.34,-5.863 l 0.538,-5.852 0.815,-5.821 c 0.301,-1.938 0.7,-3.862 1.075,-5.785 0.423,-1.915 0.9,-3.825 1.381,-5.725 0.59,-1.88 1.138,-3.764 1.802,-5.614 0.778,-1.818 1.383,-3.684 2.377,-5.402 0.492,-0.857 0.851,-1.768 1.445,-2.566 l 1.71,-2.382 -1.249,2.63 c -0.45,0.846 -0.677,1.81 -1.024,2.701 -0.71,1.779 -1.109,3.682 -1.632,5.519 -0.457,1.864 -0.825,3.756 -1.215,5.628 -0.287,1.904 -0.662,3.786 -0.933,5.687 -1.068,7.609 -1.719,15.286 -1.968,22.978 -0.311,7.688 -0.243,15.391 0.1,23.091 0.34,6.878 0.958,13.748 1.981,20.619 2.175,5.92 4.712,11.707 7.554,17.343 4.186,8.342 9.169,16.269 14.441,24.014 5.297,7.733 11.007,15.211 16.584,22.823 5.593,7.596 11.086,15.351 15.641,23.686 3.93,7.293 7.132,15.087 8.703,23.203 4.866,0.435 10.057,-0.011 14.413,-1.506 1.978,-0.681 4.203,-1.726 5.917,-3.294 -13.494,-12.224 -26.545,-24.97 -38.716,-38.578 -12.346,-13.835 -23.968,-28.577 -32.606,-45.264 l -1.576,-3.147 -1.41,-3.232 c -0.452,-1.085 -0.972,-2.142 -1.367,-3.252 l -1.208,-3.321 -0.602,-1.662 -0.495,-1.701 -0.989,-3.401 c -0.292,-1.146 -0.512,-2.31 -0.771,-3.465 -0.254,-1.156 -0.509,-2.311 -0.633,-3.492 l -0.47,-3.524 c -0.111,-1.18 -0.147,-2.366 -0.222,-3.549 l -0.1,-1.775 0.033,-1.777 c 0.036,-1.185 0.024,-2.372 0.099,-3.552 0.326,-4.733 1.189,-9.398 2.422,-13.946 2.603,-9.063 6.688,-17.548 11.388,-25.557 3.562,-5.989 7.336,-11.824 11.261,-17.552 -3.161,-1.216 -6.311,-2.649 -9.118,-4.423 -4.583,-2.895 -7.263,-6.707 -9.218,-9.49 -0.859,-1.222 -2.157,-3.067 -2.681,-3.263 -0.01,0 -0.566,0.011 -1.978,1.074 -13.956,10.503 -45.462,13.11 -63.668,13.715 4.969,2.853 11.861,6.923 21.376,12.727 15.223,9.285 19.936,26.58 25.389,46.608 m 67.886,83.492 c -45.26,-32.014 -48.502,-67.665 -46.407,-86.068 2.564,-22.522 15.421,-42.366 32.159,-49.828 -1.314,-0.443 -2.804,-0.904 -4.148,-1.32 -2.809,-0.871 -5.955,-1.848 -9.105,-3.037 -3.561,5.996 -7.093,12.001 -10.268,18.18 -4.312,8.142 -7.972,16.625 -10.263,25.433 -1.052,4.424 -1.749,8.91 -2.001,13.421 -0.052,1.129 -0.019,2.26 -0.034,3.388 l -0.005,1.692 0.126,1.688 c 0.094,1.125 0.147,2.254 0.271,3.374 l 0.508,3.352 c 0.131,1.121 0.409,2.22 0.653,3.323 0.255,1.103 0.47,2.212 0.755,3.306 l 0.969,3.259 0.484,1.63 0.589,1.598 1.184,3.195 c 0.385,1.068 0.898,2.09 1.34,3.138 l 1.384,3.122 1.55,3.052 c 4.116,8.152 9.126,15.871 14.482,23.336 5.301,7.516 11.169,14.637 17.078,21.72 l 4.492,5.268 4.589,5.187 c 3.022,3.496 6.19,6.861 9.293,10.288 3.098,3.433 6.291,6.78 9.436,10.177 2.982,3.114 5.96,6.237 8.914,9.388 1.371,-1.271 2.403,-2.88 2.695,-4.915 0.573,-3.99 -1.276,-15.521 -30.72,-36.347 m 64.506,-95.896 c -45.624,7.386 -76.213,-11.812 -84.304,-24.137 -0.627,-0.955 -1.451,-1.614 -2.428,-2.014 -9.035,8.734 -15.639,22.252 -17.292,36.763 -0.218,1.913 -0.364,4.038 -0.403,6.332 38.33,14.094 92.502,-3.98 104.427,-16.944 m 66.884,-28.442 c 11.547,-6.306 29.471,-19.07 29.471,-29.477 -4.322,-4.876 -16.142,-8.423 -32.36,-2.082 -26.053,10.184 -66.239,35.064 -125.816,24.913 30.788,30.059 87.903,28.93 128.705,6.646 M 636.799,325.581 c 0,0 -17.311,48.831 -42.765,63.566 -4.334,49.564 -54.608,96.832 -117.308,99.395 -33.016,32.688 -83.413,36.493 -119.08,29.306 2.685,17.451 12.912,40.262 43.125,61.632 23.944,16.936 35.243,31.401 33.581,42.993 -0.901,6.285 -5.616,11.195 -13.275,13.827 -12.041,4.137 -28.277,1.787 -35.46,-5.127 l -0.644,-0.621 -0.264,-0.857 c -0.328,-1.066 -0.657,-2.384 -1.037,-3.912 -2.492,-10.02 -7.679,-30.868 -31.31,-57.95 -18.264,-20.933 -24.564,-43.779 -30.068,-63.98 -3.912,-3.077 -6.313,-6.327 -6.793,-9.534 -27.738,24.272 -136.957,21.96 -133.489,-8.667 C 136.938,489.697 98.22,455.603 84.352,415.151 9.807,357.128 -44.801,136.32 165.832,82.578 266.381,16.701 313.622,53.26 313.622,53.26 c 52.876,-32.939 120.342,-19.792 145.769,8.813 43.422,-9.536 107.773,17.624 116.44,65.299 42.474,11.557 90.437,95.927 60.968,198.209" /><path
         inkscape:connector-curvature="0"
         id="path1275"
         style="fill:#f29a1f;fill-opacity:1;fill-rule:nonzero;stroke:none"
         d="m 438.931,419.053 c -7.385,3.411 -14.72,5.887 -22.461,7.859 -7.741,1.962 -15.633,3.156 -23.527,3.49 -2.935,0.123 -5.871,0.126 -8.796,-0.004 -2.051,-0.09 -2.346,-3.001 -0.343,-3.462 12.855,-2.957 24.836,-7.321 36.068,-14.37 8.536,-5.355 17.047,-10.374 24.216,-17.914 12.413,-14.732 22.776,-33.805 31.329,-55.02 5.983,3.177 11.863,6.338 17.484,9.409 -0.209,0.26 -0.401,0.531 -0.61,0.79 0.225,-0.249 0.436,-0.511 0.659,-0.763 3.955,2.162 7.784,4.278 11.43,6.321 l 1.092,0.612 0.707,-0.645 c 0.11,0.043 0.223,0.093 0.332,0.133 -14.496,19.475 -28.974,35.714 -41.149,45.859 -1.423,1.185 -2.78,2.293 -4.091,3.337 h 0.002 c -10.153,8.517 -13.69,10.37 -22.342,14.368 M 281.878,56.114 l -4.211,0.241 c -2.804,0.192 -5.609,0.265 -8.396,0.553 l -8.315,1.135 c -11.004,1.883 -21.733,5.088 -31.59,9.98 -0.315,0.157 -0.622,0.329 -0.937,0.489 -4.531,2.296 -8.866,4.933 -12.965,7.884 -6.574,6.061 -12.335,12.9 -17.251,20.171 -7.729,11.406 -13.498,23.849 -17.802,36.621 -1.255,3.712 -2.38,7.456 -3.411,11.219 -3.477,-1.835 -6.3,-3.952 -8.527,-5.626 -3.091,-2.326 -4.955,-3.733 -6.742,-2.601 -2.234,1.415 -1.755,4.807 1.68,21.489 1.13,5.487 4.093,10.946 7.695,15.61 -1.8,12.882 -2.666,25.846 -2.643,38.781 0.035,17.927 1.592,35.802 4.596,53.398 -19.159,-2.563 -38.072,-2.979 -52.784,0.763 -6.935,-43.872 -1.904,-86.672 15.219,-114.578 20.245,-32.995 41.134,-56.641 59.872,-68.413 0.732,-0.644 1.46,-1.292 2.21,-1.918 8.892,-7.525 18.927,-13.739 29.666,-18.036 10.73,-4.333 22.058,-6.761 33.389,-7.813 l 8.516,-0.501 c 2.835,-0.074 5.676,0.068 8.506,0.093 l 4.243,0.084 4.226,0.385 8.431,0.77 -8.457,-0.121 z M 141.562,425.829 c 2.453,0.14 4.782,0.498 7.08,0.901 2.312,0.346 4.587,0.712 6.821,1.173 2.26,0.316 4.473,0.788 6.683,1.138 2.213,0.307 4.4,0.756 6.584,0.953 4.357,0.538 8.692,0.933 12.915,0.598 2.115,-0.156 4.184,-0.497 6.227,-1.113 1.969,-0.711 4.037,-1.553 5.264,-3.65 0.239,1.262 -0.339,2.52 -0.961,3.671 -0.36,0.523 -0.747,1.073 -1.181,1.566 -0.453,0.457 -0.931,0.908 -1.419,1.364 -2.039,1.621 -4.421,2.752 -6.86,3.508 -4.915,1.504 -10.002,1.544 -14.839,0.935 -1.206,-0.191 -2.439,-0.282 -3.612,-0.581 -1.179,-0.282 -2.362,-0.538 -3.533,-0.843 -1.182,-0.271 -2.302,-0.706 -3.439,-1.093 -1.136,-0.392 -2.263,-0.804 -3.375,-1.244 -2.179,-0.998 -4.343,-2.012 -6.419,-3.191 -2.042,-1.262 -4.051,-2.568 -5.936,-4.092 M 119.879,122.165 c 8.96,-6.417 18.775,-11.696 29.194,-15.596 -10.686,3.073 -21.012,7.615 -30.615,13.418 -9.647,5.745 -18.59,12.689 -26.853,20.369 -8.262,7.691 -15.796,16.191 -22.537,25.349 -0.38,0.518 -0.747,1.044 -1.119,1.565 -46.916,52.127 -27.786,178.432 32.102,237.48 50.691,49.981 135.992,44.208 88.317,13.002 -23.741,-15.54 -41.35,-36.552 -54.3,-60.023 -1.193,0.665 -2.358,1.314 -3.486,1.947 0,0 -55.451,-63.921 -24.755,-87.107 -6.948,-41.178 -5.902,-79.801 -3.272,-102.723 0,0 -0.779,-6.297 -3.737,-11.272 -2.274,3.03 -4.427,6.168 -6.435,9.41 -6.147,9.931 -11.082,20.736 -14.945,31.948 -7.697,22.464 -11.242,46.514 -10.941,70.512 0.341,23.993 4.574,48.115 13.577,70.552 4.504,11.2 10.223,21.953 17.228,31.856 6.997,9.905 15.293,18.943 24.722,26.696 -9.784,-7.297 -18.565,-15.983 -26.113,-25.659 -7.556,-9.677 -13.89,-20.321 -19.021,-31.522 -10.262,-22.435 -15.8,-46.951 -17.323,-71.664 -1.474,-24.731 0.967,-49.827 7.957,-73.914 3.518,-12.029 8.209,-23.806 14.384,-34.934 1.23,-2.213 2.539,-4.392 3.893,-6.55 3.002,-3.887 6.164,-7.66 9.496,-11.285 3.601,-3.914 7.384,-7.677 11.35,-11.245 4.2,-3.779 8.603,-7.339 13.232,-10.61 m 433.619,262.443 c -1.735,4.205 -4.64,7.882 -7.697,11.262 -3.113,3.357 -6.558,6.372 -10.139,9.179 -7.185,5.599 -14.982,10.299 -23.064,14.384 -8.114,4.025 -16.531,7.47 -25.299,9.916 -2.179,0.598 -4.379,1.142 -6.601,1.598 -2.25,0.462 -4.524,0.834 -6.823,1.081 -2.294,0.183 -4.588,0.367 -6.906,0.186 -2.281,-0.155 -4.68,-0.489 -6.653,-1.673 2.22,0.445 4.412,0.148 6.552,-0.235 2.14,-0.385 4.257,-0.951 6.341,-1.599 4.176,-1.3 8.279,-2.846 12.339,-4.503 3.415,-1.386 6.794,-2.868 10.152,-4.393 4.636,-2.106 9.231,-4.308 13.788,-6.573 7.83,-3.973 15.588,-8.103 23.07,-12.672 3.745,-2.277 7.425,-4.66 10.973,-7.236 3.569,-2.569 6.935,-5.367 9.967,-8.722 m 64.568,-162.855 c -0.279,2.136 -0.587,4.266 -0.92,6.386 -2.702,16.869 -7.062,33.34 -12.844,49.249 -5.821,15.886 -12.989,31.273 -21.932,45.581 -4.482,7.14 -9.422,14 -14.988,20.317 -5.55,6.311 -11.87,12.013 -18.995,16.39 6.807,-4.864 12.627,-10.906 17.658,-17.493 5.043,-6.592 9.42,-13.658 13.325,-20.954 7.789,-14.622 13.749,-30.147 18.339,-45.989 4.553,-15.857 7.652,-32.1 9.112,-48.379 1.099,-12.52 1.207,-25.126 -0.165,-37.382 -6.091,-11.835 -11.836,-15.855 -13.488,-7.499 -5.708,28.858 -19.424,156.292 -130.175,237.679 -15.115,10.028 -30.683,13.159 -40.876,16.405 -4.152,1.192 -9.398,3.056 -14.096,4.342 -2.435,0.667 -2.075,4.216 0.444,4.385 5.488,0.367 10.979,0.427 15.081,0.277 19.407,-0.765 40.41,-5.494 51.019,-7.9 1.201,-0.249 2.437,-0.53 3.698,-0.83 0.091,-0.02 0.19,-0.041 0.278,-0.061 0.808,-0.177 1.33,-0.309 1.637,-0.405 34.283,-8.659 88.276,-35.068 120.358,-81.994 28.469,-41.645 26.573,-95.051 17.53,-132.125 M 528.243,135.52 c -1.985,-1.142 -4.071,0.584 -7.23,3.194 -2.655,2.193 -6.205,5.116 -10.569,7.17 0.271,-25.473 18.306,-28.412 35.942,-17.268 3.454,6.088 5.907,12.989 7.473,20.206 1.991,9.575 2.607,19.626 2.354,29.707 -0.26,10.094 -1.388,20.246 -3.096,30.328 -1.715,10.085 -4.002,20.115 -6.793,30.022 -3.598,12.792 -7.926,25.411 -12.912,37.786 -7.391,-4.336 -20.637,-8.001 -36.418,-9.818 6.221,-29.038 10.045,-57.671 11.96,-81.538 7.306,-3.299 16.431,-12.727 18.849,-27.714 2.865,-17.758 2.654,-20.808 0.44,-22.075 m 12.54,167.404 c 0.488,-7.882 0.091,-14.981 -1.202,-19.909 -0.312,-1.19 -1.112,-2.369 -2.316,-3.524 5.921,-12.531 11.175,-25.397 15.684,-38.56 3.404,-9.941 6.322,-20.073 8.669,-30.379 2.34,-10.306 4.11,-20.794 4.982,-31.464 0.701,-8.734 0.798,-17.603 -0.083,-26.524 -0.271,-1.355 -0.558,-2.708 -0.881,-4.051 -2.747,-11.282 -7.485,-22.117 -14.251,-31.686 -0.364,-0.514 -0.71,-1.042 -1.086,-1.55 -3.682,-4.961 -7.897,-9.546 -12.498,-13.747 -4.572,-4.249 -9.709,-7.87 -14.98,-11.286 -10.688,-6.626 -22.405,-11.702 -34.537,-15.479 12.359,2.945 24.479,7.217 35.844,13.23 1.442,0.711 2.788,1.594 4.19,2.386 1.389,0.812 2.793,1.604 4.113,2.534 l 4.022,2.699 3.864,2.935 c 5.07,4.029 9.813,8.524 14.057,13.496 8.493,9.95 14.8,21.809 18.773,34.363 1.976,6.285 3.38,12.74 4.354,19.235 0.464,3.247 0.839,6.505 1.123,9.741 l 0.392,4.795 c 0.008,0.092 0.014,0.19 0.023,0.284 0.858,5.49 1.149,11.237 0.741,17.187 -2.031,29.657 -18.153,68.646 -38.997,105.274 M 442.867,145.176 c -6.491,-7.942 -13.849,-16.945 -22.365,-20.955 -2.657,-1.252 -4.982,-1.315 -6.909,-0.177 -4.77,2.812 -5.372,12.037 -6.008,21.802 -0.421,6.457 -0.944,14.492 -3.09,16.104 -0.216,0.162 -0.52,0.311 -1.117,0.177 -5.421,-1.192 -13.949,-14.835 -20.803,-25.798 -7.656,-12.247 -12.555,-19.811 -16.654,-20.983 -0.998,-0.287 -2.012,-0.141 -2.926,0.424 -3.551,2.183 -5.417,10.742 -8.068,24.575 -1.489,7.768 -3.98,20.769 -6.19,21.46 -2.891,-1.225 -6.627,-13.208 -9.353,-21.957 -2.691,-8.628 -5.048,-16.183 -7.745,-20.589 3.003,-9.333 6.542,-18.45 10.757,-27.151 2.753,-5.841 5.997,-11.363 9.45,-16.652 2.852,-4.182 5.975,-8.084 9.332,-11.635 27.038,-10.443 51.35,-2.971 71.084,12.666 l -0.585,0.44 c 3.439,4.458 6.336,9.586 8.899,14.952 1.142,2.774 2.446,5.465 3.405,8.353 l 1.542,4.277 1.344,4.377 c 3.53,11.708 5.8,23.945 7.219,36.301 0.471,4.151 0.846,8.318 1.14,12.496 -3.325,-1.487 -7.911,-7.064 -12.359,-12.507 M 320.515,118.957 c -3.168,3.545 -6.955,9.479 -11.89,17.372 -6.852,10.963 -15.379,24.606 -20.802,25.798 -0.443,0.1 -0.591,-0.025 -0.689,-0.107 -1.883,-1.553 -1.95,-9.496 -1.797,-17.026 6.126,-14.665 14.29,-28.603 24.963,-41.314 8.373,-9.973 16.617,-18.042 24.693,-24.443 -1.291,2.576 -2.516,5.172 -3.624,7.809 -4.497,10.412 -8.011,21.1 -10.854,31.911 m 148.373,7.272 c -0.659,-0.701 -2.65,-2.833 -4.9,-1.981 -0.619,0.234 -1.119,0.644 -1.533,1.215 -0.966,-6.624 -2.232,-13.229 -3.887,-19.792 l -0.12,-0.468 c 5.486,8.022 10.195,16.496 14.031,24.91 -0.233,-0.253 -0.466,-0.505 -0.697,-0.757 -0.982,-1.069 -1.948,-2.117 -2.894,-3.127 m -37.617,186.297 c 11.559,5.263 21.699,10.798 30.637,16.115 -10.518,-5.47 -21.092,-10.856 -30.845,-15.708 0.069,-0.137 0.139,-0.27 0.208,-0.407 m -2.35,-1.056 c -0.049,0.107 -0.101,0.217 -0.15,0.324 -2.123,-1.051 -4.2,-2.074 -6.223,-3.065 2.169,0.902 4.294,1.816 6.373,2.741 m -108.219,71.899 c 6.499,7.4 14.267,13.098 22.891,16.505 8.591,3.479 17.917,4.621 27.095,3.941 9.201,-0.692 18.276,-3.249 26.867,-7.133 8.653,-3.828 16.66,-9.174 24.562,-15.046 -5.839,7.922 -13.334,14.794 -22.048,19.884 -8.69,5.089 -18.604,8.453 -28.866,9.209 -10.223,0.768 -20.817,-1.078 -29.9,-5.927 -9.073,-4.796 -16.54,-12.43 -20.601,-21.433 M 269.703,231.238 c 0.135,74.617 28.579,145.354 39.074,159.994 28.737,40.095 87.625,30.854 124.032,-4.685 11.896,-11.613 21.506,-30.925 29.06,-54.038 -11.146,-5.806 -22.262,-11.464 -32.392,-16.499 -8.207,15.625 -17.967,30.397 -29.504,43.666 10.919,-13.783 19.935,-28.898 27.353,-44.731 -17.522,-8.668 -31.819,-15.312 -37.713,-17.322 -1.304,-0.444 -2.059,-1.167 -2.245,-2.146 -0.098,-0.525 -0.09,-1.552 1.085,-2.549 1.105,-0.937 3.725,-2.02 7.518,-3.111 12.564,-11.435 29.94,-18.146 48.287,-21.492 0.991,-3.679 1.923,-7.375 2.79,-11.082 2.851,-12.258 5.015,-24.664 6.514,-37.135 0.666,-5.544 1.191,-11.105 1.588,-16.672 -0.763,-1.551 -1.54,-3.165 -2.335,-4.823 -3.362,-7.01 -7.545,-15.738 -10.545,-16.886 -3.057,2.127 -0.095,28.576 3.457,44.709 0.611,2.777 -0.894,3.855 -1.571,4.188 -6.6,3.263 -36.255,-19.237 -36.478,-19.501 -0.2,-0.237 -0.41,-0.363 -0.853,-0.314 -4.91,0.554 -16.506,16.544 -21.928,27.052 -5.801,11.246 -9.007,15.134 -12.268,14.885 -3.472,-0.272 -4.981,-4.826 -7.48,-12.369 -1.203,-3.633 -2.567,-7.752 -4.397,-12.131 -6.496,-15.56 -11.912,-18.887 -15.352,-18.887 -0.044,0 -0.089,0.001 -0.132,0.001 -5.105,0.129 -10.561,7.561 -15.366,20.925 -4.295,11.948 -8.235,17.742 -12.292,18.072 0.95,12.63 2.605,25.215 5.021,37.666 5.092,26.046 13.517,51.695 26.989,74.839 -14.464,-22.54 -24.097,-48.007 -30.378,-74.104 -3.128,-13.074 -5.435,-26.356 -6.95,-39.737 -0.086,-0.769 -0.146,-1.543 -0.227,-2.314 -0.819,-1.4 -1.557,-3.196 -2.214,-5.415 -0.828,-2.793 -1.52,-6.796 -2.255,-11.032 -1.498,-8.63 -3.755,-21.671 -7.869,-22.928 -1.618,-0.49 -3.705,1.217 -5.165,2.74 -0.698,0.728 -10.967,10.718 -21.458,20.14 -1.197,1.073 -2.323,2.073 -3.401,3.026 m 179.734,36.231 c 0.921,-2.964 1.803,-5.941 2.647,-8.928 3.461,-12.307 6.237,-24.817 8.343,-37.451 0.382,-2.298 0.733,-4.6 1.071,-6.903 1.554,1.877 3.137,3.098 4.81,3.356 1.887,0.294 3.797,-0.556 5.652,-2.519 6.529,-6.913 12.248,-28.05 10.198,-37.695 -0.135,-0.63 -0.377,-2.119 0.249,-2.369 0.45,-0.18 1.086,-0.169 1.827,-0.037 0,0.138 0.004,0.276 0.004,0.413 0.003,26.326 -2.25,58.581 -7.117,90.295 -9.058,-0.081 -18.445,0.475 -27.684,1.838 m -4.926,197.092 c 9.88,-0.082 19.558,-0.228 29.155,-1.129 9.591,-0.824 19.065,-2.276 28.38,-4.36 9.3,-2.131 18.453,-4.901 27.199,-8.651 4.364,-1.884 8.65,-3.986 12.625,-6.584 1.996,-1.275 3.936,-2.67 5.684,-4.277 1.742,-1.608 3.352,-3.4 4.435,-5.63 -0.338,2.47 -1.555,4.804 -2.983,6.89 -1.434,2.117 -3.22,3.927 -5.035,5.697 -3.744,3.41 -7.901,6.342 -12.297,8.786 -8.796,4.91 -18.343,8.31 -28.095,10.531 -9.767,2.179 -19.773,3.212 -29.726,3.029 -9.949,-0.19 -19.86,-1.521 -29.342,-4.302 m -45.059,-10.403 c 30.788,30.059 87.903,28.931 128.705,6.647 11.547,-6.307 29.471,-19.071 29.471,-29.478 -4.322,-4.875 -16.144,-8.423 -32.36,-2.082 -26.053,10.184 -66.239,35.064 -125.816,24.913 m -39.022,41.976 c 3.26,1.606 6.541,2.696 9.939,3.387 3.374,0.728 6.779,1.201 10.205,1.49 6.855,0.578 13.755,0.557 20.651,0.181 6.896,-0.389 13.789,-1.114 20.686,-2.145 6.907,-1.035 13.774,-2.405 20.866,-3.913 -5.954,4.165 -12.706,7.095 -19.66,9.231 -6.977,2.091 -14.217,3.35 -21.52,3.749 -7.298,0.392 -14.696,-0.076 -21.894,-1.74 -3.59,-0.853 -7.133,-2.022 -10.467,-3.662 -3.304,-1.65 -6.487,-3.754 -8.806,-6.578 m -3.181,3.724 c -0.218,1.913 -0.364,4.038 -0.403,6.332 38.33,14.094 92.502,-3.981 104.427,-16.944 -45.624,7.386 -76.213,-11.813 -84.304,-24.137 -0.627,-0.955 -1.451,-1.614 -2.428,-2.015 -9.035,8.736 -15.639,22.253 -17.292,36.764 m -133.125,-4.094 c 3.526,0.279 6.92,0.223 10.316,0.003 3.389,-0.216 6.75,-0.574 10.097,-1.025 6.692,-0.886 13.318,-2.139 19.863,-3.649 6.539,-1.515 13,-3.34 19.199,-5.737 3.095,-1.204 6.115,-2.575 8.947,-4.273 2.864,-1.675 5.415,-3.781 7.347,-6.755 -0.251,1.742 -0.898,3.494 -1.839,5.069 -0.935,1.578 -2.117,3.007 -3.388,4.325 -2.578,2.615 -5.584,4.722 -8.702,6.528 -6.283,3.563 -13.075,5.982 -19.99,7.594 -6.922,1.609 -14.014,2.448 -21.128,2.342 -3.555,-0.065 -7.117,-0.357 -10.629,-1.019 -3.492,-0.68 -6.995,-1.672 -10.093,-3.403 m -21.596,-0.865 c 54.226,15.599 97.947,-3.567 104.015,-14.159 6.069,-10.59 -13.29,-30.049 -23.693,-18.78 -10.401,11.269 -39.289,33.804 -80.322,32.939 m -48.399,-28.606 c 8.173,1.857 16.133,3.334 24.146,4.068 7.996,0.751 15.999,0.829 23.933,0.106 7.932,-0.706 15.803,-2.093 23.466,-4.332 1.911,-0.573 3.785,-1.247 5.702,-1.854 l 2.784,-1.116 c 0.938,-0.365 1.891,-0.71 2.775,-1.171 l 2.745,-1.282 c 0.936,-0.411 1.738,-1.004 2.652,-1.471 1.843,-0.926 3.406,-2.202 5.196,-3.349 -1.222,1.664 -2.459,3.444 -4.028,4.861 -0.757,0.738 -1.492,1.539 -2.333,2.179 l -2.513,1.979 c -0.828,0.69 -1.745,1.223 -2.641,1.798 l -2.729,1.689 c -1.886,0.976 -3.786,1.97 -5.737,2.838 -7.84,3.388 -16.25,5.378 -24.736,6.138 -8.491,0.784 -17.096,0.201 -25.378,-1.626 -8.271,-1.85 -16.26,-4.932 -23.304,-9.455 m -42.04,-21.183 c 18.689,26.725 112.035,64.426 147.021,1.743 5.503,-9.859 -11.832,-10.945 -37.803,-1.333 -26.652,9.867 -60.507,24.175 -109.218,-0.41 m 96.039,-341.545 c 7.322,-9.86 16.178,-18.393 26.317,-24.686 5.709,3.632 10.646,9.712 14.601,18.443 3.768,8.323 5.566,20.802 6.291,35.981 -1.875,2.522 -3.71,5.086 -5.485,7.573 -5.897,8.251 -12.557,17.571 -15.748,17.182 -2.724,-0.364 -3.06,-11.291 -3.26,-17.821 -0.302,-9.718 -0.597,-14.842 -3.633,-15.989 -2.242,-0.854 -4.241,1.28 -4.897,1.981 -0.99,1.055 -1.998,2.154 -3.024,3.273 -8.785,9.578 -18.742,20.429 -30.994,18.663 -0.681,-0.1 -1.342,-0.223 -1.992,-0.359 1.188,-3.731 2.471,-7.426 3.882,-11.064 4.589,-11.876 10.498,-23.183 17.942,-33.177 m 32.794,312.874 c 6.503,1.3 13.026,2.228 19.535,2.573 6.493,0.332 13.016,0.2 19.209,-1.153 3.09,-0.68 6.1,-1.675 8.766,-3.314 1.372,-0.781 2.571,-1.801 3.709,-2.954 l 0.814,-0.913 c 0.261,-0.319 0.469,-0.67 0.714,-1.009 0.55,-0.66 0.841,-1.444 1.317,-2.197 -0.088,3.48 -1.759,7.086 -4.397,9.711 -2.598,2.707 -5.916,4.562 -9.308,5.884 -6.858,2.613 -14.144,3.238 -21.205,2.867 -7.085,-0.385 -14.039,-1.883 -20.633,-4.266 -6.578,-2.399 -12.843,-5.752 -18.136,-10.272 6.659,1.989 13.091,3.768 19.615,5.043 m 14.714,-119.748 c -11.738,4.812 -37.038,17.181 -63.333,30.788 4.41,12.298 9.776,24.26 16.269,35.665 -6.959,-11.056 -12.845,-22.759 -17.812,-34.868 -14.198,7.362 -28.597,15.038 -41.237,22.044 21.705,37.63 54.321,67.914 97.789,78.701 26.093,6.476 82.347,2.601 32.938,-55.477 -14.862,-17.469 -21.72,-45.272 -24.614,-76.853 m -9.44,-54.117 c 2.524,-11.46 -0.561,-55.461 -5.023,-57.188 -2.862,1.04 -5.047,8.842 -6.801,15.11 -2.447,8.741 -4.559,16.289 -9.478,17.047 -1.892,0.293 -3.799,-0.556 -5.651,-2.519 -6.532,-6.913 -12.251,-28.05 -10.2,-37.695 0.134,-0.63 0.377,-2.119 -0.251,-2.369 -3.047,-1.209 -14.131,5.572 -16.482,9.414 -0.532,0.866 -1.853,2.252 -4.72,1.747 -2.483,-0.434 -5.74,-2.299 -9.067,-5.076 -1.64,10.292 -2.685,20.708 -3.127,31.166 -0.756,17.955 0.046,36.018 2.373,53.917 23.845,3.608 47.546,10.276 63.472,16.133 5.558,1.604 10.218,3.232 13.63,4.719 -0.919,-13.917 -1.179,-28.41 -1.1,-42.962 -4.509,2.924 -5.577,2.363 -6.408,1.921 -0.511,-0.274 -1.654,-1.151 -1.167,-3.365" /><path
         inkscape:connector-curvature="0"
         id="path1277"
         style="fill:#ffffff;fill-opacity:1;fill-rule:nonzero;stroke:none"
         d="m 553.498,384.608 c -3.032,3.354 -6.398,6.155 -9.967,8.722 -3.548,2.576 -7.228,4.959 -10.973,7.235 -7.482,4.569 -15.24,8.7 -23.07,12.672 -4.557,2.266 -9.151,4.468 -13.788,6.574 -3.358,1.525 -6.737,3.007 -10.152,4.394 -4.06,1.655 -8.163,3.202 -12.339,4.501 -2.084,0.65 -4.201,1.217 -6.341,1.601 -2.14,0.382 -4.332,0.678 -6.552,0.235 1.975,1.184 4.372,1.517 6.653,1.671 2.318,0.182 4.612,-0.002 6.906,-0.186 2.299,-0.246 4.573,-0.619 6.823,-1.08 2.222,-0.456 4.422,-1.001 6.601,-1.599 8.768,-2.445 17.185,-5.89 25.299,-9.914 8.082,-4.087 15.879,-8.786 23.064,-14.385 3.581,-2.807 7.026,-5.822 10.139,-9.181 3.057,-3.378 5.962,-7.055 7.697,-11.26 M 370.369,499.521 c -3.398,-0.691 -6.679,-1.782 -9.939,-3.387 2.319,2.825 5.502,4.929 8.806,6.578 3.334,1.64 6.877,2.809 10.467,3.662 7.198,1.664 14.596,2.133 21.894,1.739 7.303,-0.399 14.543,-1.657 21.52,-3.748 6.954,-2.137 13.706,-5.065 19.66,-9.232 -7.092,1.508 -13.959,2.879 -20.866,3.913 -6.897,1.032 -13.79,1.756 -20.686,2.145 -6.896,0.377 -13.796,0.397 -20.651,-0.181 -3.426,-0.288 -6.831,-0.761 -10.205,-1.489 m -146.244,-3.756 c 3.097,1.729 6.6,2.721 10.092,3.404 3.512,0.661 7.074,0.951 10.629,1.017 7.114,0.108 14.206,-0.732 21.128,-2.343 6.915,-1.61 13.707,-4.03 19.99,-7.594 3.118,-1.805 6.124,-3.913 8.702,-6.526 1.271,-1.319 2.453,-2.747 3.388,-4.326 0.941,-1.575 1.588,-3.326 1.839,-5.07 -1.932,2.974 -4.483,5.081 -7.347,6.757 -2.832,1.696 -5.852,3.069 -8.947,4.272 -6.199,2.397 -12.66,4.222 -19.199,5.737 -6.545,1.509 -13.171,2.762 -19.863,3.649 -3.347,0.45 -6.708,0.808 -10.097,1.026 -3.396,0.22 -6.79,0.276 -10.315,-0.003 m -45.85,-25.405 c -8.013,-0.733 -15.973,-2.209 -24.146,-4.067 7.044,4.523 15.033,7.605 23.304,9.454 8.282,1.828 16.887,2.412 25.378,1.626 8.486,-0.76 16.896,-2.748 24.736,-6.137 1.951,-0.868 3.851,-1.862 5.737,-2.838 l 2.729,-1.688 c 0.896,-0.577 1.813,-1.109 2.641,-1.799 l 2.513,-1.978 c 0.841,-0.64 1.576,-1.442 2.333,-2.179 1.569,-1.417 2.808,-3.198 4.028,-4.862 -1.79,1.146 -3.353,2.423 -5.196,3.349 -0.914,0.467 -1.716,1.059 -2.652,1.47 l -2.745,1.282 c -0.884,0.461 -1.837,0.808 -2.775,1.171 l -2.782,1.116 c -1.919,0.608 -3.793,1.283 -5.704,1.855 -7.663,2.239 -15.534,3.627 -23.466,4.332 -7.934,0.722 -15.937,0.644 -23.933,-0.107 m 295.391,-6.928 c -9.597,0.902 -19.275,1.046 -29.155,1.128 9.482,2.782 19.393,4.114 29.342,4.302 9.953,0.184 19.959,-0.85 29.726,-3.029 9.752,-2.22 19.299,-5.62 28.095,-10.531 4.396,-2.443 8.553,-5.376 12.297,-8.784 1.815,-1.771 3.601,-3.582 5.035,-5.697 1.428,-2.086 2.645,-4.419 2.983,-6.892 -1.083,2.231 -2.693,4.023 -4.435,5.631 -1.748,1.606 -3.688,3.001 -5.684,4.279 -3.975,2.596 -8.261,4.697 -12.625,6.582 -8.746,3.751 -17.899,6.521 -27.199,8.65 -9.315,2.085 -18.789,3.537 -28.38,4.361 M 290.589,417.184 c 2.638,-2.627 4.309,-6.231 4.397,-9.713 -0.476,0.754 -0.767,1.538 -1.317,2.198 -0.245,0.339 -0.453,0.69 -0.714,1.009 l -0.814,0.914 c -1.138,1.154 -2.337,2.172 -3.709,2.953 -2.666,1.638 -5.676,2.634 -8.766,3.314 -6.193,1.352 -12.716,1.485 -19.209,1.152 -6.509,-0.345 -13.032,-1.273 -19.535,-2.572 -6.524,-1.275 -12.956,-3.054 -19.615,-5.043 5.293,4.519 11.558,7.872 18.136,10.271 6.594,2.384 13.548,3.881 20.633,4.266 7.061,0.371 14.347,-0.254 21.205,-2.866 3.394,-1.323 6.71,-3.176 9.308,-5.883 m -141.947,9.545 c -2.298,-0.403 -4.627,-0.759 -7.08,-0.899 1.885,1.524 3.894,2.83 5.936,4.091 2.076,1.179 4.24,2.194 6.419,3.192 1.112,0.439 2.239,0.852 3.375,1.242 1.137,0.389 2.257,0.823 3.439,1.093 1.171,0.306 2.354,0.562 3.533,0.844 1.173,0.298 2.406,0.389 3.612,0.581 4.838,0.608 9.924,0.57 14.839,-0.934 2.439,-0.758 4.821,-1.889 6.86,-3.51 0.488,-0.456 0.966,-0.907 1.419,-1.363 0.434,-0.492 0.821,-1.044 1.181,-1.566 0.622,-1.152 1.2,-2.408 0.961,-3.67 -1.227,2.095 -3.295,2.939 -5.262,3.648 -2.045,0.617 -4.114,0.957 -6.229,1.115 -4.223,0.334 -8.558,-0.061 -12.915,-0.6 -2.184,-0.197 -4.371,-0.646 -6.584,-0.951 -2.21,-0.351 -4.423,-0.824 -6.683,-1.14 -2.234,-0.461 -4.509,-0.827 -6.821,-1.173 m 172.06,-43.36 c 4.061,9.002 11.528,16.638 20.601,21.434 9.083,4.847 19.677,6.694 29.9,5.925 10.262,-0.755 20.176,-4.119 28.866,-9.208 8.714,-5.091 16.209,-11.962 22.048,-19.884 -7.902,5.871 -15.909,11.216 -24.562,15.045 -8.591,3.887 -17.666,6.442 -26.867,7.134 -9.178,0.68 -18.504,-0.463 -27.095,-3.941 -8.624,-3.409 -16.392,-9.106 -22.891,-16.505 M 526.424,138.91 c -0.808,0.498 -2.109,1.573 -3.202,2.478 -4.351,3.593 -10.928,9.027 -19.84,10.211 -14.119,1.874 -25.235,-10.194 -34.153,-19.896 -0.973,-1.06 -1.929,-2.101 -2.87,-3.101 -0.593,-0.631 -0.978,-0.898 -1.18,-1.008 -1.007,1.446 -1.215,8.211 -1.356,12.751 -0.322,10.49 -0.628,20.396 -6.268,21.148 -5.245,0.703 -10.6,-5.839 -17.372,-14.122 -6.259,-7.658 -13.353,-16.337 -21.159,-20.013 -2.351,-1.11 -3.342,-0.519 -3.67,-0.329 -3.191,1.882 -3.811,11.397 -4.31,19.042 -0.562,8.628 -1.047,16.081 -4.466,18.652 -1.117,0.838 -2.483,1.112 -3.945,0.791 -6.844,-1.505 -15.057,-14.643 -22.998,-27.346 -5.457,-8.73 -11.641,-18.626 -14.667,-19.488 -0.036,-0.012 -0.056,-0.021 -0.157,0.042 -2.506,1.543 -4.802,13.526 -6.479,22.275 -2.595,13.54 -4.366,21.936 -7.923,23.848 -0.956,0.514 -1.99,0.563 -2.999,0.143 -4.097,-1.708 -7.016,-10.248 -11.337,-24.11 -2.503,-8.025 -7.179,-22.951 -9.839,-22.198 -3.026,0.862 -9.211,10.758 -14.668,19.488 -7.941,12.703 -16.153,25.841 -22.998,27.346 -1.365,0.299 -2.625,0.017 -3.641,-0.82 -3.321,-2.74 -3.292,-10.677 -2.971,-23.399 0.237,-9.414 0.562,-22.307 -2.727,-24.451 -0.241,-0.157 -0.978,-0.638 -2.863,0.25 -7.929,3.732 -16.305,15.455 -23.694,25.797 -7.684,10.755 -13.323,18.646 -18.392,18.646 -0.211,0 -0.424,-0.015 -0.634,-0.044 -5.639,-0.752 -5.945,-10.659 -6.269,-21.149 -0.139,-4.54 -0.347,-11.304 -1.355,-12.75 -0.203,0.11 -0.589,0.377 -1.18,1.008 -0.98,1.045 -1.98,2.133 -2.997,3.244 -8.901,9.705 -19.969,21.777 -34.046,19.749 -9.978,-1.443 -17.134,-6.826 -21.409,-10.043 -0.854,-0.643 -1.845,-1.389 -2.566,-1.852 0.036,2.964 1.715,11.11 2.984,17.269 2.571,12.488 15.744,24.751 21.379,25.737 0.296,0.051 0.993,0.139 1.167,-0.143 2.726,-4.452 15.448,-12.927 20.722,-10.825 1.274,0.508 3.275,2.004 2.359,6.311 -1.806,8.487 3.599,28.532 9.326,34.594 0.579,0.61 1.679,1.607 2.605,1.473 2.711,-0.418 4.905,-8.256 6.668,-14.554 2.273,-8.119 4.417,-15.787 8.954,-17.434 1.221,-0.448 2.477,-0.181 3.53,0.743 6.757,5.921 8.107,48.351 6.236,59.557 7.598,-3.507 38.172,-32.447 42.305,-36.756 3.106,-3.237 6.028,-4.46 8.682,-3.656 6.15,1.88 8.244,13.963 10.271,25.652 0.717,4.133 1.392,8.039 2.164,10.639 1.43,4.832 3.005,6.584 4.002,6.61 0.006,0.003 0.013,0.003 0.021,0.003 0.681,0 4.058,-0.837 9.44,-15.809 5.477,-15.233 11.714,-23.044 18.541,-23.215 6.686,-0.214 12.799,6.702 18.773,21.013 1.879,4.502 3.265,8.686 4.488,12.377 1.386,4.183 3.284,9.91 4.459,10.003 0.488,0.018 2.606,-0.786 8.917,-13.018 3.822,-7.407 16.754,-28.019 24.62,-28.907 1.549,-0.18 2.9,0.35 3.83,1.454 2.613,2.528 27.601,19.51 32.133,18.753 -0.005,-0.092 -0.022,-0.22 -0.059,-0.39 -0.093,-0.42 -8.847,-42.377 -2.365,-48.055 0.968,-0.849 2.208,-1.062 3.491,-0.594 4.315,1.567 8.096,9.45 12.475,18.581 3.347,6.984 7.934,16.548 10.892,17.003 0.942,0.138 2.028,-0.863 2.605,-1.473 5.727,-6.062 11.131,-26.107 9.328,-34.594 -0.916,-4.307 1.085,-5.803 2.357,-6.311 5.287,-2.1 17.998,6.373 20.725,10.825 0.362,0.595 1.531,0.781 3.043,0.479 6.559,-1.295 16.943,-10.217 19.487,-25.999 0.758,-4.689 2.444,-15.146 2.045,-18.133 m -17.47,46.397 c -1.188,0.538 -2.335,0.929 -3.391,1.137 -3.058,0.605 -5.496,-0.149 -6.672,-2.07 -2.007,-3.277 -10.347,-8.686 -14.657,-9.451 -0.741,-0.132 -1.377,-0.143 -1.826,0.036 -0.627,0.251 -0.385,1.74 -0.25,2.37 2.05,9.645 -3.669,30.782 -10.198,37.695 -1.855,1.961 -3.765,2.813 -5.652,2.519 -1.673,-0.258 -3.256,-1.479 -4.81,-3.356 -2.121,-2.567 -4.187,-6.376 -6.348,-10.751 -0.763,-1.551 -1.54,-3.165 -2.335,-4.824 -3.362,-7.01 -7.545,-15.737 -10.545,-16.885 -3.057,2.127 -0.095,28.576 3.457,44.709 0.611,2.777 -0.894,3.854 -1.571,4.188 -6.6,3.263 -36.255,-19.237 -36.478,-19.501 -0.2,-0.238 -0.41,-0.364 -0.853,-0.314 -4.91,0.554 -16.506,16.544 -21.928,27.052 -5.801,11.246 -9.007,15.134 -12.268,14.885 -3.472,-0.272 -4.981,-4.826 -7.48,-12.369 -1.203,-3.633 -2.567,-7.752 -4.397,-12.131 -6.496,-15.562 -11.912,-18.887 -15.352,-18.887 -0.044,0 -0.089,0.001 -0.132,0.001 -5.105,0.129 -10.561,7.561 -15.366,20.925 -4.295,11.948 -8.235,17.742 -12.292,18.072 -0.176,0.015 -0.355,0.035 -0.531,0.028 -1.946,-0.055 -3.603,-1.275 -5.014,-3.678 -0.819,-1.4 -1.557,-3.196 -2.214,-5.415 -0.828,-2.794 -1.52,-6.796 -2.255,-11.032 -1.498,-8.63 -3.755,-21.671 -7.869,-22.928 -1.618,-0.49 -3.705,1.217 -5.165,2.74 -0.698,0.727 -10.967,10.718 -21.458,20.14 -1.197,1.073 -2.323,2.073 -3.401,3.026 -7.807,6.874 -12.735,10.707 -15.932,12.78 -4.509,2.924 -5.577,2.363 -6.408,1.921 -0.511,-0.274 -1.654,-1.151 -1.167,-3.365 2.524,-11.46 -0.56,-55.461 -5.023,-57.188 -2.862,1.04 -5.047,8.842 -6.801,15.11 -2.447,8.741 -4.559,16.289 -9.478,17.047 -1.892,0.293 -3.799,-0.558 -5.651,-2.519 -6.532,-6.913 -12.251,-28.05 -10.2,-37.695 0.134,-0.63 0.377,-2.119 -0.251,-2.37 -3.047,-1.208 -14.131,5.573 -16.482,9.415 -0.532,0.866 -1.853,2.251 -4.72,1.747 -2.483,-0.434 -5.739,-2.299 -9.067,-5.076 -2.538,-2.117 -5.105,-4.771 -7.417,-7.766 -3.602,-4.664 -6.565,-10.123 -7.695,-15.61 -3.435,-16.682 -3.914,-20.074 -1.68,-21.489 1.787,-1.132 3.651,0.275 6.743,2.601 2.226,1.674 5.049,3.791 8.526,5.625 2.696,1.421 5.785,2.666 9.304,3.4 0.65,0.136 1.311,0.259 1.992,0.359 12.252,1.766 22.209,-9.085 30.994,-18.663 1.026,-1.119 2.034,-2.218 3.024,-3.273 0.656,-0.701 2.655,-2.835 4.897,-1.981 3.036,1.147 3.331,6.271 3.633,15.989 0.2,6.53 0.536,17.457 3.26,17.821 3.191,0.389 9.851,-8.931 15.748,-17.182 1.775,-2.487 3.61,-5.051 5.485,-7.573 6.186,-8.318 12.84,-16.186 19.553,-19.347 1.211,-0.57 2.344,-0.856 3.391,-0.855 1.035,0 1.986,0.28 2.843,0.839 4.908,3.202 4.612,14.976 4.297,27.442 -0.029,1.173 -0.06,2.387 -0.084,3.611 -0.153,7.531 -0.086,15.474 1.797,17.027 0.098,0.082 0.246,0.206 0.689,0.107 5.423,-1.192 13.95,-14.835 20.802,-25.798 4.935,-7.893 8.722,-13.827 11.89,-17.372 1.747,-1.956 3.31,-3.194 4.766,-3.611 2.434,-0.697 4.478,0.845 6.358,3.913 2.697,4.406 5.054,11.961 7.745,20.589 2.726,8.749 6.462,20.732 9.356,21.957 2.207,-0.691 4.698,-13.692 6.187,-21.46 2.651,-13.833 4.517,-22.392 8.068,-24.575 0.914,-0.565 1.928,-0.711 2.926,-0.424 4.099,1.172 8.998,8.736 16.654,20.983 6.854,10.963 15.382,24.606 20.803,25.798 0.597,0.134 0.901,-0.015 1.117,-0.177 2.146,-1.612 2.669,-9.647 3.09,-16.104 0.636,-9.765 1.238,-18.99 6.008,-21.802 1.927,-1.138 4.252,-1.076 6.909,0.177 8.516,4.01 15.874,13.012 22.365,20.955 4.448,5.443 9.034,11.019 12.361,12.507 0.677,0.302 1.307,0.449 1.868,0.375 2.724,-0.364 3.061,-11.29 3.262,-17.82 0.237,-7.734 0.48,-12.551 2.097,-14.776 0.414,-0.57 0.914,-0.98 1.533,-1.214 2.25,-0.854 4.242,1.28 4.9,1.981 0.948,1.01 1.912,2.058 2.894,3.127 0.231,0.252 0.464,0.504 0.697,0.757 8.639,9.388 18.431,19.637 30.447,18.049 2.724,-0.362 5.232,-1.202 7.518,-2.278 4.364,-2.054 7.914,-4.977 10.569,-7.17 3.159,-2.61 5.245,-4.336 7.23,-3.194 2.214,1.267 2.425,4.317 -0.44,22.075 -2.418,14.987 -11.543,24.415 -18.849,27.712 m -47.046,143.334 c 15.428,8.021 30.717,16.207 43.049,23.098 4.284,-4.189 22.311,-22.926 19.192,-38.791 -1.552,-7.911 -8.281,-14.098 -19.992,-18.388 -40.898,-14.976 -101.966,-4.77 -112.219,0.211 5.906,2.186 17.07,7.337 30.61,13.958 2.023,0.99 4.103,2.014 6.223,3.065 0.758,0.375 1.523,0.757 2.292,1.139 9.753,4.852 20.327,10.239 30.845,15.708 m -34.582,-13.696 c -17.522,-8.669 -31.818,-15.312 -37.713,-17.323 -1.304,-0.443 -2.059,-1.166 -2.245,-2.147 -0.098,-0.524 -0.09,-1.55 1.085,-2.547 1.105,-0.938 3.725,-2.018 7.518,-3.111 11.162,-3.212 32.511,-6.516 55.53,-6.516 18.331,0 37.722,2.096 53.848,8.003 12.931,4.737 20.402,11.797 22.205,20.982 3.884,19.802 -20.135,41.941 -21.158,42.872 l -0.217,0.198 -0.706,0.645 -1.093,-0.611 c -3.646,-2.044 -7.475,-4.161 -11.429,-6.322 -0.017,-0.01 -0.034,-0.018 -0.05,-0.027 -5.621,-3.071 -11.501,-6.232 -17.484,-9.409 -4.48,-2.378 -9.016,-4.761 -13.548,-7.123 -11.146,-5.806 -22.262,-11.465 -32.392,-16.499 -0.726,-0.361 -1.436,-0.71 -2.151,-1.065 M 119.499,299.487 c -4.054,19.092 19.75,44.682 24.747,49.799 35.893,-20.056 96.801,-51.069 113.319,-57.073 -8.642,-6.064 -77.436,-25.582 -119.957,-10.006 -10.39,3.806 -16.483,9.62 -18.109,17.28 m 121.742,-17.226 c 5.558,1.604 10.218,3.233 13.63,4.719 2.521,1.098 4.367,2.118 5.398,2.993 1.16,0.985 1.647,2.017 1.447,3.07 -0.131,0.687 -0.611,1.615 -2.156,2.144 -1.044,0.356 -2.381,0.873 -3.924,1.504 -11.737,4.812 -37.038,17.181 -63.333,30.787 -0.514,0.266 -1.027,0.532 -1.543,0.798 -14.198,7.362 -28.597,15.04 -41.237,22.042 -1.603,0.89 -3.189,1.77 -4.73,2.636 l -1.126,0.63 -0.76,-0.736 -0.167,-0.16 c -1.289,-1.25 -31.529,-30.842 -26.634,-53.916 1.89,-8.908 8.722,-15.577 20.309,-19.819 11.807,-4.326 25.872,-6.003 40.233,-6.003 23.654,0 48.103,4.549 64.593,9.311" /></g></g></svg>