<?xml version="1.0" encoding="utf-8"?>
<!-- Generator: Adobe Illustrator 26.5.0, SVG Export Plug-In . SVG Version: 6.00 Build 0)  -->
<svg version="1.1"
	 id="svg1161" xmlns:sodipodi="http://sodipodi.sourceforge.net/DTD/sodipodi-0.dtd" xmlns:cc="http://creativecommons.org/ns#" xmlns:dc="http://purl.org/dc/elements/1.1/" xmlns:rdf="http://www.w3.org/1999/02/22-rdf-syntax-ns#" xmlns:svg="http://www.w3.org/2000/svg" xmlns:inkscape="http://www.inkscape.org/namespaces/inkscape"
	 xmlns="http://www.w3.org/2000/svg" xmlns:xlink="http://www.w3.org/1999/xlink" x="0px" y="0px" viewBox="0 0 880 880"
	 style="enable-background:new 0 0 880 880;" xml:space="preserve">
<sodipodi:namedview  bordercolor="#666666" borderopacity="1" gridtolerance="10" guidetolerance="10" id="namedview1163" inkscape:current-layer="g1169" inkscape:cx="460.50847" inkscape:cy="378.09686" inkscape:pageopacity="0" inkscape:pageshadow="2" inkscape:window-height="1018" inkscape:window-maximized="1" inkscape:window-width="1920" inkscape:window-x="-8" inkscape:window-y="-8" inkscape:zoom="0.82197243" objecttolerance="10" pagecolor="#ffffff" showgrid="false">
	</sodipodi:namedview>
<g id="g1169" transform="matrix(1.3333333,0,0,-1.3333333,0,880)" inkscape:groupmode="layer" inkscape:label="pumpkin-freesvg.org">
	<g id="g1927">
		<path id="path1271" inkscape:connector-curvature="0" style="fill:#63AC4B;" d="M375.1077,355.6833
			c-0.1855,0.6844-0.3154,1.3864-0.3643,2.0983c-0.0114,0.1779-0.0096,0.3565-0.015,0.5348l-0.0051,0.2674l0.015,0.2671
			c0.0114,0.178,0.0169,0.3565,0.0334,0.5341l0.0709,0.5302c0.0186,0.1777,0.057,0.3517,0.0952,0.5256
			c0.039,0.1738,0.0721,0.349,0.116,0.5211l0.1488,0.5121l0.0745,0.256l0.0906,0.2501l0.1818,0.4998
			c0.0594,0.1672,0.1377,0.3261,0.2057,0.4893l0.2122,0.4864l0.2372,0.4736c1.2999,2.5111,3.0488,4.7297,4.9066,6.8115
			c1.8315,2.0478,3.7955,3.9658,5.8261,5.8053c-0.2579,0.2357-0.5928,0.3932-0.8903,0.4957
			c-0.6557,0.2251-1.4368,0.2921-2.1691,0.2265c-0.2364-1.2212-0.7181-2.394-1.3097-3.4915
			c-0.6854-1.2543-1.5121-2.4213-2.3537-3.5642c-0.8392-1.1456-1.6985-2.2708-2.4956-3.4346
			c-0.7933-1.1655-1.5432-2.3584-2.1731-3.6137c-0.4277-0.8481-0.8093-1.719-1.1367-2.6098
			c-0.1539-1.034-0.2468-2.0678-0.2981-3.103c-0.0516-1.1586-0.0619-2.3176-0.015-3.4749c0.0375-1.1572,0.1354-2.3125,0.2961-3.4575
			c0.0408-0.2864,0.0972-0.5693,0.1404-0.8558c0.0587-0.2817,0.114-0.5664,0.1828-0.8469c0.0787-0.2764,0.1387-0.5627,0.2456-0.8305
			c0.0522-0.1341,0.0864-0.2791,0.1541-0.4065l0.1879-0.3958l-0.2573,0.3584c-0.0894,0.1201-0.1432,0.2572-0.2174,0.3861
			c-0.1496,0.2585-0.2406,0.5393-0.3575,0.8129c-0.0999,0.2784-0.1828,0.5619-0.2715,0.8449
			c-0.0722,0.2859-0.1442,0.5732-0.2078,0.8615c-0.0563,0.2892-0.1162,0.5788-0.1618,0.8704l-0.1225,0.8759l-0.081,0.8806
			c-0.0209,0.2939-0.0343,0.588-0.0511,0.8821c-0.0375,1.1777-0.0044,2.3581,0.1317,3.5279c0.0763,0.6606,0.1819,1.32,0.3302,1.9686
			c-0.0193-0.0626-0.0396-0.1249-0.0584-0.1877c-0.1996-0.6722-0.3722-1.3528-0.515-2.0401
			c-0.1458-0.6879-0.2414-1.3783-0.3634-2.0895c-0.2758-1.4004-0.6472-2.8151-1.4041-4.0596
			c-0.3798-0.6131-0.8836-1.1786-1.5337-1.5185c-0.3231-0.1682-0.6808-0.2694-1.0409-0.2932
			c-0.3596-0.0191-0.724,0.0358-1.0493,0.1785c0.6775-0.222,1.4267-0.105,2.015,0.2501c0.2953,0.1788,0.5548,0.4113,0.7809,0.6716
			c0.2257,0.2617,0.4122,0.5553,0.5858,0.8545c0.336,0.6078,0.5749,1.2672,0.7691,1.938c0.1923,0.6721,0.3306,1.3607,0.4427,2.0533
			c0.1028,0.6891,0.1916,1.4055,0.3285,2.1078c0.1335,0.7038,0.2977,1.4025,0.5011,2.0899
			c0.4069,1.3747,0.9326,2.7169,1.5906,3.9899c0.6537,1.2753,1.4109,2.4933,2.2387,3.6545
			c0.8239,1.1644,1.7048,2.2809,2.5769,3.3965c0.8665,1.1196,1.7281,2.2408,2.4571,3.4478
			c0.6421,1.0463,1.1591,2.1745,1.4779,3.3675c-0.7914-0.0768-1.5212-0.3095-1.9647-0.6728
			c-0.0309-0.1133-0.0645-0.2487-0.1017-0.3982c-0.3949-1.5869-1.2167-4.8895-4.9381-9.1546
			c-2.608-2.9889-3.5174-6.3275-4.3198-9.2732c-0.8207-3.0137-1.5298-5.6166-3.8206-7.0137c-1.4317-0.8734-2.469-1.486-3.2164-1.915
			c2.7391-0.0912,7.4808-0.4835,9.5806-2.064c0.2125-0.16,0.2961-0.1616,0.2978-0.1616c0.0787,0.0292,0.274,0.307,0.4033,0.491
			c0.2942,0.4188,0.6975,0.9923,1.3871,1.4281c0.4224,0.267,0.8964,0.4826,1.3721,0.6656c-0.5906,0.862-1.1586,1.74-1.6946,2.6413
			C376.1142,353.0425,375.4995,354.3192,375.1077,355.6833 M385.6036,375.1261c0.4488,0.4689,0.8969,0.9388,1.3414,1.413
			c0.2063-0.1913,0.3618-0.4334,0.4055-0.7396c0.0862-0.6004-0.192-2.3358-4.6228-5.4696
			c-6.8107-4.8175-7.2987-10.1824-6.9835-12.9518c0.386-3.3893,2.3206-6.3752,4.8394-7.4983
			c-0.1976-0.0667-0.4219-0.136-0.6242-0.1989c-0.4227-0.1308-0.8961-0.2781-1.3701-0.4567
			c-0.5359,0.9023-1.0674,1.806-1.545,2.7358c-0.649,1.2254-1.1996,2.5019-1.5446,3.8272
			c-0.1583,0.6656-0.2632,1.3408-0.3011,2.0198c-0.0078,0.1697-0.0027,0.3399-0.0051,0.5097l-0.0008,0.2546l0.0191,0.254
			c0.014,0.1693,0.022,0.3394,0.0406,0.5078l0.0768,0.5044c0.0196,0.1687,0.0612,0.3341,0.098,0.5001
			c0.0384,0.1658,0.0707,0.333,0.1136,0.4977l0.1458,0.4903l0.0728,0.2453l0.089,0.2405l0.1779,0.4808
			c0.058,0.1607,0.1351,0.3147,0.2017,0.4724l0.2083,0.4696l0.2336,0.4593c0.6191,1.2267,1.3732,2.3883,2.179,3.5117
			c0.7977,1.131,1.6808,2.2026,2.57,3.2685l0.676,0.7928l0.6906,0.7805c0.4548,0.5261,0.9315,1.0326,1.3984,1.5482
			C384.6498,374.1115,385.1303,374.6152,385.6036,375.1261"/>
		<path id="path1273" inkscape:connector-curvature="0" d="M393.632,302.0951c-0.1464-0.1595-0.2903-0.3159-0.4319-0.4667
			c-0.0889-0.0949-0.1472-0.1351-0.1776-0.1517c-0.1517,0.2176-0.1829,1.2356-0.2041,1.9188
			c-0.0485,1.5786-0.0945,3.0693-0.9432,3.1826c-0.7893,0.1056-1.5951-0.8788-2.6142-2.1253
			c-0.9419-1.1524-2.0094-2.4584-3.1841-3.0116c-0.3538-0.167-0.5029-0.0781-0.5523-0.0495
			c-0.4802,0.2832-0.5735,1.7151-0.6486,2.8655c-0.0846,1.2985-0.1576,2.4199-0.6721,2.8068
			c-0.1684,0.1263-0.3737,0.1673-0.5937,0.119c-1.0299-0.2265-2.2658-2.2035-3.4608-4.1151
			c-0.8212-1.3137-1.7518-2.8026-2.2071-2.9326c-0.0054-0.0018-0.0084-0.0032-0.0237,0.0063
			c-0.3771,0.2322-0.7226,2.0354-0.975,3.352c-0.3905,2.0376-0.657,3.301-1.1924,3.5887c-0.1437,0.0773-0.2995,0.0847-0.4511,0.0215
			c-0.6165-0.257-1.0558-1.5421-1.706-3.628c-0.3764-1.2076-1.0803-3.4539-1.4808-3.3406c-0.4552,0.13-1.3861,1.6189-2.2071,2.9326
			c-1.1951,1.9116-2.4308,3.8886-3.4607,4.1151c-0.2056,0.045-0.3952,0.0026-0.5479-0.1234
			c-0.5002-0.4123-0.4958-1.6067-0.4474-3.5211c0.0355-1.4167,0.0847-3.3568-0.4102-3.6795
			c-0.0363-0.0236-0.1472-0.096-0.4308,0.0376c-1.1933,0.5619-2.4536,2.3257-3.5656,3.882
			c-1.1563,1.6184-2.0049,2.8059-2.7677,2.8059c-0.0318,0-0.0635-0.0023-0.0951-0.0065c-0.8492-0.1133-0.8949-1.6042-0.9437-3.1826
			c-0.0212-0.6833-0.0522-1.7012-0.2039-1.9188c-0.0305,0.0165-0.0886,0.0567-0.1776,0.1517
			c-0.1478,0.1573-0.2978,0.321-0.451,0.4882c-1.3394,1.4604-3.005,3.2771-5.1235,2.9722
			c-1.5015-0.2174-2.5782-1.0275-3.2217-1.5116c-0.1285-0.0968-0.2775-0.209-0.3861-0.2784
			c0.0059,0.4457,0.2582,1.6716,0.4492,2.5984c0.387,1.8792,2.369,3.7246,3.2173,3.873c0.0444,0.0077,0.1493,0.0212,0.1755-0.0214
			c0.4102-0.6701,2.3246-1.9454,3.1183-1.6291c0.1917,0.0764,0.4926,0.3016,0.3549,0.9497
			c-0.2713,1.2771,0.5417,4.2936,1.4038,5.2058c0.0867,0.0918,0.2522,0.2418,0.3917,0.2216
			c0.4078-0.0629,0.7381-1.2424,1.0034-2.1901c0.3419-1.2218,0.6647-2.3757,1.3474-2.6235
			c0.1839-0.0674,0.3727-0.0272,0.5315,0.1118c1.0165,0.891,1.2199,7.276,0.9381,8.9623c1.1434-0.5277,5.7444-4.8827,6.3662-5.5312
			c0.4671-0.4871,0.9071-0.6711,1.3065-0.5501c0.9255,0.2829,1.2406,2.1012,1.5454,3.8602c0.1078,0.6219,0.2096,1.2097,0.3255,1.601
			c0.2155,0.7273,0.4527,0.9908,0.6025,0.995c0.0008,0.0002,0.0018,0.0002,0.0033,0.0002c0.1024,0,0.6104-0.1259,1.4204-2.379
			c0.8241-2.2923,1.7628-3.4677,2.7901-3.4935c1.0061-0.0322,1.9261,1.0087,2.825,3.1621c0.2827,0.6775,0.4913,1.3071,0.6752,1.8627
			c0.2087,0.6293,0.4944,1.4911,0.6711,1.5051c0.0735,0.0029,0.3922-0.1181,1.3419-1.959c0.5752-1.1146,2.5212-4.2164,3.7049-4.35
			c0.2329-0.0271,0.4364,0.0528,0.5764,0.2188c0.3932,0.3804,4.1535,2.9359,4.8355,2.822c-0.0009-0.0139-0.0033-0.033-0.009-0.0587
			c-0.0139-0.0632-1.3312-6.377-0.356-7.2315c0.146-0.1277,0.3326-0.1598,0.5256-0.0894c0.6493,0.2358,1.2183,1.4222,1.8773,2.7961
			c0.5037,1.051,1.1939,2.4902,1.639,2.5587c0.1418,0.0208,0.3052-0.1299,0.392-0.2216c0.8618-0.9122,1.675-3.9287,1.4037-5.2058
			c-0.1378-0.6481,0.1631-0.8733,0.3547-0.9497c0.7956-0.316,2.7084,0.959,3.1187,1.6291c0.0545,0.0894,0.2304,0.1174,0.4579,0.0719
			c0.987-0.1949,2.5497-1.5372,2.9325-3.9124c0.1141-0.7056,0.3678-2.2792,0.3077-2.7287c-0.1216,0.075-0.3174,0.2367-0.4818,0.3729
			c-0.6548,0.5407-1.6445,1.3584-2.9856,1.5366C396.6468,305.3711,394.974,303.5551,393.632,302.0951 M382.001,326.634
			c0.8888,0.3289,2.5688,1.1041,4.6063,2.1004c0.3264,0.1357,0.6462,0.2733,0.959,0.4122c-0.0074,0.0166-0.0152,0.033-0.0226,0.0491
			c0.114,0.0567,0.2292,0.1139,0.3449,0.1714c0.0104-0.0206,0.0209-0.0406,0.0313-0.0612c1.7394,0.792,3.2654,1.6249,4.6104,2.425
			c2.3214,1.207,4.6224,2.4389,6.4781,3.4758c0.6447-0.6304,3.3574-3.45,2.8881-5.8374c-0.2337-1.1905-1.2462-2.1215-3.0085-2.7671
			C392.7336,324.3486,383.5439,325.8845,382.001,326.634 M361.7802,326.2492c-1.3005-0.9127-11.6528-3.8497-18.0516-1.5056
			c-1.5634,0.5726-2.4803,1.4474-2.7248,2.6002c-0.6102,2.8729,2.972,6.7237,3.7238,7.4937
			C350.1288,331.8195,359.2948,327.1526,361.7802,326.2492 M397.1942,334.8007c-0.0314,0.0391-0.0603,0.0799-0.0918,0.1189
			c0.0338-0.0375,0.0656-0.0769,0.0992-0.1148C397.1992,334.8034,397.1967,334.8021,397.1942,334.8007 M369.9815,319.1003
			c0.0122,0.116,0.0212,0.2325,0.0338,0.3482c0.2283,2.0136,0.5754,4.0123,1.0462,5.9798
			c0.9452,3.9272,2.3948,7.7595,4.5714,11.1514c-2.0273-3.4828-3.2951-7.3425-4.0614-11.262
			c-0.3636-1.8737-0.6126-3.7675-0.7557-5.6681c-0.0266,0.0023-0.0533,0.0053-0.08,0.0042
			C370.4432,319.6456,370.1938,319.4622,369.9815,319.1003 M387.3263,329.6699c-1.116,2.3826-2.473,4.6572-4.1161,6.7313
			c1.7361-1.9968,3.2048-4.2197,4.4398-6.571C387.5408,329.7758,387.4339,329.7233,387.3263,329.6699 M351.9594,331.556
			c-0.0773,0.0399-0.1547,0.0799-0.2322,0.1199c0.7474,1.8222,1.6333,3.5833,2.6804,5.247
			C353.4304,335.2068,352.6233,333.4067,351.9594,331.556 M416.0294,315.6461c-0.042,0.3214-0.0883,0.642-0.1384,0.961
			c-0.4066,2.5382-1.0627,5.0171-1.9328,7.4111c-0.876,2.3903-1.9547,4.7061-3.3004,6.8592
			c-0.6745,1.0745-1.4178,2.1069-2.2554,3.0574c-0.8352,0.95-1.7862,1.8077-2.8583,2.4664c1.0244-0.732,1.9-1.6412,2.6572-2.6324
			c0.7588-0.992,1.4177-2.0553,2.0053-3.1532c1.1718-2.2004,2.0687-4.5369,2.7594-6.9207c0.6852-2.386,1.1515-4.8304,1.3715-7.2801
			c0.1651-1.8841,0.1813-3.781-0.0251-5.6254c-0.9166-1.7809-1.7811-2.386-2.0297-1.1284
			c-0.859,4.3426-2.923,23.5193-19.5891,35.7666c-2.2746,1.5089-4.6173,1.98-6.1512,2.4687
			c-0.6248,0.1794-1.4142,0.46-2.1212,0.6534c-0.3664,0.1004-0.3123,0.6344,0.0668,0.6599
			c0.8258,0.0552,1.6521,0.0643,2.2696,0.0417c2.9203-0.1151,6.0809-0.8266,7.6773-1.1885c0.1807-0.0378,0.3667-0.08,0.5565-0.1251
			c0.0135-0.0031,0.0286-0.0065,0.0418-0.0093c0.1216-0.0266,0.2001-0.0465,0.2463-0.0609
			c5.1593-1.303,13.2842-5.2771,18.1118-12.3387C417.6756,329.2618,417.3903,321.2251,416.0294,315.6461 M410.1566,309.4326
			c-0.0013-0.014-0.0023-0.0289-0.0034-0.0427l-0.059-0.7216c-0.0428-0.487-0.0992-0.9772-0.169-1.4659
			c-0.1465-0.9774-0.3578-1.9487-0.6552-2.8945c-0.5979-1.8892-1.547-3.6737-2.825-5.1711
			c-0.6386-0.7482-1.3524-1.4246-2.1153-2.0309l-0.5815-0.4417l-0.6052-0.4062c-0.1986-0.14-0.4099-0.2591-0.6189-0.3813
			c-0.211-0.1192-0.4135-0.2519-0.6305-0.3591c-1.7102-0.9048-3.5341-1.5477-5.3939-1.9909
			c1.8257,0.5684,3.5889,1.3321,5.1971,2.3293c0.7933,0.5141,1.5664,1.059,2.2544,1.6984c0.6924,0.6322,1.3267,1.3221,1.8807,2.0687
			c0.0566,0.0764,0.1086,0.1557,0.1634,0.2332c1.0182,1.44,1.7313,3.0704,2.1445,4.7682c0.0486,0.2021,0.0918,0.4057,0.1326,0.6096
			c0.1326,1.3424,0.118,2.6771,0.0125,3.9914c-0.1312,1.6057-0.3976,3.1839-0.75,4.7348c-0.3529,1.5509-0.792,3.0757-1.3044,4.5715
			c-0.6783,1.9808-1.469,3.9169-2.36,5.8026c0.1812,0.1736,0.3015,0.3512,0.3485,0.5303c0.1946,0.7416,0.2543,1.8097,0.1809,2.996
			c3.1367-5.5119,5.5627-11.3791,5.8684-15.8421C410.3295,311.1236,410.2857,310.2588,410.1566,309.4326 M394.1211,301.8558
			c-0.5772-1.2661-1.2859-2.5414-2.1117-3.7485l0.0184,0.0704c0.2491,0.9876,0.4395,1.9816,0.5849,2.9782
			c-0.2433,0.3348-0.2799,1.0597-0.3156,2.2235c-0.0302,0.9826-0.081,2.6268-0.4909,2.6816
			c-0.0844,0.0111-0.1792-0.011-0.2811-0.0564c-0.0445-0.6287-0.101-1.2558-0.1718-1.8804
			c-0.2137-1.8594-0.5551-3.7011-1.0863-5.4627l-0.2022-0.6587l-0.2321-0.6436c-0.1443-0.4346-0.3405-0.8395-0.5125-1.257
			c-0.3856-0.8075-0.8217-1.5792-1.339-2.2502l0.088-0.0661c-2.9696-2.3531-6.6282-3.4775-10.6969-1.9059
			c-0.5052,0.5342-0.9751,1.1214-1.4043,1.7507c-0.5196,0.7959-1.0078,1.6269-1.4219,2.5059
			c-0.6344,1.3093-1.1667,2.6813-1.6189,4.0859c-0.2829-0.4618-0.5901-0.6939-0.9566-0.589
			c-0.2192,0.0627-0.4545,0.2491-0.7173,0.5434c0.4278-1.6269,0.9566-3.2352,1.633-4.8019c0.1671-0.397,0.3514-0.7876,0.5455-1.1753
			c-1.2151,0.9633-2.4554,2.1775-3.7157,3.6783c-1.6061,1.9128-2.8346,4.0102-3.7565,6.2169
			c0.0038-0.1839,0.0083-0.3669,0.0126-0.5434c0.0474-1.8759,0.0919-3.6477-0.6468-4.1295
			c-0.1291-0.0841-0.2719-0.1263-0.4277-0.1263c-0.1576-0.0002-0.3281,0.0429-0.5104,0.1287
			c-1.01,0.4757-2.0114,1.6598-2.9421,2.9114c-0.1088-2.2842-0.3798-4.162-0.947-5.4145c-0.595-1.3139-1.3379-2.2288-2.1966-2.7754
			c-1.5262,0.9468-2.8589,2.231-3.9607,3.7148c-1.1202,1.5039-2.0094,3.2054-2.7,4.9926c-0.2123,0.5475-0.4054,1.1035-0.5842,1.6649
			c-0.5295-0.1105-0.9945-0.2978-1.3999-0.5117c0.155-0.5661,0.3243-1.1295,0.5132-1.6881c0.6477-1.922,1.5161-3.7944,2.6792-5.511
			c0.7395-1.094,1.6064-2.1232,2.5954-3.0354c0.6171-0.4439,1.2695-0.8407,1.9513-1.1862c0.0476-0.0241,0.0935-0.05,0.141-0.0736
			c1.483-0.7362,3.0977-1.2185,4.7538-1.5017l1.2513-0.171c0.4194-0.0433,0.8414-0.0543,1.2632-0.0832l0.6341-0.0364l0.6343,0.009
			l1.2729,0.0182l-1.2687-0.116l-0.6362-0.0578l-0.6381-0.0126c-0.426-0.0038-0.8532-0.0251-1.2802-0.014l-1.2815,0.0754
			c-1.7051,0.1583-3.4098,0.5237-5.0245,1.1757c-1.6162,0.6466-3.1262,1.5817-4.4642,2.7141
			c-0.1129,0.0942-0.2224,0.1917-0.3326,0.2886c-2.8197,1.7715-5.9632,5.3298-9.0099,10.295
			c-2.5767,4.1994-3.3336,10.64-2.29,17.242c2.2137-0.5631,5.0598-0.5005,7.9429-0.1148c-0.4521-2.6479-0.6862-5.3378-0.6915-8.0355
			c-0.0035-1.9465,0.1269-3.8974,0.3977-5.8359c0.3481,0.4507,0.7343,0.8501,1.1163,1.1686
			c-0.2471,1.5488-0.4044,3.1162-0.4706,4.69c-0.1139,2.7019,0.0069,5.4201,0.3569,8.1136c3.5884,0.5429,7.155,1.5464,9.5515,2.4277
			c-2.4816-0.7165-6.1606-1.4012-9.72-1.4012c-2.1612,0-4.2778,0.2523-6.0545,0.9034c-1.7435,0.6383-2.7719,1.6419-3.0562,2.9823
			c-0.7365,3.4724,3.8138,7.9255,4.0078,8.1136l0.0251,0.0241l0.1145,0.1109l0.1694-0.0949
			c0.2321-0.1303,0.4706-0.2628,0.7118-0.3964c3.2662,5.6627,8.1744,10.2198,14.7156,11.8432
			c3.9265,0.9744,12.3918,0.3914,4.9566-8.3479c-2.2365-2.6292-3.2685-6.813-3.704-11.5655
			c0.2319-0.0948,0.4331-0.1728,0.5903-0.2263c0.2325-0.0796,0.3049-0.2193,0.3246-0.3228
			c0.0301-0.1583-0.0433-0.3136-0.2177-0.4615c-0.1552-0.132-0.433-0.2855-0.8123-0.4507
			c-0.1383-2.0943-0.1774-4.2752-0.1657-6.4651c0.4812-0.312,1.2233-0.8887,2.3973-1.9232
			c0.0208,11.2286,4.3014,21.8733,5.8803,24.0764c4.3243,6.0336,13.1861,4.643,18.6647-0.705
			c1.7901-1.7476,3.2364-4.6537,4.373-8.1318c0.682,0.3554,1.3646,0.714,2.0388,1.0719c-1.2871,3.1924-2.8465,6.0627-4.7145,8.2796
			c-1.0788,1.1346-2.3596,1.8899-3.6441,2.6958c-1.6902,1.0607-3.4932,1.7174-5.4276,2.1624
			c-0.3014,0.0694-0.257,0.5074,0.0516,0.5211c0.4402,0.0194,0.8818,0.019,1.3236,0.0004c1.1879-0.0503,2.3755-0.2298,3.5404-0.5252
			c1.1649-0.2966,2.2687-0.6695,3.38-1.1826c1.302-0.6016,1.8343-0.8805,3.3621-2.1621h-0.0002
			c0.1971-0.1571,0.4013-0.3238,0.6155-0.5022c1.8321-1.5266,4.0108-3.9703,6.1922-6.901c-0.0164-0.006-0.0334-0.0135-0.0501-0.02
			l0.0328-0.0295c0.1539-0.1403,3.7684-3.4718,3.1839-6.4518c-0.2713-1.3823-1.3956-2.4446-3.3415-3.1573
			c-2.4267-0.8891-5.3447-1.2045-8.1032-1.2045c-3.464,0-6.6766,0.4972-8.3563,0.9805c1.8907-1.7208,4.5055-2.7307,7.2664-3.2342
			c0.1491-0.5536,0.2894-1.1098,0.4198-1.6677c0.429-1.8446,0.7547-3.7115,0.9803-5.5882c0.1002-0.8341,0.1792-1.6711,0.239-2.5089
			c0.3252,0.6584,0.6361,1.2319,0.9551,1.618c-0.0507,0.3466-0.1035,0.693-0.1612,1.0383c-0.3168,1.9015-0.7345,3.784-1.2553,5.636
			c-0.127,0.4495-0.2597,0.8975-0.3983,1.3435c1.3903-0.2051,2.8029-0.2888,4.166-0.2766c0.7324-4.7724,1.0711-9.6264,1.071-13.588
			c0-0.0205-0.0006-0.0413-0.0006-0.062c0.6486,0.1151,1.9036,0.9291,2.2057,1.4222c0.1769,0.2891,0.5438,0.4026,1.004,0.3115
			c0.1589-0.0313,0.3315-0.0901,0.5103-0.1708c-0.2882,3.5916-0.8636,7.9003-1.7998,12.2701
			c2.3748,0.2736,4.3682,0.8249,5.4803,1.4774c0.7503-1.8622,1.4016-3.7612,1.9431-5.6861c0.42-1.4908,0.7642-3.0002,1.0222-4.5178
			c0.257-1.5173,0.4268-3.0449,0.4656-4.5638c0.0384-1.517-0.0543-3.0295-0.3539-4.4704c-0.2355-1.086-0.6048-2.1245-1.1245-3.0406
			c-2.6541-1.677-5.3679-1.2347-5.4087,2.5985c-0.3443,0.1619-0.7214,0.2883-1.1313,0.3428
			C396.8947,304.8108,395.4211,303.2687,394.1211,301.8558 M340.847,300.332c-1.4517,0.8645-2.7973,1.9095-4.0409,3.0652
			c-1.2434,1.1573-2.377,2.4365-3.3914,3.8146c-0.057,0.078-0.1121,0.1571-0.1684,0.2355
			c-7.0602,7.8442-4.1813,26.8508,4.8308,35.7367c7.628,7.5211,20.4645,6.6526,13.2905,1.9564
			c-3.5729-2.3383-6.2229-5.5003-8.1715-9.0323c-0.1795,0.1001-0.3548,0.1978-0.5244,0.293c0,0-8.3447-9.619-3.7253-13.108
			c-1.0456-6.1967-0.8882-12.0088-0.4924-15.4582c0,0-0.1174-0.9476-0.5622-1.6963c-0.342,0.456-0.6663,0.928-0.9687,1.416
			c-0.925,1.4944-1.6675,3.1204-2.2485,4.8076c-1.1584,3.3805-1.692,6.9996-1.6467,10.6109
			c0.0513,3.6105,0.6886,7.2405,2.0431,10.6167c0.6776,1.6855,1.5382,3.3037,2.5925,4.7939
			c1.0528,1.4905,2.3013,2.8506,3.7202,4.0178c-1.4725-1.0985-2.7937-2.4056-3.9296-3.8617
			c-1.1371-1.4562-2.0901-3.0581-2.8623-4.7435c-1.5444-3.3761-2.3776-7.0655-2.6068-10.7842
			c-0.2218-3.7213,0.1455-7.4978,1.1974-11.1228c0.5294-1.8102,1.2354-3.5824,2.1647-5.2568
			c0.1852-0.3332,0.3818-0.6612,0.5855-0.9858c0.4519-0.5851,0.9277-1.1527,1.4291-1.6982c0.5419-0.589,1.1112-1.1552,1.7078-1.6922
			c0.632-0.5688,1.2949-1.1044,1.9914-1.5966c1.3483-0.9656,2.8253-1.76,4.3932-2.3469
			C343.8459,298.7753,342.2922,299.4588,340.847,300.332 M362.0127,349.5199c0.8281-1.4838-1.7805-1.6472-5.6886-0.2007
			c-4.0107,1.4848-9.1054,3.6379-16.4353-0.0617C342.7009,353.2791,356.7479,358.9525,362.0127,349.5199 M369.1505,354.6192
			c0.9131-1.5936-1.9999-4.522-3.5654-2.8261c-1.5652,1.6958-5.9123,5.0869-12.0868,4.9568
			C361.6586,359.0973,368.2377,356.213,369.1505,354.6192 M372.5121,357.7658c0.8025,2.9457,1.7119,6.2843,4.3198,9.2732
			c3.7214,4.2651,4.5432,7.5678,4.9381,9.1546c0.0369,0.1494,0.0709,0.2849,0.1017,0.3982
			c0.4435,0.3633,1.1733,0.5962,1.9645,0.6729c-0.3186-1.1932-0.8356-2.3214-1.4778-3.3677
			c-0.7289-1.207-1.5906-2.3282-2.4571-3.4478c-0.8721-1.1157-1.753-2.232-2.5769-3.3965
			c-0.8278-1.1611-1.5851-2.3792-2.2387-3.6545c-0.6581-1.2729-1.1837-2.6152-1.5908-3.9897
			c-0.2033-0.6876-0.3675-1.3863-0.501-2.0899c-0.1366-0.7025-0.2254-1.4189-0.3286-2.1081
			c-0.1121-0.6927-0.2502-1.3811-0.4427-2.0533c-0.1941-0.6705-0.433-1.33-0.7687-1.9379c-0.174-0.2991-0.3604-0.5926-0.5861-0.8544
			c-0.226-0.2603-0.4857-0.4928-0.7812-0.6716c-0.5879-0.355-1.3373-0.4719-2.0146-0.2501
			c0.3253-0.1428,0.6896-0.1974,1.0493-0.1785c0.3601,0.0238,0.7177,0.1249,1.041,0.293c0.6502,0.3401,1.1536,0.9056,1.5336,1.5187
			c0.7571,1.2445,1.1282,2.6593,1.4042,4.0596c0.1219,0.711,0.2174,1.4016,0.3634,2.0894c0.1427,0.6873,0.3154,1.3679,0.5148,2.0401
			c0.019,0.0628,0.0393,0.1249,0.0588,0.1877c-0.1487-0.6484-0.2543-1.308-0.3304-1.9686
			c-0.1359-1.1699-0.1692-2.3504-0.1317-3.5278c0.0168-0.2941,0.0302-0.5884,0.0512-0.8823l0.0809-0.8806l0.1227-0.876
			c0.0453-0.2916,0.1053-0.5811,0.1618-0.8705c0.0637-0.2882,0.1354-0.5756,0.2078-0.8615
			c0.0888-0.2829,0.1712-0.5664,0.2712-0.8448c0.1171-0.2736,0.2081-0.5544,0.3577-0.8129c0.074-0.129,0.1281-0.2661,0.2174-0.3861
			l0.2573-0.3585l-0.188,0.3958c-0.0677,0.1273-0.1019,0.2724-0.1541,0.4064c-0.1068,0.2677-0.1669,0.5541-0.2456,0.8305
			c-0.0688,0.2805-0.1241,0.5652-0.1829,0.8469c-0.0432,0.2865-0.0996,0.5697-0.1404,0.8558
			c-0.1607,1.1451-0.2587,2.3003-0.2961,3.4578c-0.0468,1.1569-0.0366,2.3161,0.015,3.4748
			c0.0511,1.035,0.1442,2.0688,0.2981,3.1028c0.3273,0.8908,0.7091,1.7617,1.1367,2.6098c0.6299,1.2553,1.3798,2.4482,2.1731,3.6137
			c0.7971,1.1637,1.6564,2.289,2.4956,3.4345c0.8416,1.1431,1.6682,2.3101,2.3537,3.5643c0.5914,1.0975,1.0732,2.2703,1.3097,3.4916
			c0.7322,0.0655,1.5134-0.0016,2.1689-0.2266c0.2976-0.1025,0.6325-0.2597,0.8904-0.4957
			c-2.0306-1.8395-3.9946-3.7576-5.8261-5.8053c-1.8579-2.0819-3.6068-4.3004-4.9066-6.8115l-0.2372-0.4736l-0.2122-0.4864
			c-0.068-0.1633-0.1463-0.3224-0.2057-0.4894l-0.1818-0.4998l-0.0906-0.2501l-0.0745-0.256l-0.1488-0.5118
			c-0.0439-0.1725-0.077-0.3476-0.116-0.5214c-0.0382-0.174-0.0766-0.3478-0.0953-0.5255l-0.0707-0.5303
			c-0.0167-0.1776-0.0221-0.356-0.0334-0.5341l-0.015-0.2671l0.005-0.2674c0.0054-0.1783,0.0036-0.3569,0.0149-0.5345
			c0.049-0.7122,0.1789-1.4142,0.3645-2.0986c0.3917-1.3638,1.0064-2.6407,1.7137-3.8459c0.536-0.9012,1.1039-1.7793,1.6946-2.6413
			c-0.4757-0.183-0.9497-0.3986-1.3721-0.6656c-0.6897-0.4356-1.093-1.0093-1.3871-1.4281
			c-0.1293-0.1839-0.3246-0.4615-0.4034-0.491c-0.0015,0-0.0852,0.0017-0.2976,0.1616c-2.1002,1.5805-6.8413,1.9728-9.581,2.0639
			c0.7477,0.4294,1.7849,1.0418,3.2167,1.9152C370.9822,352.1493,371.6915,354.7519,372.5121,357.7658 M382.7277,370.3299
			c-6.8109-4.8176-7.2987-10.1824-6.9835-12.9518c0.3858-3.3892,2.3206-6.3753,4.8394-7.4983
			c-0.1978-0.0667-0.422-0.136-0.6242-0.1986c-0.4227-0.1311-0.8961-0.2781-1.3701-0.457
			c-0.5359,0.9023-1.0674,1.8059-1.5452,2.7358c-0.6489,1.2252-1.1996,2.5018-1.5444,3.8272
			c-0.1583,0.6657-0.2632,1.3408-0.3011,2.0196c-0.0078,0.1699-0.0029,0.3401-0.0051,0.5098l-0.0007,0.2546l0.019,0.254
			c0.0141,0.1693,0.0221,0.3392,0.0408,0.5077l0.0764,0.5044c0.0197,0.1687,0.0616,0.3341,0.0983,0.5001
			c0.0384,0.166,0.0707,0.3329,0.1136,0.4975l0.1458,0.4904l0.0728,0.2453l0.0886,0.2405l0.1782,0.4808
			c0.0579,0.1607,0.1351,0.3145,0.2016,0.4722l0.2083,0.4698l0.2332,0.4593c0.6194,1.2267,1.3733,2.3883,2.1793,3.5117
			c0.7977,1.131,1.6807,2.2026,2.5699,3.2685l0.676,0.7928l0.6906,0.7805c0.4548,0.5261,0.9315,1.0325,1.3984,1.5482
			c0.4662,0.5166,0.9467,1.0203,1.42,1.5315c0.4487,0.4686,0.8969,0.9386,1.3414,1.4128c0.2063-0.1913,0.3616-0.4334,0.4055-0.7396
			C387.4368,375.1991,387.1585,373.4639,382.7277,370.3299 M392.4348,355.8992c-6.8656,1.1115-11.4688-1.7775-12.6863-3.6322
			c-0.0944-0.1437-0.2184-0.2429-0.3654-0.3031c-1.3596,1.3143-2.3534,3.3485-2.6022,5.5322
			c-0.0328,0.2879-0.0548,0.6076-0.0606,0.9529C382.4883,360.5699,390.6403,357.8501,392.4348,355.8992 M402.4997,351.6192
			c1.7376-0.9489,4.4349-2.8697,4.4349-4.4358c-0.6504-0.7338-2.4291-1.2675-4.8696-0.3133
			c-3.9205,1.5325-9.9678,5.2766-18.9332,3.749C387.7648,355.1424,396.3596,354.9725,402.4997,351.6192 M418.8484,331.2704
			c0,0-2.605,7.3482-6.4354,9.5656c-0.6522,7.4586-8.2176,14.5716-17.6529,14.9573c-4.9684,4.919-12.5522,5.4915-17.9195,4.41
			c0.404,2.6261,1.943,6.0587,6.4896,9.2746c3.6032,2.5486,5.3035,4.7253,5.0534,6.4697c-0.1356,0.9458-0.8451,1.6847-1.9977,2.0807
			c-1.812,0.6226-4.2552,0.2689-5.3361-0.7715l-0.0969-0.0934l-0.0397-0.129c-0.0493-0.1604-0.0989-0.3588-0.1561-0.5887
			c-0.375-1.5078-1.1555-4.6451-4.7116-8.7205c-2.7484-3.1501-3.6965-6.588-4.5247-9.6279c-0.5887-0.463-0.95-0.9521-1.0222-1.4347
			c-4.1741,3.6525-20.6097,3.3046-20.0878-1.3042c-6.7829,0.6087-12.6093-4.5219-14.6962-10.6092
			c-11.2177-8.7315-19.4353-41.9593,12.2614-50.0466c15.1309-9.9134,22.2399-4.4119,22.2399-4.4119
			c7.9569-4.9568,18.1094-2.9784,21.9358,1.3262c6.5343-1.435,16.218,2.6521,17.5222,9.8264
			C416.0654,303.1825,423.283,315.8787,418.8484,331.2704"/>
		<path id="path1275" inkscape:connector-curvature="0" style="fill:#F29A1F;" d="M389.0727,345.3364
			c-1.1113,0.5133-2.2151,0.8859-3.38,1.1826c-1.1649,0.2952-2.3525,0.4749-3.5404,0.5252
			c-0.4417,0.0185-0.8835,0.019-1.3236-0.0006c-0.3087-0.0135-0.353-0.4516-0.0516-0.521c1.9345-0.445,3.7374-1.1017,5.4276-2.1624
			c1.2845-0.8058,2.5653-1.5611,3.6441-2.6957c1.868-2.2169,3.4274-5.0871,4.7145-8.2796c0.9003,0.4781,1.7852,0.9538,2.631,1.4159
			c-0.0315,0.0391-0.0604,0.0799-0.0918,0.1189c0.0338-0.0374,0.0656-0.0769,0.0992-0.1148c0.5952,0.3253,1.1714,0.6438,1.72,0.9512
			l0.1643,0.0921l0.1064-0.0971c0.0165,0.0065,0.0335,0.014,0.05,0.02c-2.1814,2.9307-4.3601,5.3744-6.1922,6.901
			c-0.2141,0.1783-0.4183,0.3451-0.6156,0.5022h0.0003C390.907,344.4559,390.3747,344.7347,389.0727,345.3364 M365.4389,290.7202
			l-0.6337,0.0363c-0.4219,0.0289-0.8441,0.0399-1.2635,0.0832l-1.2513,0.1708c-1.6559,0.2834-3.2704,0.7657-4.7538,1.5018
			c-0.0474,0.0236-0.0936,0.0495-0.141,0.0736c-0.6818,0.3455-1.3342,0.7423-1.951,1.1864
			c-0.9893,0.9121-1.8562,1.9413-2.596,3.0354c-1.1631,1.7164-2.0312,3.5889-2.6789,5.5108
			c-0.1888,0.5586-0.3581,1.122-0.5133,1.6883c-0.5232-0.2761-0.9481-0.5947-1.2832-0.8466
			c-0.4651-0.35-0.7456-0.5617-1.0146-0.3914c-0.3362,0.2129-0.2641,0.7234,0.2528,3.2337c0.17,0.8257,0.6159,1.6472,1.158,2.3491
			c-0.2709,1.9385-0.4012,3.8894-0.3977,5.8359c0.0052,2.6977,0.2396,5.3876,0.6916,8.0355
			c-2.8831-0.3857-5.7292-0.4483-7.9431,0.1148c-1.0436-6.602-0.2865-13.0427,2.2902-17.242
			c3.0465-4.9652,6.1899-8.5235,9.0097-10.295c0.1101-0.0969,0.2197-0.1944,0.3326-0.2886
			c1.3381-1.1324,2.8482-2.0675,4.4642-2.7141c1.6147-0.652,3.3194-1.0174,5.0245-1.1757l1.2815-0.0754
			c0.4266-0.0111,0.8541,0.0102,1.28,0.014l0.6385,0.0126l0.6359,0.058l1.2687,0.1159l-1.2726-0.0182L365.4389,290.7202z
			 M344.3237,346.356c0.3691,0.0211,0.7196,0.075,1.0654,0.1356c0.3479,0.0521,0.6902,0.1071,1.0264,0.1765
			c0.3401,0.0475,0.6731,0.1186,1.0057,0.1713c0.333,0.0462,0.6621,0.1138,0.9908,0.1434c0.6557,0.081,1.308,0.1404,1.9435,0.09
			c0.3183-0.0235,0.6296-0.0748,0.9371-0.1675c0.2963-0.107,0.6075-0.2337,0.7921-0.5493c0.0359,0.1899-0.051,0.3792-0.1446,0.5524
			c-0.0542,0.0787-0.1124,0.1615-0.1777,0.2357c-0.0681,0.0688-0.1401,0.1366-0.2135,0.2053
			c-0.3068,0.2439-0.6653,0.4141-1.0323,0.5279c-0.7396,0.2263-1.5051,0.2324-2.233,0.1407
			c-0.1815-0.0287-0.367-0.0424-0.5435-0.0874c-0.1774-0.0424-0.3554-0.081-0.5316-0.1269
			c-0.1779-0.0408-0.3464-0.1062-0.5175-0.1645c-0.171-0.059-0.3405-0.121-0.5079-0.1872c-0.3279-0.1502-0.6536-0.3028-0.966-0.4802
			C344.9097,346.7819,344.6074,346.5854,344.3237,346.356 M341.0608,300.6598c1.3483-0.9656,2.8253-1.76,4.3932-2.3469
			c-1.6081,0.4624-3.162,1.1459-4.607,2.0192c-1.4517,0.8645-2.7975,1.9095-4.0409,3.0652
			c-1.2433,1.1573-2.377,2.4365-3.3914,3.8146c-0.0572,0.078-0.1124,0.1571-0.1684,0.2355
			c-7.0601,7.8442-4.1813,26.851,4.8308,35.7367c7.6281,7.5213,20.4645,6.6526,13.2902,1.9566
			c-3.5726-2.3385-6.2225-5.5004-8.1712-9.0324c-0.1795,0.1001-0.3548,0.1978-0.5246,0.293c0,0-8.3444-9.619-3.7252-13.1081
			c-1.0456-6.1966-0.8882-12.0087-0.4924-15.458c0,0-0.1172-0.9476-0.5624-1.6963c-0.3422,0.456-0.6662,0.9282-0.9684,1.416
			c-0.925,1.4944-1.6676,3.1204-2.249,4.8076c-1.1583,3.3805-1.6917,6.9996-1.6464,10.6109
			c0.0513,3.6105,0.6883,7.2405,2.0431,10.6169c0.6778,1.6854,1.5384,3.3035,2.5925,4.7938
			c1.0529,1.4905,2.3013,2.8506,3.7202,4.0173c-1.4723-1.0981-2.7937-2.4052-3.9296-3.8612
			c-1.1371-1.4562-2.0902-3.058-2.8623-4.7435c-1.5443-3.3761-2.3776-7.0653-2.6068-10.7842
			c-0.2218-3.7216,0.1455-7.4981,1.1974-11.1228c0.5294-1.8102,1.2353-3.5824,2.1646-5.257
			c0.1851-0.333,0.3821-0.6609,0.5858-0.9857c0.4518-0.5849,0.9276-1.1527,1.429-1.6982c0.5419-0.589,1.1112-1.1553,1.708-1.6922
			C339.7017,301.6877,340.3642,301.152,341.0608,300.6598 M406.3131,340.153c-0.2611,0.6328-0.6982,1.1861-1.1583,1.6947
			c-0.4684,0.5052-0.9868,0.9589-1.5257,1.3813c-1.0812,0.8426-2.2545,1.5498-3.4707,2.1646
			c-1.221,0.6057-2.4876,1.1241-3.8071,1.4922c-0.3279,0.09-0.659,0.1718-0.9933,0.2405c-0.3386,0.0695-0.6808,0.1255-1.0268,0.1627
			c-0.3452,0.0276-0.6904,0.0552-1.0392,0.028c-0.3433-0.0233-0.7043-0.0736-1.0012-0.2517c0.334,0.067,0.6639,0.0223,0.986-0.0354
			c0.322-0.0579,0.6406-0.1431,0.9542-0.2406c0.6284-0.1956,1.2458-0.4283,1.8568-0.6776c0.5139-0.2086,1.0224-0.4316,1.5277-0.6611
			c0.6976-0.3169,1.3891-0.6483,2.0749-0.9891c1.1783-0.5979,2.3457-1.2194,3.4716-1.9069
			c0.5635-0.3427,1.1173-0.7012,1.6512-1.0889C405.3503,341.0789,405.8568,340.6578,406.3131,340.153 M416.0294,315.6461
			c-0.042,0.3214-0.0883,0.642-0.1385,0.961c-0.4066,2.5385-1.0627,5.0171-1.9328,7.4111
			c-0.8759,2.3906-1.9546,4.7061-3.3004,6.8592c-0.6745,1.0744-1.4178,2.1068-2.2554,3.0573
			c-0.8352,0.9497-1.7862,1.8078-2.8584,2.4664c1.0244-0.732,1.9001-1.6412,2.6572-2.6324c0.7589-0.992,1.4175-2.0553,2.0052-3.1532
			c1.1721-2.2004,2.069-4.5366,2.7597-6.9206c0.6852-2.3862,1.1515-4.8305,1.3712-7.2802c0.1654-1.8841,0.1816-3.781-0.0248-5.6254
			c-0.9166-1.781-1.7811-2.3859-2.0297-1.1285c-0.859,4.3427-2.923,23.5193-19.5891,35.7666
			c-2.2746,1.5091-4.6173,1.9802-6.1512,2.4687c-0.6248,0.1794-1.4142,0.4599-2.1212,0.6534
			c-0.3664,0.1003-0.3123,0.6344,0.0668,0.6599c0.8258,0.0552,1.6521,0.0643,2.2694,0.0417
			c2.9204-0.1151,6.081-0.8268,7.6775-1.1888c0.1807-0.0375,0.3667-0.0797,0.5565-0.1249c0.0137-0.003,0.0286-0.0062,0.0418-0.0092
			c0.1216-0.0266,0.2001-0.0465,0.2463-0.0609c5.159-1.303,13.284-5.2771,18.1118-12.3387
			C417.6756,329.2618,417.3903,321.2251,416.0294,315.6461 M402.5126,302.6695c-0.2987-0.1718-0.6126,0.0879-1.088,0.4807
			c-0.3995,0.33-0.9337,0.7699-1.5905,1.0789c0.0408-3.8333,2.7548-4.2755,5.4087-2.5985c0.5198,0.9162,0.8889,1.9547,1.1246,3.0407
			c0.2996,1.4409,0.3923,2.9534,0.3542,4.4704c-0.0392,1.519-0.2089,3.0467-0.4659,4.5638
			c-0.2581,1.5176-0.6022,3.0269-1.0222,4.5178c-0.5414,1.925-1.1927,3.8239-1.943,5.6862
			c-1.1122-0.6525-3.1055-1.204-5.4803-1.4774c0.9362-4.3697,1.5116-8.6785,1.7998-12.2701
			c1.0994-0.4964,2.4726-1.9152,2.8365-4.1705C402.8775,303.3191,402.8458,302.8601,402.5126,302.6695 M404.3997,327.8609
			c0.0734-1.1861,0.0137-2.2544-0.1809-2.996c-0.0469-0.1791-0.1673-0.3565-0.3485-0.5303c0.891-1.8857,1.6816-3.8218,2.3602-5.8026
			c0.5122-1.496,0.9514-3.0207,1.3045-4.5715c0.3521-1.5509,0.6185-3.1292,0.7497-4.7348c0.1055-1.3143,0.1201-2.649-0.0125-3.9914
			c-0.0408-0.2039-0.084-0.4075-0.1326-0.6096c-0.4134-1.6978-1.1263-3.3282-2.1445-4.7682
			c-0.0548-0.0774-0.1069-0.1568-0.1635-0.2332c-0.5541-0.7466-1.1884-1.4365-1.8807-2.0687
			c-0.688-0.6394-1.4611-1.1843-2.2542-1.6984c-1.6084-0.9971-3.3716-1.761-5.1972-2.3293c1.8598,0.4432,3.6837,1.086,5.3939,1.9909
			c0.217,0.107,0.4196,0.2399,0.6305,0.3591c0.209,0.1222,0.4203,0.2414,0.6189,0.3813l0.6052,0.4062l0.5815,0.4417
			c0.7629,0.6063,1.4767,1.2827,2.1153,2.0309c1.2781,1.4973,2.2272,3.2819,2.825,5.1711c0.2973,0.9458,0.5086,1.9172,0.6552,2.8946
			c0.0698,0.4886,0.1263,0.9789,0.169,1.4659l0.059,0.7216c0.0012,0.0139,0.0021,0.0286,0.0034,0.0427
			c0.1291,0.8262,0.1729,1.691,0.1115,2.5864C409.9624,316.4818,407.5363,322.349,404.3997,327.8609 M389.665,304.1225
			c-0.9768-1.1951-2.084-2.5499-3.3656-3.1534c-0.3998-0.1884-0.7497-0.1979-1.0397-0.0266
			c-0.7178,0.4232-0.8084,1.8114-0.9041,3.2808c-0.0634,0.9717-0.1421,2.1808-0.465,2.4234
			c-0.0325,0.0244-0.0782,0.0468-0.1681,0.0266c-0.8158-0.1794-2.0991-2.2324-3.1305-3.8822
			c-1.1521-1.843-1.8893-2.9812-2.5061-3.1576c-0.1502-0.0432-0.3028-0.0212-0.4403,0.0638
			c-0.5344,0.3285-0.8152,1.6165-1.2141,3.6981c-0.2241,1.169-0.5989,3.1254-0.9315,3.2294
			c-0.435-0.1843-0.9973-1.9876-1.4075-3.3041c-0.4049-1.2984-0.7596-2.4353-1.1655-3.0983
			c0.4519-1.4044,0.9844-2.7764,1.6187-4.0858c0.4143-0.879,0.9024-1.71,1.4221-2.5059c0.4292-0.6293,0.8991-1.2165,1.4043-1.7509
			c4.0688-1.5715,7.7273-0.4471,10.6969,1.906l-0.088,0.0662c0.5175,0.6708,0.9534,1.4425,1.3391,2.25
			c0.1718,0.4174,0.3681,0.8224,0.5124,1.257l0.232,0.6436l0.2023,0.6587c0.5312,1.7619,0.8728,3.6033,1.0863,5.4627
			c0.0709,0.6247,0.1273,1.2517,0.1715,1.8805C391.0244,305.7809,390.3344,304.9416,389.665,304.1225 M371.2531,300.177
			c-0.4767,0.5334-1.0466,1.4264-1.7892,2.6142c-1.0311,1.6497-2.3143,3.7028-3.1303,3.8822
			c-0.0667,0.015-0.089-0.0038-0.1037-0.0161c-0.2834-0.2337-0.2934-1.429-0.2704-2.5621c0.9219-2.2068,2.1504-4.3043,3.7565-6.2171
			c1.26-1.5008,2.5006-2.715,3.7159-3.6783c-0.1943,0.3877-0.3786,0.7783-0.5453,1.1751
			C372.2097,296.9418,371.6809,298.5501,371.2531,300.177 M393.5807,301.2713c-0.0992-0.1055-0.3988-0.4263-0.7374-0.2981
			c-0.0932,0.0352-0.1684,0.0969-0.2307,0.1828c-0.1454-0.9968-0.3359-1.9908-0.5849-2.9784l-0.0181-0.0704
			c0.8256,1.2072,1.5342,2.4824,2.1114,3.7485c-0.0351-0.0381-0.0701-0.076-0.1049-0.1139
			C393.8684,301.581,393.7231,301.4233,393.5807,301.2713 M387.92,329.3058c1.7394,0.792,3.2654,1.6249,4.6104,2.425
			c-1.5828-0.8232-3.174-1.6336-4.6416-2.3638C387.8991,329.3465,387.9096,329.3265,387.92,329.3058 M387.5664,329.1469
			c-0.0074,0.0161-0.0152,0.0327-0.0226,0.0488c-0.3195-0.1582-0.632-0.3121-0.9365-0.4612
			C386.9337,328.8702,387.2535,329.0078,387.5664,329.1469 M371.2812,339.9665c0.978,1.1136,2.1469,1.971,3.4447,2.4837
			c1.2928,0.5235,2.6962,0.6954,4.0773,0.593c1.3846-0.1041,2.7502-0.4889,4.043-1.0734c1.3021-0.576,2.507-1.3806,3.6962-2.2642
			c-0.8787,1.1921-2.0065,2.2263-3.3178,2.9922c-1.3077,0.7658-2.7996,1.272-4.3438,1.3858
			c-1.5384,0.1156-3.1326-0.1622-4.4995-0.8919C373.016,342.4701,371.8924,341.3213,371.2812,339.9665 M363.6068,317.0734
			c0.0203,11.2286,4.3006,21.8733,5.8799,24.0764c4.3244,6.0336,13.1861,4.643,18.6647-0.705
			c1.7902-1.7476,3.2363-4.6537,4.373-8.1318c-1.6773-0.8737-3.35-1.7251-4.8745-2.4828c-1.235,2.3513-2.7037,4.5742-4.4398,6.571
			c1.6431-2.0741,2.9999-4.3487,4.1162-6.7312c-2.6368-1.3044-4.7882-2.3042-5.6752-2.6067
			c-0.1962-0.0668-0.3098-0.1756-0.3378-0.3229c-0.0148-0.079-0.0135-0.2335,0.1633-0.3836c0.1663-0.141,0.5605-0.304,1.1313-0.4681
			c1.8907-1.7208,4.5055-2.7307,7.2664-3.2342c0.1491-0.5536,0.2894-1.1098,0.4198-1.6676c0.429-1.8446,0.7547-3.7115,0.9803-5.5882
			c0.1002-0.8343,0.1792-1.6711,0.239-2.5089c-0.1148-0.2334-0.2317-0.4763-0.3513-0.7258
			c-0.506-1.0549-1.1354-2.3683-1.5869-2.5411c-0.46,0.3201-0.0143,4.3002,0.5202,6.728c0.0919,0.4179-0.1345,0.5801-0.2364,0.6302
			c-0.9932,0.491-5.4558-2.8948-5.4893-2.9346c-0.0301-0.0357-0.0617-0.0546-0.1284-0.0473
			c-0.7389,0.0834-2.4839,2.4896-3.2998,4.0709c-0.873,1.6923-1.3554,2.2774-1.8461,2.2399
			c-0.5225-0.0409-0.7495-0.7262-1.1256-1.8613c-0.181-0.5467-0.3863-1.1665-0.6617-1.8255
			c-0.9775-2.3415-1.7925-2.8422-2.3102-2.8422c-0.0066,0-0.0134,0.0001-0.0199,0.0001c-0.7682,0.0194-1.5892,1.1378-2.3123,3.1489
			c-0.6463,1.798-1.2392,2.6699-1.8497,2.7195c0.143,1.9006,0.392,3.7944,0.7556,5.6681c0.7663,3.9195,2.0341,7.7792,4.0614,11.262
			c-2.1766-3.3919-3.6262-7.2242-4.5714-11.1514c-0.4707-1.9674-0.8179-3.9661-1.0459-5.9797
			c-0.0129-0.1157-0.022-0.2322-0.0341-0.3482c-0.1233-0.2107-0.2343-0.4809-0.3332-0.8148
			c-0.1246-0.4203-0.2288-1.0227-0.3394-1.6601c-0.2254-1.2987-0.5651-3.2611-1.1841-3.4503
			c-0.2435-0.0737-0.5576,0.1831-0.7773,0.4123c-0.105,0.1096-1.6504,1.6129-3.2291,3.0307
			C363.9384,316.7795,363.769,316.93,363.6068,317.0734 M390.6537,322.5256c0.1386-0.446,0.2713-0.894,0.3983-1.3435
			c0.5208-1.852,0.9386-3.7345,1.2555-5.6357c0.0575-0.3458,0.1103-0.6922,0.1612-1.0388c0.2338,0.2824,0.472,0.4662,0.7238,0.505
			c0.284,0.0443,0.5714-0.0837,0.8505-0.3791c0.9825-1.0403,1.8431-4.221,1.5346-5.6725c-0.0203-0.0948-0.0568-0.3189,0.0374-0.3565
			c0.0677-0.0271,0.1634-0.0254,0.2749-0.0056c0,0.0208,0.0006,0.0415,0.0006,0.0621c0.0005,3.9616-0.3386,8.8155-1.071,13.5879
			C393.4566,322.2368,392.044,322.3204,390.6537,322.5256 M389.9124,352.1845c1.4868-0.0123,2.9431-0.0343,4.3873-0.1699
			c1.4433-0.124,2.869-0.3425,4.2707-0.6561c1.3995-0.3207,2.7769-0.7375,4.093-1.3018c0.6567-0.2835,1.3017-0.5998,1.8998-0.9908
			c0.3004-0.1919,0.5923-0.4018,0.8553-0.6436c0.2621-0.242,0.5044-0.5116,0.6674-0.8472c-0.0509,0.3717-0.234,0.7229-0.4489,1.0368
			c-0.2158,0.3186-0.4846,0.591-0.7577,0.8573c-0.5634,0.5132-1.189,0.9544-1.8505,1.3221
			c-1.3236,0.7389-2.7603,1.2505-4.2278,1.5847c-1.4698,0.3279-2.9755,0.4834-4.4732,0.4558
			C392.8307,352.8033,391.3393,352.603,389.9124,352.1845 M383.1318,350.619c4.6331,4.5234,13.2279,4.3536,19.3679,1.0003
			c1.7376-0.9491,4.4349-2.8699,4.4349-4.4359c-0.6504-0.7336-2.4294-1.2675-4.8696-0.3133
			C398.1444,348.4026,392.0971,352.1466,383.1318,350.619 M377.2596,356.9357c0.4906,0.2417,0.9843,0.4057,1.4956,0.5097
			c0.5078,0.1096,1.0201,0.1808,1.5357,0.2242c1.0316,0.087,2.0699,0.0838,3.1076,0.0272c1.0377-0.0585,2.075-0.1676,3.1129-0.3228
			c1.0394-0.1557,2.0728-0.3619,3.14-0.5888c-0.896,0.6268-1.912,1.0677-2.9585,1.3891c-1.0499,0.3147-2.1394,0.5041-3.2384,0.5642
			c-1.0982,0.059-2.2115-0.0114-3.2947-0.2618c-0.5402-0.1284-1.0734-0.3043-1.5751-0.5511
			C378.0876,357.6773,377.6086,357.3607,377.2596,356.9357 M376.7809,357.4961c-0.0328,0.2879-0.0548,0.6077-0.0606,0.9529
			c5.768,2.1209,13.92-0.5991,15.7145-2.5498c-6.8656,1.1115-11.4688-1.7776-12.6863-3.6322
			c-0.0944-0.1437-0.2184-0.2429-0.3654-0.3032C378.0235,353.2784,377.0297,355.3125,376.7809,357.4961 M356.7479,356.8801
			c0.5306,0.042,1.0414,0.0335,1.5524,0.0004c0.51-0.0325,1.0157-0.0864,1.5194-0.1542c1.007-0.1333,2.0042-0.3219,2.989-0.5491
			c0.984-0.228,1.9563-0.5026,2.8891-0.8633c0.4658-0.1812,0.9202-0.3875,1.3464-0.643c0.431-0.252,0.8148-0.569,1.1056-1.0165
			c-0.0378,0.2621-0.1351,0.5258-0.2767,0.7628c-0.1407,0.2375-0.3186,0.4525-0.5098,0.6508
			c-0.3879,0.3935-0.8403,0.7106-1.3095,0.9824c-0.9455,0.5362-1.9676,0.9002-3.0081,1.1428
			c-1.0417,0.2421-2.1089,0.3684-3.1794,0.3524c-0.535-0.0098-1.071-0.0537-1.5995-0.1534
			C357.7412,357.2898,357.2141,357.1405,356.7479,356.8801 M353.4981,356.7499c8.1601,2.3474,14.7393-0.5368,15.6525-2.1307
			c0.9133-1.5936-1.9999-4.5219-3.5654-2.8261C364.02,353.4889,359.6729,356.8801,353.4981,356.7499 M346.2148,352.4452
			c1.2299,0.2794,2.4278,0.5017,3.6336,0.6122c1.2032,0.113,2.4076,0.1248,3.6015,0.016c1.1936-0.1063,2.3781-0.315,3.5312-0.6519
			c0.2876-0.0862,0.5696-0.1877,0.858-0.279l0.4189-0.1679c0.1412-0.0549,0.2846-0.1068,0.4176-0.1762l0.4131-0.1929
			c0.1409-0.0618,0.2616-0.1511,0.3991-0.2213c0.2773-0.1393,0.5125-0.3314,0.7819-0.504c-0.1839,0.2504-0.37,0.5182-0.6061,0.7315
			c-0.1139,0.1111-0.2245,0.2316-0.3511,0.3279l-0.3782,0.2978c-0.1246,0.1038-0.2626,0.184-0.3974,0.2706l-0.4106,0.2542
			c-0.2838,0.1469-0.5697,0.2964-0.8633,0.4271c-1.1798,0.5099-2.4453,0.8093-3.7224,0.9237
			c-1.2777,0.118-2.5726,0.0302-3.8189-0.2447C348.4771,353.5896,347.2748,353.1258,346.2148,352.4452 M339.8885,349.2575
			c2.8124,4.0217,16.8593,9.695,22.1241,0.2623c0.8281-1.4836-1.7805-1.647-5.6887-0.2006
			C352.3133,350.804,347.2187,352.9571,339.8885,349.2575 M354.3408,297.8608c1.1018-1.4838,2.4345-2.7678,3.9602-3.7148
			c0.8591,0.5466,1.6021,1.4615,2.1972,2.7754c0.567,1.2525,0.8376,3.1303,0.9467,5.4145
			c-0.2821,0.3795-0.5583,0.7654-0.8254,1.1396c-0.8874,1.2416-1.8896,2.6441-2.3698,2.5856
			c-0.4099-0.0548-0.4605-1.6991-0.4906-2.6818c-0.0454-1.4624-0.0898-2.2335-0.5467-2.4061
			c-0.3374-0.1285-0.6382,0.1926-0.7369,0.2981c-0.149,0.1588-0.3007,0.3242-0.455,0.4925
			c-1.322,1.4413-2.8204,3.0742-4.6641,2.8085c-0.1025-0.015-0.2019-0.0336-0.2997-0.054c0.1788-0.5615,0.3718-1.1175,0.5842-1.6649
			C352.3314,301.0662,353.2206,299.3647,354.3408,297.8608 M359.2757,344.943c0.9786,0.1956,1.9602,0.3353,2.9397,0.3872
			c0.9771,0.05,1.9587,0.0301,2.8906-0.1735c0.465-0.1023,0.9179-0.2521,1.3191-0.4987c0.2065-0.1175,0.3869-0.271,0.5582-0.4445
			l0.1225-0.1374c0.0393-0.048,0.0706-0.1008,0.1075-0.1518c0.0828-0.0993,0.1266-0.2173,0.1982-0.3306
			c-0.0132,0.5237-0.2647,1.0663-0.6617,1.4613c-0.391,0.4074-0.8903,0.6865-1.4007,0.8855
			c-1.032,0.3932-2.1284,0.4872-3.191,0.4314c-1.0662-0.058-2.1126-0.2834-3.1049-0.642c-0.9899-0.361-1.9326-0.8656-2.7292-1.5457
			C357.326,344.4834,358.2939,344.7511,359.2757,344.943 M361.4899,326.9229c-1.7664,0.7242-5.5736,2.5854-9.5305,4.6331
			c0.6636,1.8506,1.4711,3.6507,2.4482,5.367c-1.0472-1.6638-1.933-3.4248-2.6804-5.247c-2.1365,1.1078-4.3033,2.263-6.2054,3.3172
			c3.2662,5.6627,8.1744,10.2199,14.7156,11.8432c3.9265,0.9745,12.3918,0.3914,4.9566-8.3484
			C362.9574,335.8592,361.9254,331.6754,361.4899,326.9229 M360.0694,318.7793c0.3798-1.7245-0.0844-8.3459-0.7559-8.6058
			c-0.4307,0.1565-0.7595,1.3306-1.0234,2.2738c-0.3682,1.3154-0.686,2.4512-1.4263,2.5653
			c-0.2847,0.0441-0.5717-0.0837-0.8504-0.3791c-0.983-1.0403-1.8436-4.221-1.5349-5.6725
			c0.0202-0.0948,0.0567-0.3188-0.0378-0.3565c-0.4585-0.1819-2.1265,0.8385-2.4803,1.4166
			c-0.08,0.1303-0.2788,0.3389-0.7103,0.2629c-0.3737-0.0653-0.8638-0.3459-1.3644-0.7639
			c-0.2468,1.5488-0.404,3.1162-0.4706,4.6899c-0.1138,2.7019,0.0069,5.4201,0.3571,8.1136
			c3.5883,0.543,7.1549,1.5464,9.5515,2.4278c0.8364,0.2414,1.5377,0.4864,2.0511,0.7101
			c-0.1383-2.0943-0.1774-4.2752-0.1655-6.4651c-0.6785,0.44-0.8392,0.3556-0.9643,0.2891
			C360.1681,319.2444,359.9961,319.1124,360.0694,318.7793"/>
		<path id="path1277" inkscape:connector-curvature="0" style="fill:#FFFFFF;" d="M406.3131,340.153
			c-0.4563,0.5047-0.9628,0.9262-1.4999,1.3125c-0.5339,0.3876-1.0877,0.7462-1.6512,1.0887
			c-1.1259,0.6876-2.2934,1.3092-3.4716,1.9069c-0.6857,0.341-1.3771,0.6724-2.0749,0.9893
			c-0.5053,0.2295-1.0138,0.4525-1.5277,0.6612c-0.6109,0.2491-1.2284,0.4818-1.8568,0.6773
			c-0.3136,0.0978-0.6322,0.1831-0.9542,0.2409c-0.322,0.0575-0.6519,0.102-0.986,0.0353c0.2972,0.1782,0.6579,0.2283,1.0012,0.2515
			c0.3488,0.0274,0.694-0.0003,1.0392-0.028c0.3459-0.037,0.6881-0.0931,1.0267-0.1625c0.3344-0.0686,0.6654-0.1506,0.9933-0.2406
			c1.3194-0.368,2.5861-0.8864,3.8071-1.4919c1.2162-0.615,2.3895-1.3221,3.4707-2.1647c0.5389-0.4224,1.0573-0.8761,1.5258-1.3816
			C405.6148,341.3391,406.052,340.7857,406.3131,340.153 M378.7553,357.4454c-0.5114-0.104-1.0051-0.2682-1.4956-0.5097
			c0.349,0.4251,0.8279,0.7417,1.3251,0.9899c0.5017,0.2468,1.0349,0.4227,1.5751,0.5511c1.0832,0.2504,2.1965,0.321,3.2947,0.2617
			c1.099-0.0601,2.1885-0.2494,3.2384-0.564c1.0464-0.3216,2.0625-0.7622,2.9585-1.3893c-1.0672,0.2269-2.1006,0.4333-3.14,0.5888
			c-1.0379,0.1553-2.0752,0.2643-3.1129,0.3228c-1.0378,0.0567-2.0761,0.0598-3.1076-0.0272
			C379.7754,357.6262,379.263,357.555,378.7553,357.4454 M356.748,356.8802c0.4661,0.2602,0.9932,0.4095,1.5187,0.5122
			c0.5285,0.0995,1.0645,0.1431,1.5995,0.153c1.0705,0.0163,2.1378-0.1101,3.1794-0.3526c1.0406-0.2423,2.0627-0.6064,3.0081-1.1428
			c0.4692-0.2716,0.9215-0.5888,1.3095-0.9821c0.1913-0.1985,0.3691-0.4134,0.5098-0.651c0.1416-0.237,0.239-0.5005,0.2767-0.7629
			c-0.2907,0.4475-0.6746,0.7646-1.1056,1.0168c-0.4262,0.2552-0.8806,0.4618-1.3464,0.6429
			c-0.9329,0.3607-1.9051,0.6353-2.8891,0.8633c-0.9849,0.2271-1.982,0.4156-2.989,0.5491
			c-0.5037,0.0677-1.0094,0.1216-1.5194,0.1544C357.7892,356.9138,357.2785,356.9222,356.748,356.8802 M349.8484,353.0572
			c-1.2058-0.1103-2.4037-0.3324-3.6336-0.612c1.06,0.6806,2.2622,1.1444,3.5069,1.4227c1.2463,0.2751,2.5412,0.363,3.8189,0.2447
			c1.277-0.1144,2.5426-0.4135,3.7224-0.9235c0.2936-0.1306,0.5795-0.2802,0.8633-0.4271l0.4107-0.254
			c0.1348-0.0869,0.2728-0.1669,0.3974-0.2707l0.3782-0.2977c0.1266-0.0963,0.2372-0.217,0.3511-0.3279
			c0.2361-0.2132,0.4225-0.4812,0.6061-0.7316c-0.2694,0.1725-0.5046,0.3646-0.7819,0.504
			c-0.1375,0.0703-0.2582,0.1594-0.3991,0.2212l-0.4131,0.1929c-0.133,0.0694-0.2765,0.1216-0.4176,0.1762l-0.4186,0.1679
			c-0.2888,0.0915-0.5708,0.1931-0.8584,0.2791c-1.1531,0.3369-2.3376,0.5458-3.5312,0.6519
			C352.256,353.1819,351.0517,353.1702,349.8484,353.0572 M394.2997,352.0146c-1.4442,0.1357-2.9005,0.1574-4.3873,0.1697
			c1.4269,0.4186,2.9183,0.6191,4.4155,0.6474c1.4978,0.0277,3.0035-0.1279,4.4733-0.4558
			c1.4675-0.3341,2.9042-0.8457,4.2278-1.5847c0.6615-0.3676,1.2871-0.809,1.8505-1.3218c0.2731-0.2665,0.5419-0.539,0.7577-0.8573
			c0.2149-0.3139,0.398-0.665,0.4489-1.0371c-0.163,0.3357-0.4053,0.6054-0.6674,0.8474c-0.2631,0.2417-0.555,0.4516-0.8554,0.6439
			c-0.5981,0.3907-1.2431,0.7068-1.8998,0.9905c-1.3161,0.5645-2.6935,0.9813-4.093,1.3017
			C397.1687,351.6721,395.743,351.8907,394.2997,352.0146 M366.7498,345.0551c0.397-0.3953,0.6484-0.9377,0.6617-1.4616
			c-0.0717,0.1135-0.1154,0.2314-0.1982,0.3308c-0.0369,0.051-0.0681,0.1038-0.1074,0.1518l-0.1225,0.1375
			c-0.1713,0.1736-0.3517,0.3268-0.5581,0.4444c-0.4012,0.2465-0.8542,0.3964-1.3192,0.4987
			c-0.9319,0.2035-1.9135,0.2234-2.8906,0.1733c-0.9795-0.0519-1.9611-0.1916-2.9397-0.387
			c-0.9818-0.1919-1.9497-0.4596-2.9517-0.7589c0.7965,0.68,1.7393,1.1846,2.7292,1.5456c0.9923,0.3588,2.0387,0.584,3.1049,0.642
			c1.0626,0.0558,2.159-0.0382,3.191-0.4313C365.8598,345.7413,366.3588,345.4625,366.7498,345.0551 M345.3892,346.4915
			c-0.3458-0.0606-0.6963-0.1142-1.0654-0.1353c0.2837,0.2293,0.586,0.4259,0.8933,0.6156c0.3124,0.1774,0.638,0.3302,0.9659,0.4803
			c0.1673,0.0661,0.3369,0.1282,0.5079,0.1869c0.1711,0.0585,0.3397,0.1238,0.5175,0.1645c0.1762,0.0461,0.3542,0.0846,0.5316,0.127
			c0.1765,0.0449,0.3621,0.0586,0.5435,0.0874c0.728,0.0915,1.4934,0.0858,2.233-0.1405c0.367-0.1141,0.7255-0.2843,1.0323-0.5282
			c0.0735-0.0686,0.1454-0.1365,0.2136-0.2051c0.0653-0.074,0.1235-0.1571,0.1777-0.2357c0.0936-0.1734,0.1806-0.3624,0.1446-0.5523
			c-0.1847,0.3152-0.4958,0.4423-0.7918,0.549c-0.3077,0.0929-0.6191,0.144-0.9374,0.1678
			c-0.6355,0.0503-1.2878-0.0092-1.9435-0.0903c-0.3286-0.0297-0.6577-0.0972-0.9908-0.1431
			c-0.3326-0.0528-0.6656-0.124-1.0057-0.1715C346.0794,346.5986,345.7371,346.5435,345.3892,346.4915 M371.2812,339.9665
			c0.6111,1.3546,1.7348,2.5037,3.1001,3.2254c1.3669,0.7294,2.9611,1.0074,4.4995,0.8916
			c1.5443-0.1136,3.0361-0.6198,4.3438-1.3856c1.3113-0.7661,2.4392-1.8001,3.3178-2.9922c-1.1891,0.8835-2.394,1.6878-3.6962,2.264
			c-1.2928,0.5849-2.6584,0.9694-4.043,1.0735c-1.3811,0.1023-2.7845-0.0697-4.0773-0.593
			C373.4282,341.9372,372.2592,341.0799,371.2812,339.9665 M402.2389,303.1796c-0.1216,0.075-0.3174,0.2367-0.4818,0.3729
			c-0.6548,0.5407-1.6445,1.3584-2.9856,1.5366c-2.1247,0.282-3.7974-1.534-5.1394-2.994
			c-0.1464-0.1595-0.2903-0.3162-0.4319-0.4667c-0.0892-0.0949-0.1472-0.1351-0.1776-0.1517
			c-0.1516,0.2176-0.1829,1.2356-0.2041,1.9188c-0.0485,1.5786-0.0945,3.0693-0.9432,3.1824
			c-0.7893,0.1058-1.5951-0.8787-2.6142-2.1251c-0.9419-1.1524-2.0094-2.4584-3.1841-3.0116
			c-0.3538-0.167-0.5029-0.0781-0.5523-0.0495c-0.4802,0.2832-0.5735,1.7151-0.6486,2.8655
			c-0.0846,1.2983-0.1576,2.4199-0.6721,2.8068c-0.1681,0.1261-0.3737,0.1673-0.5937,0.119
			c-1.0299-0.2265-2.2658-2.2035-3.4608-4.1151c-0.8212-1.3137-1.7518-2.8029-2.2071-2.9326
			c-0.0054-0.0018-0.0084-0.0032-0.0237,0.0063c-0.3771,0.2322-0.7226,2.0354-0.975,3.352c-0.3905,2.0376-0.657,3.301-1.1923,3.5887
			c-0.1439,0.0773-0.2995,0.0847-0.4513,0.0215c-0.6165-0.257-1.0558-1.5421-1.706-3.6281
			c-0.3767-1.2076-1.0803-3.4537-1.4806-3.3404c-0.4554,0.1297-1.3861,1.6189-2.2073,2.9326
			c-1.195,1.9116-2.4308,3.8886-3.4608,4.1151c-0.2054,0.045-0.395,0.0026-0.5479-0.1234
			c-0.4998-0.4123-0.4954-1.6067-0.4471-3.5211c0.0357-1.4167,0.0846-3.3568-0.4103-3.6795
			c-0.0363-0.0236-0.1472-0.096-0.4308,0.0376c-1.1932,0.5616-2.4536,2.3257-3.5656,3.882
			c-1.1563,1.6184-2.0049,2.8059-2.7677,2.8059c-0.0317,0-0.0638-0.0023-0.0954-0.0066c-0.8486-0.1132-0.8946-1.604-0.9434-3.1826
			c-0.0209-0.6832-0.0522-1.701-0.2039-1.9186c-0.0305,0.0165-0.0887,0.0567-0.1776,0.1517
			c-0.1475,0.1573-0.2979,0.321-0.451,0.4882c-1.3394,1.4604-3.005,3.2771-5.1234,2.9719
			c-1.5015-0.2171-2.5784-1.0272-3.2217-1.5113c-0.1285-0.0968-0.2776-0.209-0.3861-0.2787c0.0054,0.446,0.2581,1.6718,0.449,2.5987
			c0.3869,1.8792,2.3692,3.7246,3.2172,3.873c0.0446,0.0077,0.1494,0.0209,0.1756-0.0215c0.4102-0.67,2.3246-1.9453,3.1183-1.629
			c0.1917,0.0764,0.4928,0.3016,0.355,0.9497c-0.2718,1.2771,0.5416,4.2936,1.4034,5.2058c0.0871,0.0918,0.2527,0.2418,0.392,0.2216
			c0.408-0.0629,0.7381-1.2424,1.0034-2.1901c0.342-1.2218,0.6647-2.3757,1.3474-2.6235c0.1837-0.0674,0.3727-0.0272,0.5312,0.1118
			c1.0168,0.891,1.22,7.276,0.9384,8.9623c1.1434-0.5277,5.7442-4.8827,6.3662-5.5312c0.4674-0.4871,0.9071-0.6711,1.3065-0.5501
			c0.9255,0.2829,1.2406,2.1012,1.5456,3.8602c0.1079,0.6219,0.2095,1.2097,0.3257,1.601c0.2152,0.7271,0.4522,0.9908,0.6022,0.9947
			c0.0009,0.0004,0.002,0.0004,0.0032,0.0004c0.1025,0,0.6107-0.1259,1.4206-2.379c0.8242-2.2923,1.7628-3.4677,2.7901-3.4935
			c1.0061-0.0322,1.926,1.0085,2.825,3.1621c0.2827,0.6775,0.4913,1.3071,0.6754,1.8625c0.2086,0.6295,0.4942,1.4913,0.671,1.5053
			c0.0734,0.0027,0.3922-0.1183,1.3419-1.959c0.5751-1.1146,2.5212-4.2164,3.7049-4.35c0.2331-0.0271,0.4364,0.0527,0.5763,0.2188
			c0.3932,0.3804,4.1535,2.9359,4.8355,2.822c-0.0008-0.0139-0.0033-0.0331-0.0089-0.0587c-0.014-0.0632-1.3313-6.377-0.3559-7.2315
			c0.1457-0.1277,0.3323-0.1598,0.5253-0.0894c0.6494,0.2358,1.2183,1.4221,1.8773,2.7961c0.5037,1.051,1.1939,2.4902,1.6391,2.5587
			c0.1418,0.0208,0.3052-0.1299,0.392-0.2216c0.8618-0.9122,1.675-3.9287,1.4037-5.2058c-0.1378-0.6481,0.1633-0.8733,0.3547-0.9497
			c0.7956-0.316,2.7084,0.959,3.1188,1.629c0.0545,0.0895,0.2304,0.1176,0.4579,0.0721c0.987-0.1949,2.5496-1.5375,2.9325-3.9124
			C402.0452,305.2027,402.299,303.6291,402.2389,303.1796 M399.61,310.1616c-0.1788,0.081-0.3514,0.1398-0.5103,0.1711
			c-0.4602,0.091-0.827-0.0224-1.004-0.3115c-0.302-0.4931-1.5571-1.3071-2.2056-1.4222c-0.1115-0.0199-0.2072-0.0215-0.2748,0.0054
			c-0.0944,0.0378-0.058,0.2618-0.0376,0.3566c0.3085,1.4514-0.5521,4.6322-1.5346,5.6725
			c-0.2791,0.2951-0.5666,0.4233-0.8505,0.3791c-0.2518-0.0388-0.49-0.2226-0.7238-0.505
			c-0.3192-0.3863-0.6301-0.9595-0.9553-1.6179c-0.1148-0.2334-0.2318-0.4763-0.3514-0.7259
			c-0.5059-1.0549-1.1354-2.3681-1.5869-2.5409c-0.46,0.3201-0.0143,4.3002,0.5202,6.7279c0.0919,0.4179-0.1346,0.58-0.2364,0.6302
			c-0.9932,0.491-5.4557-2.8948-5.4893-2.9346c-0.0301-0.0358-0.0617-0.0548-0.1284-0.0472
			c-0.7389,0.0834-2.4839,2.4896-3.2998,4.0709c-0.873,1.6923-1.3554,2.2774-1.8461,2.2399
			c-0.5225-0.0409-0.7495-0.7262-1.1256-1.8613c-0.181-0.5467-0.3863-1.1666-0.6617-1.8255
			c-0.9775-2.3418-1.7926-2.8422-2.3102-2.8422c-0.0066,0-0.0134,0.0002-0.0199,0.0002c-0.7682,0.0194-1.5893,1.1378-2.3123,3.1489
			c-0.6463,1.798-1.2392,2.6699-1.8497,2.7195c-0.0265,0.0023-0.0534,0.0053-0.0799,0.0042
			c-0.2928-0.0083-0.5422-0.1919-0.7545-0.5535c-0.1233-0.2107-0.2343-0.481-0.3332-0.8148
			c-0.1246-0.4205-0.2287-1.0227-0.3394-1.6601c-0.2254-1.2987-0.5651-3.2611-1.1841-3.4503
			c-0.2435-0.0737-0.5575,0.1831-0.7773,0.4123c-0.105,0.1094-1.6503,1.6129-3.2291,3.0307
			c-0.1801,0.1615-0.3496,0.312-0.5118,0.4554c-1.1748,1.0344-1.9164,1.6112-2.3975,1.9232
			c-0.6785,0.44-0.8393,0.3556-0.9643,0.2891c-0.0769-0.0412-0.2489-0.1732-0.1756-0.5064
			c0.3798-1.7245-0.0843-8.3459-0.7559-8.6058c-0.4307,0.1565-0.7595,1.3306-1.0234,2.2738
			c-0.3683,1.3154-0.6861,2.4512-1.4263,2.5653c-0.2847,0.0441-0.5717-0.084-0.8504-0.3791
			c-0.9829-1.0403-1.8436-4.221-1.5349-5.6724c0.0202-0.0948,0.0567-0.3189-0.0378-0.3567
			c-0.4585-0.1818-2.1265,0.8387-2.4803,1.4168c-0.08,0.1303-0.2788,0.3387-0.7103,0.2629
			c-0.3737-0.0653-0.8636-0.3459-1.3644-0.7639c-0.3819-0.3186-0.7682-0.718-1.1161-1.1686c-0.542-0.7019-0.9879-1.5233-1.158-2.349
			c-0.5169-2.5104-0.589-3.0208-0.2528-3.2337c0.2689-0.1703,0.5494,0.0414,1.0147,0.3914c0.335,0.2519,0.7598,0.5705,1.283,0.8465
			c0.4057,0.2138,0.8705,0.4012,1.4001,0.5117c0.0978,0.0204,0.1973,0.039,0.2998,0.054c1.8437,0.2657,3.3421-1.3671,4.6641-2.8085
			c0.1544-0.1684,0.3061-0.3338,0.455-0.4925c0.0987-0.1055,0.3995-0.4266,0.7369-0.2981c0.4568,0.1726,0.5013,0.9437,0.5467,2.4061
			c0.0301,0.9826,0.0807,2.627,0.4906,2.6818c0.4802,0.0585,1.4824-1.344,2.3698-2.5856c0.2671-0.3743,0.5432-0.7601,0.8254-1.1396
			c0.9309-1.2517,1.9322-2.4357,2.9424-2.9114c0.1822-0.0858,0.3527-0.1288,0.5103-0.1287c0.1558,0,0.2989,0.0421,0.4278,0.1263
			c0.7386,0.4818,0.694,2.2536,0.6466,4.1295c-0.0043,0.1765-0.009,0.3592-0.0126,0.5434c-0.023,1.1333-0.0129,2.3286,0.2704,2.5623
			c0.0147,0.0124,0.037,0.031,0.1037,0.0161c0.8161-0.1794,2.0992-2.2324,3.1303-3.8822c0.7426-1.1877,1.3125-2.0807,1.7892-2.6142
			c0.2629-0.2943,0.4981-0.4807,0.7172-0.5434c0.3663-0.1049,0.6739,0.1271,0.9568,0.5888c0.4058,0.663,0.7605,1.7999,1.1655,3.0983
			c0.4102,1.3166,0.9724,3.1198,1.4079,3.3041c0.3321-0.104,0.707-2.0604,0.931-3.2294c0.3989-2.0816,0.6797-3.3696,1.2141-3.6981
			c0.1375-0.085,0.2901-0.107,0.4403-0.0638c0.6168,0.1764,1.354,1.3146,2.5061,3.1576c1.0314,1.6497,2.3147,3.7028,3.1305,3.8822
			c0.0898,0.0202,0.1356-0.0023,0.1681-0.0266c0.3229-0.2426,0.4016-1.4517,0.465-2.4234c0.0957-1.4695,0.1863-2.8577,0.9041-3.2808
			c0.29-0.1713,0.6398-0.1619,1.0397,0.0266c1.2815,0.6035,2.3888,1.9581,3.3655,3.1534c0.6694,0.8191,1.3595,1.6582,1.8601,1.8821
			c0.1019,0.0455,0.1967,0.0676,0.2811,0.0565c0.4099-0.0548,0.4606-1.699,0.4909-2.6816c0.0357-1.1638,0.0722-1.8887,0.3156-2.2235
			c0.0623-0.0858,0.1375-0.1475,0.2307-0.1827c0.3386-0.1285,0.6384,0.1926,0.7374,0.2981c0.1427,0.152,0.2877,0.3097,0.4355,0.4706
			c0.0348,0.0379,0.0698,0.0759,0.1049,0.1139c1.3,1.4128,2.7735,2.955,4.5818,2.7161c0.4099-0.0545,0.7873-0.1809,1.1313-0.3428
			c0.6567-0.3091,1.1909-0.7489,1.5905-1.0789c0.4754-0.3928,0.7893-0.6525,1.088-0.4807c0.3332,0.1907,0.3649,0.6496-0.0662,3.3219
			C402.0825,308.2467,400.7094,309.6654,399.61,310.1616 M392.5303,331.7309c2.3217,1.207,4.6224,2.4389,6.4781,3.4758
			c0.6447-0.6304,3.3574-3.45,2.8881-5.8374c-0.2336-1.1905-1.2462-2.1215-3.0085-2.7671
			c-6.1544-2.2536-15.3441-0.7178-16.8871,0.0318c0.8888,0.3289,2.5688,1.1041,4.6063,2.1004
			c0.3044,0.149,0.6174,0.3031,0.9364,0.4612c0.1141,0.0564,0.2292,0.1139,0.3449,0.1714
			C389.3563,330.0973,390.9475,330.9079,392.5303,331.7309 M387.3263,329.6699c-2.6367-1.3045-4.7881-2.3042-5.6752-2.6068
			c-0.1962-0.0667-0.3098-0.1754-0.3378-0.3231c-0.0147-0.0788-0.0135-0.2332,0.1633-0.3833
			c0.1663-0.1411,0.5605-0.3037,1.1313-0.4681c1.6797-0.4834,4.8923-0.9806,8.3563-0.9806c2.7585,0,5.6765,0.3154,8.1032,1.2043
			c1.9459,0.7128,3.0702,1.7752,3.3415,3.1574c0.5845,2.9799-3.03,6.3114-3.1839,6.4515l-0.0327,0.0298l-0.1062,0.0971
			l-0.1645-0.0919c-0.5486-0.3076-1.1248-0.6262-1.7198-0.9514c-0.0026-0.0015-0.0051-0.0027-0.0075-0.0041
			c-0.8459-0.4622-1.7307-0.9378-2.631-1.4159c-0.6742-0.3578-1.3568-0.7165-2.0387-1.0719
			c-1.6773-0.8737-3.3501-1.7253-4.8745-2.4828C387.5408,329.7758,387.4339,329.7233,387.3263,329.6699 M341.0036,327.3437
			c-0.6101,2.873,2.972,6.7239,3.724,7.4939c5.4013-3.0181,14.5669-7.685,17.0526-8.5885
			c-1.3005-0.9125-11.6528-3.8496-18.0515-1.5057C342.1652,325.3161,341.2483,326.191,341.0036,327.3437 M359.3237,324.7515
			c0.8364,0.2414,1.5376,0.4865,2.0511,0.7101c0.3794,0.1652,0.6571,0.3187,0.8123,0.4504c0.1746,0.1482,0.2479,0.3035,0.2177,0.462
			c-0.0197,0.1034-0.0919,0.243-0.3244,0.3226c-0.1571,0.0536-0.3583,0.1314-0.5905,0.2263
			c-1.7662,0.7241-5.5736,2.5854-9.5305,4.6329c-0.0773,0.04-0.1545,0.08-0.2322,0.1201c-2.1366,1.1078-4.3034,2.2633-6.2055,3.317
			c-0.2412,0.1339-0.4799,0.2663-0.7118,0.3967l-0.1694,0.0948l-0.1144-0.1107l-0.0251-0.0241
			c-0.194-0.1881-4.7446-4.6412-4.008-8.1134c0.2844-1.3405,1.3125-2.3441,3.0562-2.9824c1.7768-0.651,3.8933-0.9034,6.0544-0.9034
			C353.1631,323.3503,356.8423,324.0349,359.3237,324.7515"/>
	</g>
</g>
</svg>
